G04 #@! TF.FileFunction,Profile,NP*
%FSLAX46Y46*%
G04 Gerber Fmt 4.6, Leading zero omitted, Abs format (unit mm)*
G04 Created by KiCad (PCBNEW (2015-08-16 BZR 6096, Git c63f6aa)-product) date Sun 16 Aug 2015 06:36:37 PM PDT*
%MOMM*%
G01*
G04 APERTURE LIST*
%ADD10C,0.100000*%
%ADD11C,0.150000*%
%ADD12C,0.010000*%
G04 APERTURE END LIST*
D10*
D11*
X200000000Y-57000000D02*
G75*
G03X197000000Y-54000000I-3000000J0D01*
G01*
X103000000Y-54000000D02*
G75*
G03X100000000Y-57000000I0J-3000000D01*
G01*
X100000000Y-111000000D02*
G75*
G03X103000000Y-114000000I3000000J0D01*
G01*
X197000000Y-114000000D02*
G75*
G03X200000000Y-111000000I0J3000000D01*
G01*
X200000000Y-57000000D02*
X200000000Y-111000000D01*
X103000000Y-54000000D02*
X197000000Y-54000000D01*
X100000000Y-111000000D02*
X100000000Y-57000000D01*
X197000000Y-114000000D02*
X103000000Y-114000000D01*
D12*
X157704505Y-58649049D02*
X157350951Y-58295495D01*
X159649049Y-57411612D02*
X158411612Y-58649049D01*
X159295495Y-56350951D02*
X159649049Y-56704505D01*
X157350951Y-57588388D02*
X158588388Y-56350951D01*
X157350952Y-57588388D02*
G75*
G03X157350951Y-58295495I353553J-353554D01*
G01*
X157704504Y-58649049D02*
G75*
G03X158411612Y-58649049I353554J353554D01*
G01*
X159649048Y-57411612D02*
G75*
G03X159649049Y-56704505I-353553J353554D01*
G01*
X159295496Y-56350951D02*
G75*
G03X158588388Y-56350951I-353554J-353554D01*
G01*
X160704505Y-61649049D02*
X160350951Y-61295495D01*
X162649049Y-60411612D02*
X161411612Y-61649049D01*
X162295495Y-59350951D02*
X162649049Y-59704505D01*
X160350951Y-60588388D02*
X161588388Y-59350951D01*
X160350952Y-60588388D02*
G75*
G03X160350951Y-61295495I353553J-353554D01*
G01*
X160704504Y-61649049D02*
G75*
G03X161411612Y-61649049I353554J353554D01*
G01*
X162649048Y-60411612D02*
G75*
G03X162649049Y-59704505I-353553J353554D01*
G01*
X162295496Y-59350951D02*
G75*
G03X161588388Y-59350951I-353554J-353554D01*
G01*
M02*
