G04 #@! TF.FileFunction,Legend,Top*
%FSLAX46Y46*%
G04 Gerber Fmt 4.6, Leading zero omitted, Abs format (unit mm)*
G04 Created by KiCad (PCBNEW (2015-08-16 BZR 6096, Git c63f6aa)-product) date Sun 16 Aug 2015 06:36:37 PM PDT*
%MOMM*%
G01*
G04 APERTURE LIST*
%ADD10C,0.100000*%
%ADD11C,0.150000*%
%ADD12C,0.200000*%
%ADD13C,0.300000*%
%ADD14C,0.750000*%
G04 APERTURE END LIST*
D10*
D11*
X189250000Y-95750000D02*
X198250000Y-95750000D01*
X184500000Y-100500000D02*
X189250000Y-95750000D01*
X175000000Y-100500000D02*
X184500000Y-100500000D01*
X134150000Y-91050000D02*
X128000000Y-91050000D01*
X134850000Y-91750000D02*
X134150000Y-91050000D01*
X135850000Y-91750000D02*
X134850000Y-91750000D01*
D12*
X176416667Y-99404762D02*
X175750000Y-98452381D01*
X175273809Y-99404762D02*
X175273809Y-97404762D01*
X176035714Y-97404762D01*
X176226190Y-97500000D01*
X176321429Y-97595238D01*
X176416667Y-97785714D01*
X176416667Y-98071429D01*
X176321429Y-98261905D01*
X176226190Y-98357143D01*
X176035714Y-98452381D01*
X175273809Y-98452381D01*
X177273809Y-98357143D02*
X177940476Y-98357143D01*
X178226190Y-99404762D02*
X177273809Y-99404762D01*
X177273809Y-97404762D01*
X178226190Y-97404762D01*
X178797619Y-97404762D02*
X179464286Y-99404762D01*
X180130953Y-97404762D01*
X180797619Y-98642857D02*
X182321429Y-98642857D01*
X184321429Y-99404762D02*
X183178571Y-99404762D01*
X183750000Y-99404762D02*
X183750000Y-97404762D01*
X183559524Y-97690476D01*
X183369048Y-97880952D01*
X183178571Y-97976190D01*
D11*
X119200000Y-90050000D02*
X119800000Y-90950000D01*
X119800000Y-90950000D02*
X118600000Y-90950000D01*
X118600000Y-90950000D02*
X119200000Y-90050000D01*
X118375000Y-90125000D02*
X118375000Y-89760000D01*
X110625000Y-90125000D02*
X110625000Y-89760000D01*
X110625000Y-74375000D02*
X110625000Y-74740000D01*
X118375000Y-74375000D02*
X118375000Y-74740000D01*
X118375000Y-90125000D02*
X110625000Y-90125000D01*
X118375000Y-74375000D02*
X110625000Y-74375000D01*
X118375000Y-89760000D02*
X120200000Y-89760000D01*
X108418780Y-101189860D02*
X108779460Y-102660520D01*
X108779460Y-102660520D02*
X109058860Y-101598800D01*
X109058860Y-101598800D02*
X109368740Y-102670680D01*
X109368740Y-102670680D02*
X109709100Y-101220340D01*
X106998920Y-101880740D02*
X107788860Y-101870580D01*
X107788860Y-101870580D02*
X107799020Y-101880740D01*
X107799020Y-101880740D02*
X107799020Y-101870580D01*
X107839660Y-101159380D02*
X107839660Y-102701160D01*
X106950660Y-101149220D02*
X106950660Y-102718940D01*
X106950660Y-102718940D02*
X106960820Y-102708780D01*
X106399480Y-101250820D02*
X106048960Y-101169540D01*
X106048960Y-101169540D02*
X105728920Y-101159380D01*
X105728920Y-101159380D02*
X105490160Y-101360040D01*
X105490160Y-101360040D02*
X105459680Y-101629280D01*
X105459680Y-101629280D02*
X105700980Y-101870580D01*
X105700980Y-101870580D02*
X106089600Y-102000120D01*
X106089600Y-102000120D02*
X106269940Y-102160140D01*
X106269940Y-102160140D02*
X106310580Y-102459860D01*
X106310580Y-102459860D02*
X106079440Y-102680840D01*
X106079440Y-102680840D02*
X105759400Y-102708780D01*
X105759400Y-102708780D02*
X105408880Y-102599560D01*
X104370020Y-101149220D02*
X104121100Y-101169540D01*
X104121100Y-101169540D02*
X103879800Y-101410840D01*
X103879800Y-101410840D02*
X103790900Y-101901060D01*
X103790900Y-101901060D02*
X103818840Y-102249040D01*
X103818840Y-102249040D02*
X104019500Y-102569080D01*
X104019500Y-102569080D02*
X104270960Y-102691000D01*
X104270960Y-102691000D02*
X104580840Y-102619880D01*
X104580840Y-102619880D02*
X104799280Y-102439540D01*
X104799280Y-102439540D02*
X104870400Y-101979800D01*
X104870400Y-101979800D02*
X104819600Y-101570860D01*
X104819600Y-101570860D02*
X104710380Y-101288920D01*
X104710380Y-101288920D02*
X104349700Y-101159380D01*
X104969460Y-99429640D02*
X104710380Y-99990980D01*
X104710380Y-99990980D02*
X105248860Y-100509140D01*
X105248860Y-100509140D02*
X105769560Y-100239900D01*
X105769560Y-100239900D02*
X106048960Y-100399920D01*
X107489140Y-100379600D02*
X107819340Y-100189100D01*
X107819340Y-100189100D02*
X108258760Y-100519300D01*
X108258760Y-100519300D02*
X108731200Y-100029080D01*
X108731200Y-100029080D02*
X108449260Y-99549020D01*
X108449260Y-99549020D02*
X108639760Y-99079120D01*
X108639760Y-99079120D02*
X109249360Y-98891160D01*
X109249360Y-98891160D02*
X109249360Y-98210440D01*
X109249360Y-98210440D02*
X108690560Y-98070740D01*
X108690560Y-98070740D02*
X108489900Y-97499240D01*
X108489900Y-97499240D02*
X108759140Y-97029340D01*
X108759140Y-97029340D02*
X108289240Y-96518800D01*
X108289240Y-96518800D02*
X107771080Y-96780420D01*
X107771080Y-96780420D02*
X107301180Y-96579760D01*
X107301180Y-96579760D02*
X107131000Y-96038740D01*
X107131000Y-96038740D02*
X106440120Y-96020960D01*
X106440120Y-96020960D02*
X106229300Y-96569600D01*
X106229300Y-96569600D02*
X105810200Y-96739780D01*
X105810200Y-96739780D02*
X105259020Y-96470540D01*
X105259020Y-96470540D02*
X104740860Y-96998860D01*
X104740860Y-96998860D02*
X104989780Y-97539880D01*
X104989780Y-97539880D02*
X104819600Y-98019940D01*
X104819600Y-98019940D02*
X104270960Y-98119000D01*
X104270960Y-98119000D02*
X104260800Y-98820040D01*
X104260800Y-98820040D02*
X104819600Y-99020700D01*
X104819600Y-99020700D02*
X104959300Y-99419480D01*
X107100520Y-99399160D02*
X107400240Y-99249300D01*
X107400240Y-99249300D02*
X107600900Y-99051180D01*
X107600900Y-99051180D02*
X107750760Y-98649860D01*
X107750760Y-98649860D02*
X107750760Y-98251080D01*
X107750760Y-98251080D02*
X107600900Y-97900560D01*
X107600900Y-97900560D02*
X107148780Y-97550040D01*
X107148780Y-97550040D02*
X106699200Y-97499240D01*
X106699200Y-97499240D02*
X106300420Y-97600840D01*
X106300420Y-97600840D02*
X105899100Y-97948820D01*
X105899100Y-97948820D02*
X105749240Y-98400940D01*
X105749240Y-98400940D02*
X105800040Y-98898780D01*
X105800040Y-98898780D02*
X106048960Y-99201040D01*
X106048960Y-99201040D02*
X106399480Y-99399160D01*
X106399480Y-99399160D02*
X106048960Y-100399920D01*
X107100520Y-99399160D02*
X107499300Y-100399920D01*
X187350000Y-85375000D02*
X186550000Y-85375000D01*
X188500000Y-85375000D02*
X188250000Y-85375000D01*
X187350000Y-84975000D02*
X187150000Y-84775000D01*
X187350000Y-84975000D02*
X187350000Y-85775000D01*
X187350000Y-85775000D02*
X187550000Y-85975000D01*
X188250000Y-86175000D02*
X187450000Y-85375000D01*
X187450000Y-85375000D02*
X188250000Y-84575000D01*
X188250000Y-84575000D02*
X188250000Y-86175000D01*
X189836000Y-87280000D02*
X185264000Y-87280000D01*
X185264000Y-87280000D02*
X185264000Y-86645000D01*
X186889600Y-83470000D02*
X186889600Y-87280000D01*
X186559400Y-83470000D02*
X186559400Y-87280000D01*
X189836000Y-84105000D02*
X189836000Y-83470000D01*
X189836000Y-83470000D02*
X185264000Y-83470000D01*
X185264000Y-83470000D02*
X185264000Y-84105000D01*
X189836000Y-86645000D02*
X189836000Y-87280000D01*
X138000000Y-91750000D02*
X138150000Y-91750000D01*
X137350000Y-91750000D02*
X137500000Y-91750000D01*
X137500000Y-91250000D02*
X138000000Y-91750000D01*
X138000000Y-91750000D02*
X137500000Y-92250000D01*
X139650000Y-92600000D02*
X139650000Y-90900000D01*
X139650000Y-90900000D02*
X135850000Y-90900000D01*
X135850000Y-90900000D02*
X135850000Y-92600000D01*
X135850000Y-92600000D02*
X139650000Y-92600000D01*
X138000000Y-92250000D02*
X138000000Y-91250000D01*
X137500000Y-92250000D02*
X137500000Y-91250000D01*
X193650000Y-66650000D02*
X193650000Y-70850000D01*
X198850000Y-66650000D02*
X198850000Y-70850000D01*
X179770000Y-76611000D02*
X177230000Y-76611000D01*
X177230000Y-78389000D02*
X179770000Y-78389000D01*
X177230000Y-78389000D02*
X177230000Y-76611000D01*
X179770000Y-76611000D02*
X179770000Y-78389000D01*
X188550000Y-93875000D02*
X186550000Y-93875000D01*
X188550000Y-87875000D02*
X186550000Y-87875000D01*
X108500000Y-59000000D02*
G75*
G03X108500000Y-59000000I-3500000J0D01*
G01*
X198500000Y-59000000D02*
G75*
G03X198500000Y-59000000I-3500000J0D01*
G01*
X108500000Y-109000000D02*
G75*
G03X108500000Y-109000000I-3500000J0D01*
G01*
X198500000Y-109000000D02*
G75*
G03X198500000Y-109000000I-3500000J0D01*
G01*
X164803219Y-56500000D02*
G75*
G03X164803219Y-56500000I-803219J0D01*
G01*
X146837219Y-74398000D02*
G75*
G03X146837219Y-74398000I-803219J0D01*
G01*
X149377219Y-74398000D02*
G75*
G03X149377219Y-74398000I-803219J0D01*
G01*
X146837219Y-71858000D02*
G75*
G03X146837219Y-71858000I-803219J0D01*
G01*
X149377219Y-71858000D02*
G75*
G03X149377219Y-71858000I-803219J0D01*
G01*
X146770000Y-61770000D02*
X154390000Y-61770000D01*
X154390000Y-61770000D02*
X154390000Y-56690000D01*
X154390000Y-56690000D02*
X144230000Y-56690000D01*
X144230000Y-56690000D02*
X144230000Y-59230000D01*
X143950000Y-60500000D02*
X143950000Y-62050000D01*
X144230000Y-59230000D02*
X146770000Y-59230000D01*
X146770000Y-59230000D02*
X146770000Y-61770000D01*
X143950000Y-62050000D02*
X145500000Y-62050000D01*
X102730000Y-66270000D02*
X102730000Y-73890000D01*
X102730000Y-73890000D02*
X107810000Y-73890000D01*
X107810000Y-73890000D02*
X107810000Y-63730000D01*
X107810000Y-63730000D02*
X105270000Y-63730000D01*
X104000000Y-63450000D02*
X102450000Y-63450000D01*
X105270000Y-63730000D02*
X105270000Y-66270000D01*
X105270000Y-66270000D02*
X102730000Y-66270000D01*
X102450000Y-63450000D02*
X102450000Y-65000000D01*
X147600000Y-83450000D02*
X145400000Y-83450000D01*
X147600000Y-80050000D02*
X145400000Y-80050000D01*
X151700000Y-101900000D02*
X151700000Y-104100000D01*
X148300000Y-101900000D02*
X148300000Y-104100000D01*
X152350000Y-67700000D02*
X150150000Y-67700000D01*
X152350000Y-64300000D02*
X150150000Y-64300000D01*
X174300000Y-87700000D02*
G75*
G03X174300000Y-87700000I-100000J0D01*
G01*
X173950000Y-88250000D02*
X173950000Y-87750000D01*
X171050000Y-88250000D02*
X173950000Y-88250000D01*
X171050000Y-87750000D02*
X171050000Y-88250000D01*
X173950000Y-87750000D02*
X171050000Y-87750000D01*
X191475000Y-79825000D02*
G75*
G03X191475000Y-79825000I-50000J0D01*
G01*
X191575000Y-79825000D02*
G75*
G03X191575000Y-79825000I-150000J0D01*
G01*
X186625000Y-74825000D02*
X186625000Y-74625000D01*
X186625000Y-74625000D02*
X190625000Y-74625000D01*
X190625000Y-74625000D02*
X190625000Y-74825000D01*
X190625000Y-79425000D02*
X190625000Y-79625000D01*
X190625000Y-79625000D02*
X186625000Y-79625000D01*
X186625000Y-79625000D02*
X186625000Y-79425000D01*
X133375000Y-78625000D02*
X133375000Y-78925000D01*
X140625000Y-78625000D02*
X140625000Y-78925000D01*
X140625000Y-85875000D02*
X140625000Y-85575000D01*
X133375000Y-85875000D02*
X133375000Y-85575000D01*
X133375000Y-78625000D02*
X133675000Y-78625000D01*
X133375000Y-85875000D02*
X133675000Y-85875000D01*
X140625000Y-85875000D02*
X140325000Y-85875000D01*
X140625000Y-78625000D02*
X140325000Y-78625000D01*
X133375000Y-78925000D02*
X132150000Y-78925000D01*
D13*
X189750000Y-99250000D02*
X190000000Y-99250000D01*
X190000000Y-99250000D02*
X190500000Y-100750000D01*
X190500000Y-100750000D02*
X191000000Y-100750000D01*
X190750000Y-100000000D02*
X190750000Y-98000000D01*
X190750000Y-98000000D02*
X189250000Y-98000000D01*
X189250000Y-98000000D02*
X189250000Y-100000000D01*
X189250000Y-100000000D02*
X190750000Y-100000000D01*
X193000000Y-100000000D02*
X191500000Y-100000000D01*
X191500000Y-100000000D02*
X191500000Y-98000000D01*
X191500000Y-98000000D02*
X193000000Y-98000000D01*
D14*
X194500000Y-97500000D02*
X197500000Y-97500000D01*
X197500000Y-97500000D02*
X197500000Y-100500000D01*
X197500000Y-100500000D02*
X194500000Y-100500000D01*
X194500000Y-100500000D02*
X194500000Y-98000000D01*
X194500000Y-98000000D02*
X197000000Y-98000000D01*
X197000000Y-98000000D02*
X197000000Y-100000000D01*
X197000000Y-100000000D02*
X195000000Y-100000000D01*
X195000000Y-100000000D02*
X195000000Y-98500000D01*
X195000000Y-98500000D02*
X196500000Y-98500000D01*
X196500000Y-98500000D02*
X196500000Y-99500000D01*
X196500000Y-99500000D02*
X195500000Y-99500000D01*
X195500000Y-99500000D02*
X195500000Y-99000000D01*
X195500000Y-99000000D02*
X196000000Y-99000000D01*
X194000000Y-97000000D02*
X198000000Y-97000000D01*
X198000000Y-97000000D02*
X198000000Y-101000000D01*
X198000000Y-101000000D02*
X194000000Y-101000000D01*
X194000000Y-101000000D02*
X194000000Y-97000000D01*
D11*
X105875000Y-91100000D02*
X105875000Y-89900000D01*
X107625000Y-89900000D02*
X107625000Y-91100000D01*
X149875000Y-91100000D02*
X149875000Y-89900000D01*
X151625000Y-89900000D02*
X151625000Y-91100000D01*
X138350000Y-94625000D02*
X137150000Y-94625000D01*
X137150000Y-92875000D02*
X138350000Y-92875000D01*
X173850000Y-80875000D02*
X172650000Y-80875000D01*
X172650000Y-79125000D02*
X173850000Y-79125000D01*
X172650000Y-74125000D02*
X173850000Y-74125000D01*
X173850000Y-75875000D02*
X172650000Y-75875000D01*
X178900000Y-74125000D02*
X180100000Y-74125000D01*
X180100000Y-75875000D02*
X178900000Y-75875000D01*
X196100000Y-75925000D02*
X194900000Y-75925000D01*
X194900000Y-74175000D02*
X196100000Y-74175000D01*
X134875000Y-71900000D02*
X134875000Y-73100000D01*
X133125000Y-73100000D02*
X133125000Y-71900000D01*
X110750000Y-92600000D02*
X111750000Y-92600000D01*
X111750000Y-90900000D02*
X110750000Y-90900000D01*
X154750000Y-92600000D02*
X155750000Y-92600000D01*
X155750000Y-90900000D02*
X154750000Y-90900000D01*
X172750000Y-78350000D02*
X173750000Y-78350000D01*
X173750000Y-76650000D02*
X172750000Y-76650000D01*
X143750000Y-86400000D02*
X142750000Y-86400000D01*
X142750000Y-88100000D02*
X143750000Y-88100000D01*
X143750000Y-88650000D02*
X142750000Y-88650000D01*
X142750000Y-90350000D02*
X143750000Y-90350000D01*
X128250000Y-83650000D02*
X127250000Y-83650000D01*
X127250000Y-85350000D02*
X128250000Y-85350000D01*
X128250000Y-81400000D02*
X127250000Y-81400000D01*
X127250000Y-83100000D02*
X128250000Y-83100000D01*
X128250000Y-75400000D02*
X127250000Y-75400000D01*
X127250000Y-77100000D02*
X128250000Y-77100000D01*
X194525000Y-79125000D02*
X194525000Y-80125000D01*
X196225000Y-80125000D02*
X196225000Y-79125000D01*
X132350000Y-75500000D02*
X132350000Y-74500000D01*
X130650000Y-74500000D02*
X130650000Y-75500000D01*
X177750000Y-89400000D02*
X176750000Y-89400000D01*
X176750000Y-91100000D02*
X177750000Y-91100000D01*
X177750000Y-85150000D02*
X176750000Y-85150000D01*
X176750000Y-86850000D02*
X177750000Y-86850000D01*
X195650000Y-86500000D02*
X195650000Y-87500000D01*
X197350000Y-87500000D02*
X197350000Y-86500000D01*
X192650000Y-86500000D02*
X192650000Y-87500000D01*
X194350000Y-87500000D02*
X194350000Y-86500000D01*
X187375000Y-81025000D02*
X186375000Y-81025000D01*
X186375000Y-82725000D02*
X187375000Y-82725000D01*
X125500000Y-80850000D02*
X129500000Y-80850000D01*
X129500000Y-77650000D02*
X125500000Y-77650000D01*
D12*
X169250000Y-65000000D02*
X170250000Y-66500000D01*
X170250000Y-66500000D02*
X168250000Y-66500000D01*
X168250000Y-66500000D02*
X169250000Y-65000000D01*
D11*
X134850000Y-59750000D02*
X134850000Y-58750000D01*
X133150000Y-58750000D02*
X133150000Y-59750000D01*
X137350000Y-59750000D02*
X137350000Y-58750000D01*
X135650000Y-58750000D02*
X135650000Y-59750000D01*
X140889000Y-73520000D02*
X140889000Y-70980000D01*
X139111000Y-70980000D02*
X139111000Y-73520000D01*
X139111000Y-70980000D02*
X140889000Y-70980000D01*
X140889000Y-73520000D02*
X139111000Y-73520000D01*
X116350000Y-64625000D02*
X115150000Y-64625000D01*
X115150000Y-62875000D02*
X116350000Y-62875000D01*
X118942000Y-55505000D02*
X119704000Y-54997000D01*
X119704000Y-54997000D02*
X118942000Y-54489000D01*
X118942000Y-54489000D02*
X118942000Y-55505000D01*
X120085000Y-65919000D02*
X120085000Y-53981000D01*
X131515000Y-53981000D02*
X131515000Y-65919000D01*
X131515000Y-65919000D02*
X120085000Y-65919000D01*
X163200000Y-90050000D02*
X163800000Y-90950000D01*
X163800000Y-90950000D02*
X162600000Y-90950000D01*
X162600000Y-90950000D02*
X163200000Y-90050000D01*
X162375000Y-90125000D02*
X162375000Y-89760000D01*
X154625000Y-90125000D02*
X154625000Y-89760000D01*
X154625000Y-74375000D02*
X154625000Y-74740000D01*
X162375000Y-74375000D02*
X162375000Y-74740000D01*
X162375000Y-90125000D02*
X154625000Y-90125000D01*
X162375000Y-74375000D02*
X154625000Y-74375000D01*
X162375000Y-89760000D02*
X164200000Y-89760000D01*
X113738095Y-90502381D02*
X113738095Y-91311905D01*
X113785714Y-91407143D01*
X113833333Y-91454762D01*
X113928571Y-91502381D01*
X114119048Y-91502381D01*
X114214286Y-91454762D01*
X114261905Y-91407143D01*
X114309524Y-91311905D01*
X114309524Y-90502381D01*
X115261905Y-90502381D02*
X114785714Y-90502381D01*
X114738095Y-90978571D01*
X114785714Y-90930952D01*
X114880952Y-90883333D01*
X115119048Y-90883333D01*
X115214286Y-90930952D01*
X115261905Y-90978571D01*
X115309524Y-91073810D01*
X115309524Y-91311905D01*
X115261905Y-91407143D01*
X115214286Y-91454762D01*
X115119048Y-91502381D01*
X114880952Y-91502381D01*
X114785714Y-91454762D01*
X114738095Y-91407143D01*
X184200541Y-87213095D02*
X183200541Y-87213095D01*
X183200541Y-86975000D01*
X183248160Y-86832142D01*
X183343398Y-86736904D01*
X183438636Y-86689285D01*
X183629112Y-86641666D01*
X183771970Y-86641666D01*
X183962446Y-86689285D01*
X184057684Y-86736904D01*
X184152922Y-86832142D01*
X184200541Y-86975000D01*
X184200541Y-87213095D01*
X184200541Y-85689285D02*
X184200541Y-86260714D01*
X184200541Y-85975000D02*
X183200541Y-85975000D01*
X183343398Y-86070238D01*
X183438636Y-86165476D01*
X183486255Y-86260714D01*
X137013745Y-90502381D02*
X137013745Y-89502381D01*
X137251840Y-89502381D01*
X137394698Y-89550000D01*
X137489936Y-89645238D01*
X137537555Y-89740476D01*
X137585174Y-89930952D01*
X137585174Y-90073810D01*
X137537555Y-90264286D01*
X137489936Y-90359524D01*
X137394698Y-90454762D01*
X137251840Y-90502381D01*
X137013745Y-90502381D01*
X138442317Y-89835714D02*
X138442317Y-90502381D01*
X138204221Y-89454762D02*
X137966126Y-90169048D01*
X138585174Y-90169048D01*
X127978571Y-90485714D02*
X128150000Y-90542857D01*
X128435714Y-90542857D01*
X128550000Y-90485714D01*
X128607143Y-90428571D01*
X128664286Y-90314286D01*
X128664286Y-90200000D01*
X128607143Y-90085714D01*
X128550000Y-90028571D01*
X128435714Y-89971429D01*
X128207143Y-89914286D01*
X128092857Y-89857143D01*
X128035714Y-89800000D01*
X127978571Y-89685714D01*
X127978571Y-89571429D01*
X128035714Y-89457143D01*
X128092857Y-89400000D01*
X128207143Y-89342857D01*
X128492857Y-89342857D01*
X128664286Y-89400000D01*
X129007143Y-89342857D02*
X129692857Y-89342857D01*
X129350000Y-90542857D02*
X129350000Y-89342857D01*
X130035714Y-90200000D02*
X130607143Y-90200000D01*
X129921429Y-90542857D02*
X130321429Y-89342857D01*
X130721429Y-90542857D01*
X130950000Y-89342857D02*
X131635714Y-89342857D01*
X131292857Y-90542857D02*
X131292857Y-89342857D01*
X132035714Y-89342857D02*
X132035714Y-90314286D01*
X132092857Y-90428571D01*
X132150000Y-90485714D01*
X132264286Y-90542857D01*
X132492857Y-90542857D01*
X132607143Y-90485714D01*
X132664286Y-90428571D01*
X132721429Y-90314286D01*
X132721429Y-89342857D01*
X133235714Y-90485714D02*
X133407143Y-90542857D01*
X133692857Y-90542857D01*
X133807143Y-90485714D01*
X133864286Y-90428571D01*
X133921429Y-90314286D01*
X133921429Y-90200000D01*
X133864286Y-90085714D01*
X133807143Y-90028571D01*
X133692857Y-89971429D01*
X133464286Y-89914286D01*
X133350000Y-89857143D01*
X133292857Y-89800000D01*
X133235714Y-89685714D01*
X133235714Y-89571429D01*
X133292857Y-89457143D01*
X133350000Y-89400000D01*
X133464286Y-89342857D01*
X133750000Y-89342857D01*
X133921429Y-89400000D01*
X192578571Y-69083333D02*
X192578571Y-69416667D01*
X193102381Y-69416667D02*
X192102381Y-69416667D01*
X192102381Y-68940476D01*
X193102381Y-68035714D02*
X193102381Y-68607143D01*
X193102381Y-68321429D02*
X192102381Y-68321429D01*
X192245238Y-68416667D01*
X192340476Y-68511905D01*
X192388095Y-68607143D01*
X177809524Y-78778000D02*
X177714286Y-78730381D01*
X177571429Y-78730381D01*
X177428571Y-78778000D01*
X177333333Y-78873238D01*
X177285714Y-78968476D01*
X177238095Y-79158952D01*
X177238095Y-79301810D01*
X177285714Y-79492286D01*
X177333333Y-79587524D01*
X177428571Y-79682762D01*
X177571429Y-79730381D01*
X177666667Y-79730381D01*
X177809524Y-79682762D01*
X177857143Y-79635143D01*
X177857143Y-79301810D01*
X177666667Y-79301810D01*
X178238095Y-79682762D02*
X178380952Y-79730381D01*
X178619048Y-79730381D01*
X178714286Y-79682762D01*
X178761905Y-79635143D01*
X178809524Y-79539905D01*
X178809524Y-79444667D01*
X178761905Y-79349429D01*
X178714286Y-79301810D01*
X178619048Y-79254190D01*
X178428571Y-79206571D01*
X178333333Y-79158952D01*
X178285714Y-79111333D01*
X178238095Y-79016095D01*
X178238095Y-78920857D01*
X178285714Y-78825619D01*
X178333333Y-78778000D01*
X178428571Y-78730381D01*
X178666667Y-78730381D01*
X178809524Y-78778000D01*
X179761905Y-79730381D02*
X179190476Y-79730381D01*
X179476190Y-79730381D02*
X179476190Y-78730381D01*
X179380952Y-78873238D01*
X179285714Y-78968476D01*
X179190476Y-79016095D01*
X191833334Y-91452381D02*
X191357143Y-91452381D01*
X191357143Y-90452381D01*
X192690477Y-91452381D02*
X192119048Y-91452381D01*
X192404762Y-91452381D02*
X192404762Y-90452381D01*
X192309524Y-90595238D01*
X192214286Y-90690476D01*
X192119048Y-90738095D01*
X165261905Y-56952381D02*
X165261905Y-55952381D01*
X165642858Y-55952381D01*
X165738096Y-56000000D01*
X165785715Y-56047619D01*
X165833334Y-56142857D01*
X165833334Y-56285714D01*
X165785715Y-56380952D01*
X165738096Y-56428571D01*
X165642858Y-56476190D01*
X165261905Y-56476190D01*
X166785715Y-56952381D02*
X166214286Y-56952381D01*
X166500000Y-56952381D02*
X166500000Y-55952381D01*
X166404762Y-56095238D01*
X166309524Y-56190476D01*
X166214286Y-56238095D01*
X145295905Y-73582921D02*
X145295905Y-72582921D01*
X145676858Y-72582921D01*
X145772096Y-72630540D01*
X145819715Y-72678159D01*
X145867334Y-72773397D01*
X145867334Y-72916254D01*
X145819715Y-73011492D01*
X145772096Y-73059111D01*
X145676858Y-73106730D01*
X145295905Y-73106730D01*
X146248286Y-72678159D02*
X146295905Y-72630540D01*
X146391143Y-72582921D01*
X146629239Y-72582921D01*
X146724477Y-72630540D01*
X146772096Y-72678159D01*
X146819715Y-72773397D01*
X146819715Y-72868635D01*
X146772096Y-73011492D01*
X146200667Y-73582921D01*
X146819715Y-73582921D01*
X147835905Y-73582921D02*
X147835905Y-72582921D01*
X148216858Y-72582921D01*
X148312096Y-72630540D01*
X148359715Y-72678159D01*
X148407334Y-72773397D01*
X148407334Y-72916254D01*
X148359715Y-73011492D01*
X148312096Y-73059111D01*
X148216858Y-73106730D01*
X147835905Y-73106730D01*
X148740667Y-72582921D02*
X149359715Y-72582921D01*
X149026381Y-72963873D01*
X149169239Y-72963873D01*
X149264477Y-73011492D01*
X149312096Y-73059111D01*
X149359715Y-73154350D01*
X149359715Y-73392445D01*
X149312096Y-73487683D01*
X149264477Y-73535302D01*
X149169239Y-73582921D01*
X148883524Y-73582921D01*
X148788286Y-73535302D01*
X148740667Y-73487683D01*
X145295905Y-71042921D02*
X145295905Y-70042921D01*
X145676858Y-70042921D01*
X145772096Y-70090540D01*
X145819715Y-70138159D01*
X145867334Y-70233397D01*
X145867334Y-70376254D01*
X145819715Y-70471492D01*
X145772096Y-70519111D01*
X145676858Y-70566730D01*
X145295905Y-70566730D01*
X146772096Y-70042921D02*
X146295905Y-70042921D01*
X146248286Y-70519111D01*
X146295905Y-70471492D01*
X146391143Y-70423873D01*
X146629239Y-70423873D01*
X146724477Y-70471492D01*
X146772096Y-70519111D01*
X146819715Y-70614350D01*
X146819715Y-70852445D01*
X146772096Y-70947683D01*
X146724477Y-70995302D01*
X146629239Y-71042921D01*
X146391143Y-71042921D01*
X146295905Y-70995302D01*
X146248286Y-70947683D01*
X147835905Y-71042921D02*
X147835905Y-70042921D01*
X148216858Y-70042921D01*
X148312096Y-70090540D01*
X148359715Y-70138159D01*
X148407334Y-70233397D01*
X148407334Y-70376254D01*
X148359715Y-70471492D01*
X148312096Y-70519111D01*
X148216858Y-70566730D01*
X147835905Y-70566730D01*
X149264477Y-70042921D02*
X149074000Y-70042921D01*
X148978762Y-70090540D01*
X148931143Y-70138159D01*
X148835905Y-70281016D01*
X148788286Y-70471492D01*
X148788286Y-70852445D01*
X148835905Y-70947683D01*
X148883524Y-70995302D01*
X148978762Y-71042921D01*
X149169239Y-71042921D01*
X149264477Y-70995302D01*
X149312096Y-70947683D01*
X149359715Y-70852445D01*
X149359715Y-70614350D01*
X149312096Y-70519111D01*
X149264477Y-70471492D01*
X149169239Y-70423873D01*
X148978762Y-70423873D01*
X148883524Y-70471492D01*
X148835905Y-70519111D01*
X148788286Y-70614350D01*
X148511905Y-56128381D02*
X148511905Y-55128381D01*
X148892858Y-55128381D01*
X148988096Y-55176000D01*
X149035715Y-55223619D01*
X149083334Y-55318857D01*
X149083334Y-55461714D01*
X149035715Y-55556952D01*
X148988096Y-55604571D01*
X148892858Y-55652190D01*
X148511905Y-55652190D01*
X149416667Y-55128381D02*
X150083334Y-55128381D01*
X149654762Y-56128381D01*
X109276381Y-69534095D02*
X108276381Y-69534095D01*
X108276381Y-69153142D01*
X108324000Y-69057904D01*
X108371619Y-69010285D01*
X108466857Y-68962666D01*
X108609714Y-68962666D01*
X108704952Y-69010285D01*
X108752571Y-69057904D01*
X108800190Y-69153142D01*
X108800190Y-69534095D01*
X108704952Y-68391238D02*
X108657333Y-68486476D01*
X108609714Y-68534095D01*
X108514476Y-68581714D01*
X108466857Y-68581714D01*
X108371619Y-68534095D01*
X108324000Y-68486476D01*
X108276381Y-68391238D01*
X108276381Y-68200761D01*
X108324000Y-68105523D01*
X108371619Y-68057904D01*
X108466857Y-68010285D01*
X108514476Y-68010285D01*
X108609714Y-68057904D01*
X108657333Y-68105523D01*
X108704952Y-68200761D01*
X108704952Y-68391238D01*
X108752571Y-68486476D01*
X108800190Y-68534095D01*
X108895429Y-68581714D01*
X109085905Y-68581714D01*
X109181143Y-68534095D01*
X109228762Y-68486476D01*
X109276381Y-68391238D01*
X109276381Y-68200761D01*
X109228762Y-68105523D01*
X109181143Y-68057904D01*
X109085905Y-68010285D01*
X108895429Y-68010285D01*
X108800190Y-68057904D01*
X108752571Y-68105523D01*
X108704952Y-68200761D01*
X145833334Y-84202381D02*
X145500000Y-83726190D01*
X145261905Y-84202381D02*
X145261905Y-83202381D01*
X145642858Y-83202381D01*
X145738096Y-83250000D01*
X145785715Y-83297619D01*
X145833334Y-83392857D01*
X145833334Y-83535714D01*
X145785715Y-83630952D01*
X145738096Y-83678571D01*
X145642858Y-83726190D01*
X145261905Y-83726190D01*
X146261905Y-84202381D02*
X146261905Y-83202381D01*
X146642858Y-83202381D01*
X146738096Y-83250000D01*
X146785715Y-83297619D01*
X146833334Y-83392857D01*
X146833334Y-83535714D01*
X146785715Y-83630952D01*
X146738096Y-83678571D01*
X146642858Y-83726190D01*
X146261905Y-83726190D01*
X147785715Y-84202381D02*
X147214286Y-84202381D01*
X147500000Y-84202381D02*
X147500000Y-83202381D01*
X147404762Y-83345238D01*
X147309524Y-83440476D01*
X147214286Y-83488095D01*
X152452381Y-103666666D02*
X151976190Y-104000000D01*
X152452381Y-104238095D02*
X151452381Y-104238095D01*
X151452381Y-103857142D01*
X151500000Y-103761904D01*
X151547619Y-103714285D01*
X151642857Y-103666666D01*
X151785714Y-103666666D01*
X151880952Y-103714285D01*
X151928571Y-103761904D01*
X151976190Y-103857142D01*
X151976190Y-104238095D01*
X152452381Y-103238095D02*
X151452381Y-103238095D01*
X151452381Y-102857142D01*
X151500000Y-102761904D01*
X151547619Y-102714285D01*
X151642857Y-102666666D01*
X151785714Y-102666666D01*
X151880952Y-102714285D01*
X151928571Y-102761904D01*
X151976190Y-102857142D01*
X151976190Y-103238095D01*
X151547619Y-102285714D02*
X151500000Y-102238095D01*
X151452381Y-102142857D01*
X151452381Y-101904761D01*
X151500000Y-101809523D01*
X151547619Y-101761904D01*
X151642857Y-101714285D01*
X151738095Y-101714285D01*
X151880952Y-101761904D01*
X152452381Y-102333333D01*
X152452381Y-101714285D01*
X150583334Y-68452381D02*
X150250000Y-67976190D01*
X150011905Y-68452381D02*
X150011905Y-67452381D01*
X150392858Y-67452381D01*
X150488096Y-67500000D01*
X150535715Y-67547619D01*
X150583334Y-67642857D01*
X150583334Y-67785714D01*
X150535715Y-67880952D01*
X150488096Y-67928571D01*
X150392858Y-67976190D01*
X150011905Y-67976190D01*
X151011905Y-68452381D02*
X151011905Y-67452381D01*
X151392858Y-67452381D01*
X151488096Y-67500000D01*
X151535715Y-67547619D01*
X151583334Y-67642857D01*
X151583334Y-67785714D01*
X151535715Y-67880952D01*
X151488096Y-67928571D01*
X151392858Y-67976190D01*
X151011905Y-67976190D01*
X151916667Y-67452381D02*
X152535715Y-67452381D01*
X152202381Y-67833333D01*
X152345239Y-67833333D01*
X152440477Y-67880952D01*
X152488096Y-67928571D01*
X152535715Y-68023810D01*
X152535715Y-68261905D01*
X152488096Y-68357143D01*
X152440477Y-68404762D01*
X152345239Y-68452381D01*
X152059524Y-68452381D01*
X151964286Y-68404762D01*
X151916667Y-68357143D01*
X174502381Y-88711905D02*
X175311905Y-88711905D01*
X175407143Y-88664286D01*
X175454762Y-88616667D01*
X175502381Y-88521429D01*
X175502381Y-88330952D01*
X175454762Y-88235714D01*
X175407143Y-88188095D01*
X175311905Y-88140476D01*
X174502381Y-88140476D01*
X175502381Y-87140476D02*
X175502381Y-87711905D01*
X175502381Y-87426191D02*
X174502381Y-87426191D01*
X174645238Y-87521429D01*
X174740476Y-87616667D01*
X174788095Y-87711905D01*
X188015476Y-79986905D02*
X188015476Y-80634524D01*
X188053571Y-80710714D01*
X188091667Y-80748810D01*
X188167857Y-80786905D01*
X188320238Y-80786905D01*
X188396429Y-80748810D01*
X188434524Y-80710714D01*
X188472619Y-80634524D01*
X188472619Y-79986905D01*
X188815476Y-80063095D02*
X188853571Y-80025000D01*
X188929762Y-79986905D01*
X189120238Y-79986905D01*
X189196428Y-80025000D01*
X189234524Y-80063095D01*
X189272619Y-80139286D01*
X189272619Y-80215476D01*
X189234524Y-80329762D01*
X188777381Y-80786905D01*
X189272619Y-80786905D01*
X136238095Y-75852381D02*
X136238095Y-76661905D01*
X136285714Y-76757143D01*
X136333333Y-76804762D01*
X136428571Y-76852381D01*
X136619048Y-76852381D01*
X136714286Y-76804762D01*
X136761905Y-76757143D01*
X136809524Y-76661905D01*
X136809524Y-75852381D01*
X137190476Y-75852381D02*
X137809524Y-75852381D01*
X137476190Y-76233333D01*
X137619048Y-76233333D01*
X137714286Y-76280952D01*
X137761905Y-76328571D01*
X137809524Y-76423810D01*
X137809524Y-76661905D01*
X137761905Y-76757143D01*
X137714286Y-76804762D01*
X137619048Y-76852381D01*
X137333333Y-76852381D01*
X137238095Y-76804762D01*
X137190476Y-76757143D01*
X109302381Y-91142857D02*
X108826190Y-91476191D01*
X109302381Y-91714286D02*
X108302381Y-91714286D01*
X108302381Y-91333333D01*
X108350000Y-91238095D01*
X108397619Y-91190476D01*
X108492857Y-91142857D01*
X108635714Y-91142857D01*
X108730952Y-91190476D01*
X108778571Y-91238095D01*
X108826190Y-91333333D01*
X108826190Y-91714286D01*
X109302381Y-90190476D02*
X109302381Y-90761905D01*
X109302381Y-90476191D02*
X108302381Y-90476191D01*
X108445238Y-90571429D01*
X108540476Y-90666667D01*
X108588095Y-90761905D01*
X108302381Y-89571429D02*
X108302381Y-89476190D01*
X108350000Y-89380952D01*
X108397619Y-89333333D01*
X108492857Y-89285714D01*
X108683333Y-89238095D01*
X108921429Y-89238095D01*
X109111905Y-89285714D01*
X109207143Y-89333333D01*
X109254762Y-89380952D01*
X109302381Y-89476190D01*
X109302381Y-89571429D01*
X109254762Y-89666667D01*
X109207143Y-89714286D01*
X109111905Y-89761905D01*
X108921429Y-89809524D01*
X108683333Y-89809524D01*
X108492857Y-89761905D01*
X108397619Y-89714286D01*
X108350000Y-89666667D01*
X108302381Y-89571429D01*
X153302381Y-90666666D02*
X152826190Y-91000000D01*
X153302381Y-91238095D02*
X152302381Y-91238095D01*
X152302381Y-90857142D01*
X152350000Y-90761904D01*
X152397619Y-90714285D01*
X152492857Y-90666666D01*
X152635714Y-90666666D01*
X152730952Y-90714285D01*
X152778571Y-90761904D01*
X152826190Y-90857142D01*
X152826190Y-91238095D01*
X153302381Y-90190476D02*
X153302381Y-90000000D01*
X153254762Y-89904761D01*
X153207143Y-89857142D01*
X153064286Y-89761904D01*
X152873810Y-89714285D01*
X152492857Y-89714285D01*
X152397619Y-89761904D01*
X152350000Y-89809523D01*
X152302381Y-89904761D01*
X152302381Y-90095238D01*
X152350000Y-90190476D01*
X152397619Y-90238095D01*
X152492857Y-90285714D01*
X152730952Y-90285714D01*
X152826190Y-90238095D01*
X152873810Y-90190476D01*
X152921429Y-90095238D01*
X152921429Y-89904761D01*
X152873810Y-89809523D01*
X152826190Y-89761904D01*
X152730952Y-89714285D01*
X137583334Y-92102381D02*
X137250000Y-91626190D01*
X137011905Y-92102381D02*
X137011905Y-91102381D01*
X137392858Y-91102381D01*
X137488096Y-91150000D01*
X137535715Y-91197619D01*
X137583334Y-91292857D01*
X137583334Y-91435714D01*
X137535715Y-91530952D01*
X137488096Y-91578571D01*
X137392858Y-91626190D01*
X137011905Y-91626190D01*
X138154762Y-91530952D02*
X138059524Y-91483333D01*
X138011905Y-91435714D01*
X137964286Y-91340476D01*
X137964286Y-91292857D01*
X138011905Y-91197619D01*
X138059524Y-91150000D01*
X138154762Y-91102381D01*
X138345239Y-91102381D01*
X138440477Y-91150000D01*
X138488096Y-91197619D01*
X138535715Y-91292857D01*
X138535715Y-91340476D01*
X138488096Y-91435714D01*
X138440477Y-91483333D01*
X138345239Y-91530952D01*
X138154762Y-91530952D01*
X138059524Y-91578571D01*
X138011905Y-91626190D01*
X137964286Y-91721429D01*
X137964286Y-91911905D01*
X138011905Y-92007143D01*
X138059524Y-92054762D01*
X138154762Y-92102381D01*
X138345239Y-92102381D01*
X138440477Y-92054762D01*
X138488096Y-92007143D01*
X138535715Y-91911905D01*
X138535715Y-91721429D01*
X138488096Y-91626190D01*
X138440477Y-91578571D01*
X138345239Y-91530952D01*
X173083334Y-78352381D02*
X172750000Y-77876190D01*
X172511905Y-78352381D02*
X172511905Y-77352381D01*
X172892858Y-77352381D01*
X172988096Y-77400000D01*
X173035715Y-77447619D01*
X173083334Y-77542857D01*
X173083334Y-77685714D01*
X173035715Y-77780952D01*
X172988096Y-77828571D01*
X172892858Y-77876190D01*
X172511905Y-77876190D01*
X173416667Y-77352381D02*
X174083334Y-77352381D01*
X173654762Y-78352381D01*
X173083334Y-77552381D02*
X172750000Y-77076190D01*
X172511905Y-77552381D02*
X172511905Y-76552381D01*
X172892858Y-76552381D01*
X172988096Y-76600000D01*
X173035715Y-76647619D01*
X173083334Y-76742857D01*
X173083334Y-76885714D01*
X173035715Y-76980952D01*
X172988096Y-77028571D01*
X172892858Y-77076190D01*
X172511905Y-77076190D01*
X173940477Y-76552381D02*
X173750000Y-76552381D01*
X173654762Y-76600000D01*
X173607143Y-76647619D01*
X173511905Y-76790476D01*
X173464286Y-76980952D01*
X173464286Y-77361905D01*
X173511905Y-77457143D01*
X173559524Y-77504762D01*
X173654762Y-77552381D01*
X173845239Y-77552381D01*
X173940477Y-77504762D01*
X173988096Y-77457143D01*
X174035715Y-77361905D01*
X174035715Y-77123810D01*
X173988096Y-77028571D01*
X173940477Y-76980952D01*
X173845239Y-76933333D01*
X173654762Y-76933333D01*
X173559524Y-76980952D01*
X173511905Y-77028571D01*
X173464286Y-77123810D01*
X179333334Y-77552381D02*
X179000000Y-77076190D01*
X178761905Y-77552381D02*
X178761905Y-76552381D01*
X179142858Y-76552381D01*
X179238096Y-76600000D01*
X179285715Y-76647619D01*
X179333334Y-76742857D01*
X179333334Y-76885714D01*
X179285715Y-76980952D01*
X179238096Y-77028571D01*
X179142858Y-77076190D01*
X178761905Y-77076190D01*
X180238096Y-76552381D02*
X179761905Y-76552381D01*
X179714286Y-77028571D01*
X179761905Y-76980952D01*
X179857143Y-76933333D01*
X180095239Y-76933333D01*
X180190477Y-76980952D01*
X180238096Y-77028571D01*
X180285715Y-77123810D01*
X180285715Y-77361905D01*
X180238096Y-77457143D01*
X180190477Y-77504762D01*
X180095239Y-77552381D01*
X179857143Y-77552381D01*
X179761905Y-77504762D01*
X179714286Y-77457143D01*
X195333334Y-73402381D02*
X195000000Y-72926190D01*
X194761905Y-73402381D02*
X194761905Y-72402381D01*
X195142858Y-72402381D01*
X195238096Y-72450000D01*
X195285715Y-72497619D01*
X195333334Y-72592857D01*
X195333334Y-72735714D01*
X195285715Y-72830952D01*
X195238096Y-72878571D01*
X195142858Y-72926190D01*
X194761905Y-72926190D01*
X195666667Y-72402381D02*
X196285715Y-72402381D01*
X195952381Y-72783333D01*
X196095239Y-72783333D01*
X196190477Y-72830952D01*
X196238096Y-72878571D01*
X196285715Y-72973810D01*
X196285715Y-73211905D01*
X196238096Y-73307143D01*
X196190477Y-73354762D01*
X196095239Y-73402381D01*
X195809524Y-73402381D01*
X195714286Y-73354762D01*
X195666667Y-73307143D01*
X132352381Y-72666666D02*
X131876190Y-73000000D01*
X132352381Y-73238095D02*
X131352381Y-73238095D01*
X131352381Y-72857142D01*
X131400000Y-72761904D01*
X131447619Y-72714285D01*
X131542857Y-72666666D01*
X131685714Y-72666666D01*
X131780952Y-72714285D01*
X131828571Y-72761904D01*
X131876190Y-72857142D01*
X131876190Y-73238095D01*
X132352381Y-71714285D02*
X132352381Y-72285714D01*
X132352381Y-72000000D02*
X131352381Y-72000000D01*
X131495238Y-72095238D01*
X131590476Y-72190476D01*
X131638095Y-72285714D01*
X110607143Y-94207143D02*
X110559524Y-94254762D01*
X110416667Y-94302381D01*
X110321429Y-94302381D01*
X110178571Y-94254762D01*
X110083333Y-94159524D01*
X110035714Y-94064286D01*
X109988095Y-93873810D01*
X109988095Y-93730952D01*
X110035714Y-93540476D01*
X110083333Y-93445238D01*
X110178571Y-93350000D01*
X110321429Y-93302381D01*
X110416667Y-93302381D01*
X110559524Y-93350000D01*
X110607143Y-93397619D01*
X111559524Y-94302381D02*
X110988095Y-94302381D01*
X111273809Y-94302381D02*
X111273809Y-93302381D01*
X111178571Y-93445238D01*
X111083333Y-93540476D01*
X110988095Y-93588095D01*
X112464286Y-93302381D02*
X111988095Y-93302381D01*
X111940476Y-93778571D01*
X111988095Y-93730952D01*
X112083333Y-93683333D01*
X112321429Y-93683333D01*
X112416667Y-93730952D01*
X112464286Y-93778571D01*
X112511905Y-93873810D01*
X112511905Y-94111905D01*
X112464286Y-94207143D01*
X112416667Y-94254762D01*
X112321429Y-94302381D01*
X112083333Y-94302381D01*
X111988095Y-94254762D01*
X111940476Y-94207143D01*
X154607143Y-94207143D02*
X154559524Y-94254762D01*
X154416667Y-94302381D01*
X154321429Y-94302381D01*
X154178571Y-94254762D01*
X154083333Y-94159524D01*
X154035714Y-94064286D01*
X153988095Y-93873810D01*
X153988095Y-93730952D01*
X154035714Y-93540476D01*
X154083333Y-93445238D01*
X154178571Y-93350000D01*
X154321429Y-93302381D01*
X154416667Y-93302381D01*
X154559524Y-93350000D01*
X154607143Y-93397619D01*
X155559524Y-94302381D02*
X154988095Y-94302381D01*
X155273809Y-94302381D02*
X155273809Y-93302381D01*
X155178571Y-93445238D01*
X155083333Y-93540476D01*
X154988095Y-93588095D01*
X156416667Y-93635714D02*
X156416667Y-94302381D01*
X156178571Y-93254762D02*
X155940476Y-93969048D01*
X156559524Y-93969048D01*
X172607143Y-79957143D02*
X172559524Y-80004762D01*
X172416667Y-80052381D01*
X172321429Y-80052381D01*
X172178571Y-80004762D01*
X172083333Y-79909524D01*
X172035714Y-79814286D01*
X171988095Y-79623810D01*
X171988095Y-79480952D01*
X172035714Y-79290476D01*
X172083333Y-79195238D01*
X172178571Y-79100000D01*
X172321429Y-79052381D01*
X172416667Y-79052381D01*
X172559524Y-79100000D01*
X172607143Y-79147619D01*
X173559524Y-80052381D02*
X172988095Y-80052381D01*
X173273809Y-80052381D02*
X173273809Y-79052381D01*
X173178571Y-79195238D01*
X173083333Y-79290476D01*
X172988095Y-79338095D01*
X173892857Y-79052381D02*
X174511905Y-79052381D01*
X174178571Y-79433333D01*
X174321429Y-79433333D01*
X174416667Y-79480952D01*
X174464286Y-79528571D01*
X174511905Y-79623810D01*
X174511905Y-79861905D01*
X174464286Y-79957143D01*
X174416667Y-80004762D01*
X174321429Y-80052381D01*
X174035714Y-80052381D01*
X173940476Y-80004762D01*
X173892857Y-79957143D01*
X142607143Y-85507143D02*
X142559524Y-85554762D01*
X142416667Y-85602381D01*
X142321429Y-85602381D01*
X142178571Y-85554762D01*
X142083333Y-85459524D01*
X142035714Y-85364286D01*
X141988095Y-85173810D01*
X141988095Y-85030952D01*
X142035714Y-84840476D01*
X142083333Y-84745238D01*
X142178571Y-84650000D01*
X142321429Y-84602381D01*
X142416667Y-84602381D01*
X142559524Y-84650000D01*
X142607143Y-84697619D01*
X143559524Y-85602381D02*
X142988095Y-85602381D01*
X143273809Y-85602381D02*
X143273809Y-84602381D01*
X143178571Y-84745238D01*
X143083333Y-84840476D01*
X142988095Y-84888095D01*
X143940476Y-84697619D02*
X143988095Y-84650000D01*
X144083333Y-84602381D01*
X144321429Y-84602381D01*
X144416667Y-84650000D01*
X144464286Y-84697619D01*
X144511905Y-84792857D01*
X144511905Y-84888095D01*
X144464286Y-85030952D01*
X143892857Y-85602381D01*
X144511905Y-85602381D01*
X142607143Y-87757143D02*
X142559524Y-87804762D01*
X142416667Y-87852381D01*
X142321429Y-87852381D01*
X142178571Y-87804762D01*
X142083333Y-87709524D01*
X142035714Y-87614286D01*
X141988095Y-87423810D01*
X141988095Y-87280952D01*
X142035714Y-87090476D01*
X142083333Y-86995238D01*
X142178571Y-86900000D01*
X142321429Y-86852381D01*
X142416667Y-86852381D01*
X142559524Y-86900000D01*
X142607143Y-86947619D01*
X143559524Y-87852381D02*
X142988095Y-87852381D01*
X143273809Y-87852381D02*
X143273809Y-86852381D01*
X143178571Y-86995238D01*
X143083333Y-87090476D01*
X142988095Y-87138095D01*
X144511905Y-87852381D02*
X143940476Y-87852381D01*
X144226190Y-87852381D02*
X144226190Y-86852381D01*
X144130952Y-86995238D01*
X144035714Y-87090476D01*
X143940476Y-87138095D01*
X127107143Y-82757143D02*
X127059524Y-82804762D01*
X126916667Y-82852381D01*
X126821429Y-82852381D01*
X126678571Y-82804762D01*
X126583333Y-82709524D01*
X126535714Y-82614286D01*
X126488095Y-82423810D01*
X126488095Y-82280952D01*
X126535714Y-82090476D01*
X126583333Y-81995238D01*
X126678571Y-81900000D01*
X126821429Y-81852381D01*
X126916667Y-81852381D01*
X127059524Y-81900000D01*
X127107143Y-81947619D01*
X128059524Y-82852381D02*
X127488095Y-82852381D01*
X127773809Y-82852381D02*
X127773809Y-81852381D01*
X127678571Y-81995238D01*
X127583333Y-82090476D01*
X127488095Y-82138095D01*
X128678571Y-81852381D02*
X128773810Y-81852381D01*
X128869048Y-81900000D01*
X128916667Y-81947619D01*
X128964286Y-82042857D01*
X129011905Y-82233333D01*
X129011905Y-82471429D01*
X128964286Y-82661905D01*
X128916667Y-82757143D01*
X128869048Y-82804762D01*
X128773810Y-82852381D01*
X128678571Y-82852381D01*
X128583333Y-82804762D01*
X128535714Y-82757143D01*
X128488095Y-82661905D01*
X128440476Y-82471429D01*
X128440476Y-82233333D01*
X128488095Y-82042857D01*
X128535714Y-81947619D01*
X128583333Y-81900000D01*
X128678571Y-81852381D01*
X127583334Y-80507143D02*
X127535715Y-80554762D01*
X127392858Y-80602381D01*
X127297620Y-80602381D01*
X127154762Y-80554762D01*
X127059524Y-80459524D01*
X127011905Y-80364286D01*
X126964286Y-80173810D01*
X126964286Y-80030952D01*
X127011905Y-79840476D01*
X127059524Y-79745238D01*
X127154762Y-79650000D01*
X127297620Y-79602381D01*
X127392858Y-79602381D01*
X127535715Y-79650000D01*
X127583334Y-79697619D01*
X128059524Y-80602381D02*
X128250000Y-80602381D01*
X128345239Y-80554762D01*
X128392858Y-80507143D01*
X128488096Y-80364286D01*
X128535715Y-80173810D01*
X128535715Y-79792857D01*
X128488096Y-79697619D01*
X128440477Y-79650000D01*
X128345239Y-79602381D01*
X128154762Y-79602381D01*
X128059524Y-79650000D01*
X128011905Y-79697619D01*
X127964286Y-79792857D01*
X127964286Y-80030952D01*
X128011905Y-80126190D01*
X128059524Y-80173810D01*
X128154762Y-80221429D01*
X128345239Y-80221429D01*
X128440477Y-80173810D01*
X128488096Y-80126190D01*
X128535715Y-80030952D01*
X127583334Y-74507143D02*
X127535715Y-74554762D01*
X127392858Y-74602381D01*
X127297620Y-74602381D01*
X127154762Y-74554762D01*
X127059524Y-74459524D01*
X127011905Y-74364286D01*
X126964286Y-74173810D01*
X126964286Y-74030952D01*
X127011905Y-73840476D01*
X127059524Y-73745238D01*
X127154762Y-73650000D01*
X127297620Y-73602381D01*
X127392858Y-73602381D01*
X127535715Y-73650000D01*
X127583334Y-73697619D01*
X128154762Y-74030952D02*
X128059524Y-73983333D01*
X128011905Y-73935714D01*
X127964286Y-73840476D01*
X127964286Y-73792857D01*
X128011905Y-73697619D01*
X128059524Y-73650000D01*
X128154762Y-73602381D01*
X128345239Y-73602381D01*
X128440477Y-73650000D01*
X128488096Y-73697619D01*
X128535715Y-73792857D01*
X128535715Y-73840476D01*
X128488096Y-73935714D01*
X128440477Y-73983333D01*
X128345239Y-74030952D01*
X128154762Y-74030952D01*
X128059524Y-74078571D01*
X128011905Y-74126190D01*
X127964286Y-74221429D01*
X127964286Y-74411905D01*
X128011905Y-74507143D01*
X128059524Y-74554762D01*
X128154762Y-74602381D01*
X128345239Y-74602381D01*
X128440477Y-74554762D01*
X128488096Y-74507143D01*
X128535715Y-74411905D01*
X128535715Y-74221429D01*
X128488096Y-74126190D01*
X128440477Y-74078571D01*
X128345239Y-74030952D01*
X193632143Y-79791666D02*
X193679762Y-79839285D01*
X193727381Y-79982142D01*
X193727381Y-80077380D01*
X193679762Y-80220238D01*
X193584524Y-80315476D01*
X193489286Y-80363095D01*
X193298810Y-80410714D01*
X193155952Y-80410714D01*
X192965476Y-80363095D01*
X192870238Y-80315476D01*
X192775000Y-80220238D01*
X192727381Y-80077380D01*
X192727381Y-79982142D01*
X192775000Y-79839285D01*
X192822619Y-79791666D01*
X192727381Y-79458333D02*
X192727381Y-78791666D01*
X193727381Y-79220238D01*
X133957143Y-75166666D02*
X134004762Y-75214285D01*
X134052381Y-75357142D01*
X134052381Y-75452380D01*
X134004762Y-75595238D01*
X133909524Y-75690476D01*
X133814286Y-75738095D01*
X133623810Y-75785714D01*
X133480952Y-75785714D01*
X133290476Y-75738095D01*
X133195238Y-75690476D01*
X133100000Y-75595238D01*
X133052381Y-75452380D01*
X133052381Y-75357142D01*
X133100000Y-75214285D01*
X133147619Y-75166666D01*
X133052381Y-74309523D02*
X133052381Y-74500000D01*
X133100000Y-74595238D01*
X133147619Y-74642857D01*
X133290476Y-74738095D01*
X133480952Y-74785714D01*
X133861905Y-74785714D01*
X133957143Y-74738095D01*
X134004762Y-74690476D01*
X134052381Y-74595238D01*
X134052381Y-74404761D01*
X134004762Y-74309523D01*
X133957143Y-74261904D01*
X133861905Y-74214285D01*
X133623810Y-74214285D01*
X133528571Y-74261904D01*
X133480952Y-74309523D01*
X133433333Y-74404761D01*
X133433333Y-74595238D01*
X133480952Y-74690476D01*
X133528571Y-74738095D01*
X133623810Y-74785714D01*
X177083334Y-88507143D02*
X177035715Y-88554762D01*
X176892858Y-88602381D01*
X176797620Y-88602381D01*
X176654762Y-88554762D01*
X176559524Y-88459524D01*
X176511905Y-88364286D01*
X176464286Y-88173810D01*
X176464286Y-88030952D01*
X176511905Y-87840476D01*
X176559524Y-87745238D01*
X176654762Y-87650000D01*
X176797620Y-87602381D01*
X176892858Y-87602381D01*
X177035715Y-87650000D01*
X177083334Y-87697619D01*
X177988096Y-87602381D02*
X177511905Y-87602381D01*
X177464286Y-88078571D01*
X177511905Y-88030952D01*
X177607143Y-87983333D01*
X177845239Y-87983333D01*
X177940477Y-88030952D01*
X177988096Y-88078571D01*
X178035715Y-88173810D01*
X178035715Y-88411905D01*
X177988096Y-88507143D01*
X177940477Y-88554762D01*
X177845239Y-88602381D01*
X177607143Y-88602381D01*
X177511905Y-88554762D01*
X177464286Y-88507143D01*
X177083334Y-84257143D02*
X177035715Y-84304762D01*
X176892858Y-84352381D01*
X176797620Y-84352381D01*
X176654762Y-84304762D01*
X176559524Y-84209524D01*
X176511905Y-84114286D01*
X176464286Y-83923810D01*
X176464286Y-83780952D01*
X176511905Y-83590476D01*
X176559524Y-83495238D01*
X176654762Y-83400000D01*
X176797620Y-83352381D01*
X176892858Y-83352381D01*
X177035715Y-83400000D01*
X177083334Y-83447619D01*
X177940477Y-83685714D02*
X177940477Y-84352381D01*
X177702381Y-83304762D02*
X177464286Y-84019048D01*
X178083334Y-84019048D01*
X194757143Y-87166666D02*
X194804762Y-87214285D01*
X194852381Y-87357142D01*
X194852381Y-87452380D01*
X194804762Y-87595238D01*
X194709524Y-87690476D01*
X194614286Y-87738095D01*
X194423810Y-87785714D01*
X194280952Y-87785714D01*
X194090476Y-87738095D01*
X193995238Y-87690476D01*
X193900000Y-87595238D01*
X193852381Y-87452380D01*
X193852381Y-87357142D01*
X193900000Y-87214285D01*
X193947619Y-87166666D01*
X193852381Y-86833333D02*
X193852381Y-86214285D01*
X194233333Y-86547619D01*
X194233333Y-86404761D01*
X194280952Y-86309523D01*
X194328571Y-86261904D01*
X194423810Y-86214285D01*
X194661905Y-86214285D01*
X194757143Y-86261904D01*
X194804762Y-86309523D01*
X194852381Y-86404761D01*
X194852381Y-86690476D01*
X194804762Y-86785714D01*
X194757143Y-86833333D01*
X191757143Y-87166666D02*
X191804762Y-87214285D01*
X191852381Y-87357142D01*
X191852381Y-87452380D01*
X191804762Y-87595238D01*
X191709524Y-87690476D01*
X191614286Y-87738095D01*
X191423810Y-87785714D01*
X191280952Y-87785714D01*
X191090476Y-87738095D01*
X190995238Y-87690476D01*
X190900000Y-87595238D01*
X190852381Y-87452380D01*
X190852381Y-87357142D01*
X190900000Y-87214285D01*
X190947619Y-87166666D01*
X190947619Y-86785714D02*
X190900000Y-86738095D01*
X190852381Y-86642857D01*
X190852381Y-86404761D01*
X190900000Y-86309523D01*
X190947619Y-86261904D01*
X191042857Y-86214285D01*
X191138095Y-86214285D01*
X191280952Y-86261904D01*
X191852381Y-86833333D01*
X191852381Y-86214285D01*
X186708334Y-80132143D02*
X186660715Y-80179762D01*
X186517858Y-80227381D01*
X186422620Y-80227381D01*
X186279762Y-80179762D01*
X186184524Y-80084524D01*
X186136905Y-79989286D01*
X186089286Y-79798810D01*
X186089286Y-79655952D01*
X186136905Y-79465476D01*
X186184524Y-79370238D01*
X186279762Y-79275000D01*
X186422620Y-79227381D01*
X186517858Y-79227381D01*
X186660715Y-79275000D01*
X186708334Y-79322619D01*
X187660715Y-80227381D02*
X187089286Y-80227381D01*
X187375000Y-80227381D02*
X187375000Y-79227381D01*
X187279762Y-79370238D01*
X187184524Y-79465476D01*
X187089286Y-79513095D01*
X127023809Y-79226190D02*
X127023809Y-79702381D01*
X126690476Y-78702381D02*
X127023809Y-79226190D01*
X127357143Y-78702381D01*
X128214286Y-79702381D02*
X127642857Y-79702381D01*
X127928571Y-79702381D02*
X127928571Y-78702381D01*
X127833333Y-78845238D01*
X127738095Y-78940476D01*
X127642857Y-78988095D01*
X175864286Y-66042857D02*
X175864286Y-64842857D01*
X176321429Y-64842857D01*
X176435715Y-64900000D01*
X176492858Y-64957143D01*
X176550001Y-65071429D01*
X176550001Y-65242857D01*
X176492858Y-65357143D01*
X176435715Y-65414286D01*
X176321429Y-65471429D01*
X175864286Y-65471429D01*
X177578572Y-65242857D02*
X177578572Y-66042857D01*
X177292858Y-64785714D02*
X177007143Y-65642857D01*
X177750001Y-65642857D01*
X136457143Y-59892857D02*
X136504762Y-59940476D01*
X136552381Y-60083333D01*
X136552381Y-60178571D01*
X136504762Y-60321429D01*
X136409524Y-60416667D01*
X136314286Y-60464286D01*
X136123810Y-60511905D01*
X135980952Y-60511905D01*
X135790476Y-60464286D01*
X135695238Y-60416667D01*
X135600000Y-60321429D01*
X135552381Y-60178571D01*
X135552381Y-60083333D01*
X135600000Y-59940476D01*
X135647619Y-59892857D01*
X136552381Y-58940476D02*
X136552381Y-59511905D01*
X136552381Y-59226191D02*
X135552381Y-59226191D01*
X135695238Y-59321429D01*
X135790476Y-59416667D01*
X135838095Y-59511905D01*
X135552381Y-58083333D02*
X135552381Y-58273810D01*
X135600000Y-58369048D01*
X135647619Y-58416667D01*
X135790476Y-58511905D01*
X135980952Y-58559524D01*
X136361905Y-58559524D01*
X136457143Y-58511905D01*
X136504762Y-58464286D01*
X136552381Y-58369048D01*
X136552381Y-58178571D01*
X136504762Y-58083333D01*
X136457143Y-58035714D01*
X136361905Y-57988095D01*
X136123810Y-57988095D01*
X136028571Y-58035714D01*
X135980952Y-58083333D01*
X135933333Y-58178571D01*
X135933333Y-58369048D01*
X135980952Y-58464286D01*
X136028571Y-58511905D01*
X136123810Y-58559524D01*
X138957143Y-59892857D02*
X139004762Y-59940476D01*
X139052381Y-60083333D01*
X139052381Y-60178571D01*
X139004762Y-60321429D01*
X138909524Y-60416667D01*
X138814286Y-60464286D01*
X138623810Y-60511905D01*
X138480952Y-60511905D01*
X138290476Y-60464286D01*
X138195238Y-60416667D01*
X138100000Y-60321429D01*
X138052381Y-60178571D01*
X138052381Y-60083333D01*
X138100000Y-59940476D01*
X138147619Y-59892857D01*
X139052381Y-58940476D02*
X139052381Y-59511905D01*
X139052381Y-59226191D02*
X138052381Y-59226191D01*
X138195238Y-59321429D01*
X138290476Y-59416667D01*
X138338095Y-59511905D01*
X138052381Y-58607143D02*
X138052381Y-57940476D01*
X139052381Y-58369048D01*
X137722000Y-72940476D02*
X137674381Y-73035714D01*
X137674381Y-73178571D01*
X137722000Y-73321429D01*
X137817238Y-73416667D01*
X137912476Y-73464286D01*
X138102952Y-73511905D01*
X138245810Y-73511905D01*
X138436286Y-73464286D01*
X138531524Y-73416667D01*
X138626762Y-73321429D01*
X138674381Y-73178571D01*
X138674381Y-73083333D01*
X138626762Y-72940476D01*
X138579143Y-72892857D01*
X138245810Y-72892857D01*
X138245810Y-73083333D01*
X138626762Y-72511905D02*
X138674381Y-72369048D01*
X138674381Y-72130952D01*
X138626762Y-72035714D01*
X138579143Y-71988095D01*
X138483905Y-71940476D01*
X138388667Y-71940476D01*
X138293429Y-71988095D01*
X138245810Y-72035714D01*
X138198190Y-72130952D01*
X138150571Y-72321429D01*
X138102952Y-72416667D01*
X138055333Y-72464286D01*
X137960095Y-72511905D01*
X137864857Y-72511905D01*
X137769619Y-72464286D01*
X137722000Y-72416667D01*
X137674381Y-72321429D01*
X137674381Y-72083333D01*
X137722000Y-71940476D01*
X137769619Y-71559524D02*
X137722000Y-71511905D01*
X137674381Y-71416667D01*
X137674381Y-71178571D01*
X137722000Y-71083333D01*
X137769619Y-71035714D01*
X137864857Y-70988095D01*
X137960095Y-70988095D01*
X138102952Y-71035714D01*
X138674381Y-71607143D01*
X138674381Y-70988095D01*
X115107143Y-62102381D02*
X114773809Y-61626190D01*
X114535714Y-62102381D02*
X114535714Y-61102381D01*
X114916667Y-61102381D01*
X115011905Y-61150000D01*
X115059524Y-61197619D01*
X115107143Y-61292857D01*
X115107143Y-61435714D01*
X115059524Y-61530952D01*
X115011905Y-61578571D01*
X114916667Y-61626190D01*
X114535714Y-61626190D01*
X116059524Y-62102381D02*
X115488095Y-62102381D01*
X115773809Y-62102381D02*
X115773809Y-61102381D01*
X115678571Y-61245238D01*
X115583333Y-61340476D01*
X115488095Y-61388095D01*
X117011905Y-62102381D02*
X116440476Y-62102381D01*
X116726190Y-62102381D02*
X116726190Y-61102381D01*
X116630952Y-61245238D01*
X116535714Y-61340476D01*
X116440476Y-61388095D01*
X125038095Y-58640381D02*
X125038095Y-59449905D01*
X125085714Y-59545143D01*
X125133333Y-59592762D01*
X125228571Y-59640381D01*
X125419048Y-59640381D01*
X125514286Y-59592762D01*
X125561905Y-59545143D01*
X125609524Y-59449905D01*
X125609524Y-58640381D01*
X126514286Y-58640381D02*
X126323809Y-58640381D01*
X126228571Y-58688000D01*
X126180952Y-58735619D01*
X126085714Y-58878476D01*
X126038095Y-59068952D01*
X126038095Y-59449905D01*
X126085714Y-59545143D01*
X126133333Y-59592762D01*
X126228571Y-59640381D01*
X126419048Y-59640381D01*
X126514286Y-59592762D01*
X126561905Y-59545143D01*
X126609524Y-59449905D01*
X126609524Y-59211810D01*
X126561905Y-59116571D01*
X126514286Y-59068952D01*
X126419048Y-59021333D01*
X126228571Y-59021333D01*
X126133333Y-59068952D01*
X126085714Y-59116571D01*
X126038095Y-59211810D01*
X157738095Y-90502381D02*
X157738095Y-91311905D01*
X157785714Y-91407143D01*
X157833333Y-91454762D01*
X157928571Y-91502381D01*
X158119048Y-91502381D01*
X158214286Y-91454762D01*
X158261905Y-91407143D01*
X158309524Y-91311905D01*
X158309524Y-90502381D01*
X159214286Y-90835714D02*
X159214286Y-91502381D01*
X158976190Y-90454762D02*
X158738095Y-91169048D01*
X159357143Y-91169048D01*
M02*
