M48
;DRILL file {KiCad (2015-08-16 BZR 6096, Git c63f6aa)-product} date Sun 16 Aug 2015 06:36:44 PM PDT
;FORMAT={-:-/ absolute / inch / decimal}
FMAT,2
INCH,TZ
T1C0.020
T2C0.025
T3C0.040
T4C0.040
T5C0.051
%
G90
G05
M72
T1
X4.8278Y-2.1252
X4.8778Y-2.1252
X4.9278Y-2.1252
X4.9778Y-2.1252
X5.0278Y-2.1252
X5.0778Y-2.1252
T2
X5.7494Y-2.8291
X5.7494Y-2.9291
X5.8494Y-2.8291
X5.8494Y-2.9291
X6.4567Y-2.2244
X7.4045Y-3.0148
X7.4045Y-3.0581
X7.4478Y-3.0148
X7.4478Y-3.0581
T3
X4.0945Y-2.5591
X4.0945Y-2.6591
X4.0945Y-2.7591
X4.0945Y-2.8591
X4.1945Y-2.5591
X4.1945Y-2.6591
X4.1945Y-2.7591
X4.1945Y-2.8591
X5.7283Y-2.2819
X5.7283Y-2.3819
X5.8283Y-2.2819
X5.8283Y-2.3819
X5.9283Y-2.2819
X5.9283Y-2.3819
X6.0283Y-2.2819
X6.0283Y-2.3819
T4
X6.6634Y-2.5
X6.7815Y-2.5
X6.8996Y-2.5
X7.0177Y-2.5
X7.1358Y-2.5
X7.2539Y-2.5
T5
X4.4291Y-4.3898
X4.6457Y-4.1929
X4.8425Y-3.9961
X4.8425Y-4.1929
X5.2559Y-4.3898
X5.4724Y-4.1929
X5.6693Y-3.9961
X5.6693Y-4.1929
X6.122Y-4.3898
X6.3386Y-4.1929
X6.5354Y-3.9961
X6.5354Y-4.1929
X6.9488Y-4.3898
X7.1654Y-4.1929
X7.3622Y-3.9961
X7.3622Y-4.1929
T0
M30
