G04 #@! TF.FileFunction,Copper,L2,Bot,Signal*
%FSLAX46Y46*%
G04 Gerber Fmt 4.6, Leading zero omitted, Abs format (unit mm)*
G04 Created by KiCad (PCBNEW (2015-08-16 BZR 6096, Git c63f6aa)-product) date Sun 16 Aug 2015 06:36:37 PM PDT*
%MOMM*%
G01*
G04 APERTURE LIST*
%ADD10C,0.100000*%
%ADD11C,6.500000*%
%ADD12C,1.143000*%
%ADD13R,1.727200X1.727200*%
%ADD14O,1.727200X1.727200*%
%ADD15C,2.500000*%
%ADD16C,1.000000*%
%ADD17C,1.800000*%
%ADD18R,1.198880X1.198880*%
%ADD19R,1.700000X4.000000*%
%ADD20C,0.380000*%
G04 APERTURE END LIST*
D10*
D11*
X105000000Y-59000000D03*
X195000000Y-59000000D03*
X105000000Y-109000000D03*
X195000000Y-109000000D03*
D12*
X164000000Y-56500000D03*
X146034000Y-74398000D03*
X148574000Y-74398000D03*
X146034000Y-71858000D03*
X148574000Y-71858000D03*
D13*
X145500000Y-60500000D03*
D14*
X145500000Y-57960000D03*
X148040000Y-60500000D03*
X148040000Y-57960000D03*
X150580000Y-60500000D03*
X150580000Y-57960000D03*
X153120000Y-60500000D03*
X153120000Y-57960000D03*
D13*
X104000000Y-65000000D03*
D14*
X106540000Y-65000000D03*
X104000000Y-67540000D03*
X106540000Y-67540000D03*
X104000000Y-70080000D03*
X106540000Y-70080000D03*
X104000000Y-72620000D03*
X106540000Y-72620000D03*
D15*
X123000000Y-101500000D03*
X112500000Y-111500000D03*
X123000000Y-106500000D03*
X118000000Y-106500000D03*
X144000000Y-101500000D03*
X133500000Y-111500000D03*
X144000000Y-106500000D03*
X139000000Y-106500000D03*
X166000000Y-101500000D03*
X155500000Y-111500000D03*
X166000000Y-106500000D03*
X161000000Y-106500000D03*
X187000000Y-101500000D03*
X176500000Y-111500000D03*
X187000000Y-106500000D03*
X182000000Y-106500000D03*
D16*
X188075000Y-77675000D03*
X188075000Y-76575000D03*
X189175000Y-76575000D03*
X189175000Y-77675000D03*
D17*
X184250000Y-63500000D03*
X181250000Y-63500000D03*
X178250000Y-63500000D03*
X175250000Y-63500000D03*
X172250000Y-63500000D03*
X169250000Y-63500000D03*
D18*
X136549020Y-63500000D03*
X134450980Y-63500000D03*
D16*
X128975000Y-53981000D03*
X127705000Y-53981000D03*
X126435000Y-53981000D03*
X125165000Y-53981000D03*
X123895000Y-53981000D03*
X122625000Y-53981000D03*
D19*
X180580000Y-96800000D03*
X178040000Y-96800000D03*
X175500000Y-96800000D03*
X172960000Y-96800000D03*
X170420000Y-96800000D03*
X170420000Y-69200000D03*
X172960000Y-69200000D03*
X175500000Y-69200000D03*
X178040000Y-69200000D03*
X180580000Y-69200000D03*
X163580000Y-96800000D03*
X161040000Y-96800000D03*
X158500000Y-96800000D03*
X155960000Y-96800000D03*
X153420000Y-96800000D03*
X153420000Y-69200000D03*
X155960000Y-69200000D03*
X158500000Y-69200000D03*
X161040000Y-69200000D03*
X163580000Y-69200000D03*
X146580000Y-96800000D03*
X144040000Y-96800000D03*
X141500000Y-96800000D03*
X138960000Y-96800000D03*
X136420000Y-96800000D03*
X136420000Y-69200000D03*
X138960000Y-69200000D03*
X141500000Y-69200000D03*
X144040000Y-69200000D03*
X146580000Y-69200000D03*
X129580000Y-96800000D03*
X127040000Y-96800000D03*
X124500000Y-96800000D03*
X121960000Y-96800000D03*
X119420000Y-96800000D03*
X119420000Y-69200000D03*
X121960000Y-69200000D03*
X124500000Y-69200000D03*
X127040000Y-69200000D03*
X129580000Y-69200000D03*
D20*
G36*
X107392849Y-55191934D02*
X107409546Y-55195942D01*
X107425409Y-55202513D01*
X107440049Y-55211484D01*
X107458797Y-55227497D01*
X109271178Y-57039878D01*
X109290699Y-57063664D01*
X109300778Y-57082522D01*
X109306985Y-57102982D01*
X109310000Y-57133595D01*
X109310000Y-59875736D01*
X109310915Y-59894358D01*
X109316679Y-59952885D01*
X109323946Y-59989418D01*
X109341018Y-60045696D01*
X109355271Y-60080106D01*
X109382994Y-60131972D01*
X109403687Y-60162942D01*
X109440996Y-60208403D01*
X109453518Y-60222218D01*
X111277782Y-62046482D01*
X111288736Y-62056608D01*
X111324532Y-62087181D01*
X111348654Y-62104707D01*
X111388793Y-62129304D01*
X111415357Y-62142839D01*
X111458849Y-62160854D01*
X111487203Y-62170067D01*
X111532978Y-62181057D01*
X111562429Y-62185721D01*
X111609359Y-62189414D01*
X111624264Y-62190000D01*
X137875736Y-62190000D01*
X137890641Y-62189414D01*
X137937571Y-62185721D01*
X137967022Y-62181057D01*
X138012797Y-62170067D01*
X138041151Y-62160854D01*
X138084643Y-62142839D01*
X138111207Y-62129304D01*
X138151346Y-62104707D01*
X138175468Y-62087181D01*
X138211264Y-62056608D01*
X138222218Y-62046482D01*
X140046482Y-60222218D01*
X140059004Y-60208403D01*
X140096313Y-60162942D01*
X140117006Y-60131972D01*
X140144729Y-60080106D01*
X140158982Y-60045696D01*
X140176054Y-59989418D01*
X140183321Y-59952885D01*
X140189085Y-59894358D01*
X140190000Y-59875736D01*
X140190000Y-59636400D01*
X144083739Y-59636400D01*
X144083739Y-61363600D01*
X144090723Y-61451185D01*
X144136728Y-61599740D01*
X144222297Y-61729596D01*
X144340656Y-61830472D01*
X144482432Y-61894381D01*
X144636400Y-61916261D01*
X146363600Y-61916261D01*
X146451185Y-61909277D01*
X146599740Y-61863272D01*
X146729596Y-61777703D01*
X146830472Y-61659344D01*
X146894381Y-61517568D01*
X146916261Y-61363600D01*
X146916261Y-61354930D01*
X147036951Y-61502911D01*
X147249525Y-61678768D01*
X147492208Y-61809986D01*
X147755756Y-61891568D01*
X148030131Y-61920406D01*
X148304882Y-61895401D01*
X148569544Y-61817507D01*
X148814035Y-61689690D01*
X149029044Y-61516819D01*
X149206380Y-61305477D01*
X149310541Y-61116009D01*
X149402583Y-61289114D01*
X149576951Y-61502911D01*
X149789525Y-61678768D01*
X150032208Y-61809986D01*
X150295756Y-61891568D01*
X150570131Y-61920406D01*
X150844882Y-61895401D01*
X151109544Y-61817507D01*
X151354035Y-61689690D01*
X151569044Y-61516819D01*
X151746380Y-61305477D01*
X151879290Y-61063716D01*
X151885297Y-61044779D01*
X151903117Y-61092826D01*
X152042154Y-61318837D01*
X152222612Y-61513381D01*
X152437556Y-61668981D01*
X152678726Y-61779658D01*
X152775968Y-61809150D01*
X152985000Y-61723676D01*
X152985000Y-60635000D01*
X153255000Y-60635000D01*
X153255000Y-61723676D01*
X153464032Y-61809150D01*
X153561274Y-61779658D01*
X153802444Y-61668981D01*
X154017388Y-61513381D01*
X154197846Y-61318837D01*
X154336883Y-61092826D01*
X154374256Y-60992057D01*
X159651620Y-60992057D01*
X159652349Y-60999771D01*
X159662210Y-61096855D01*
X159672155Y-61146177D01*
X159681405Y-61195608D01*
X159683619Y-61203034D01*
X159712149Y-61296353D01*
X159731470Y-61342769D01*
X159750162Y-61389501D01*
X159753776Y-61396356D01*
X159799889Y-61482356D01*
X159827870Y-61524152D01*
X159855268Y-61566342D01*
X159860144Y-61572364D01*
X159922083Y-61647770D01*
X159938545Y-61664231D01*
X159953066Y-61682422D01*
X159958507Y-61687939D01*
X160312061Y-62041493D01*
X160312129Y-62041549D01*
X160313413Y-62042842D01*
X160315890Y-62045302D01*
X160334685Y-62060632D01*
X160351719Y-62077906D01*
X160357707Y-62082824D01*
X160433544Y-62144236D01*
X160475527Y-62171919D01*
X160517145Y-62200202D01*
X160523974Y-62203863D01*
X160610294Y-62249374D01*
X160656881Y-62268386D01*
X160703171Y-62288035D01*
X160710582Y-62290301D01*
X160804098Y-62318179D01*
X160853474Y-62327776D01*
X160902710Y-62338063D01*
X160910419Y-62338846D01*
X161007569Y-62348030D01*
X161057883Y-62347854D01*
X161108178Y-62348381D01*
X161115881Y-62347652D01*
X161115886Y-62347652D01*
X161115890Y-62347651D01*
X161115892Y-62347651D01*
X161212977Y-62337789D01*
X161262263Y-62327851D01*
X161311725Y-62318595D01*
X161319151Y-62316381D01*
X161412470Y-62287851D01*
X161458886Y-62268530D01*
X161505618Y-62249838D01*
X161512473Y-62246224D01*
X161598473Y-62200111D01*
X161640269Y-62172130D01*
X161682459Y-62144732D01*
X161688481Y-62139856D01*
X161763887Y-62077917D01*
X161780348Y-62061455D01*
X161798539Y-62046934D01*
X161804056Y-62041493D01*
X163041493Y-60804056D01*
X163041558Y-60803977D01*
X163042841Y-60802703D01*
X163045301Y-60800226D01*
X163060631Y-60781431D01*
X163077905Y-60764397D01*
X163082823Y-60758409D01*
X163144235Y-60682572D01*
X163171918Y-60640589D01*
X163200201Y-60598971D01*
X163203862Y-60592142D01*
X163249373Y-60505822D01*
X163268382Y-60459243D01*
X163288032Y-60412950D01*
X163290298Y-60405540D01*
X163318177Y-60312024D01*
X163327772Y-60262660D01*
X163338063Y-60213401D01*
X163338846Y-60205691D01*
X163348029Y-60108541D01*
X163347853Y-60058270D01*
X163348380Y-60007944D01*
X163347651Y-60000229D01*
X163337790Y-59903146D01*
X163327846Y-59853830D01*
X163318595Y-59804393D01*
X163316381Y-59796966D01*
X163287851Y-59703647D01*
X163268518Y-59657203D01*
X163249838Y-59610499D01*
X163246224Y-59603645D01*
X163200111Y-59517644D01*
X163172130Y-59475848D01*
X163144732Y-59433658D01*
X163139855Y-59427636D01*
X163078032Y-59352370D01*
X169347305Y-59352370D01*
X169419879Y-59747791D01*
X169567874Y-60121585D01*
X169785655Y-60459514D01*
X170064926Y-60748707D01*
X170395049Y-60978149D01*
X170763450Y-61139099D01*
X171156097Y-61225429D01*
X171558035Y-61233848D01*
X171953953Y-61164037D01*
X172328771Y-61018654D01*
X172668213Y-60803238D01*
X172959348Y-60525994D01*
X173191089Y-60197480D01*
X173354608Y-59830211D01*
X173443676Y-59438176D01*
X173444874Y-59352370D01*
X180047305Y-59352370D01*
X180119879Y-59747791D01*
X180267874Y-60121585D01*
X180485655Y-60459514D01*
X180764926Y-60748707D01*
X181095049Y-60978149D01*
X181463450Y-61139099D01*
X181856097Y-61225429D01*
X182258035Y-61233848D01*
X182653953Y-61164037D01*
X183028771Y-61018654D01*
X183368213Y-60803238D01*
X183659348Y-60525994D01*
X183891089Y-60197480D01*
X184054608Y-59830211D01*
X184143676Y-59438176D01*
X184145332Y-59319514D01*
X191195005Y-59319514D01*
X191329531Y-60052490D01*
X191603864Y-60745377D01*
X192007555Y-61371783D01*
X192525227Y-61907848D01*
X193137163Y-62333154D01*
X193820054Y-62631502D01*
X194547888Y-62791527D01*
X195292943Y-62807133D01*
X196026840Y-62677727D01*
X196721625Y-62408238D01*
X197350834Y-62008930D01*
X197890500Y-61495013D01*
X198320068Y-60886061D01*
X198623176Y-60205270D01*
X198788278Y-59478571D01*
X198800163Y-58627391D01*
X198655416Y-57896365D01*
X198371436Y-57207376D01*
X197959038Y-56586668D01*
X197433931Y-56057882D01*
X196816117Y-55641161D01*
X196129128Y-55352378D01*
X195399130Y-55202531D01*
X194653930Y-55197328D01*
X193921911Y-55336968D01*
X193230956Y-55616132D01*
X192607384Y-56024186D01*
X192074946Y-56545588D01*
X191653922Y-57160478D01*
X191360349Y-57845435D01*
X191205409Y-58574368D01*
X191195005Y-59319514D01*
X184145332Y-59319514D01*
X184150088Y-58978987D01*
X184072001Y-58584618D01*
X183918801Y-58212927D01*
X183696323Y-57878071D01*
X183413042Y-57592805D01*
X183079747Y-57367995D01*
X182709135Y-57212204D01*
X182315320Y-57131365D01*
X181913304Y-57128559D01*
X181518399Y-57203891D01*
X181145648Y-57354492D01*
X180809247Y-57574627D01*
X180522010Y-57855910D01*
X180294879Y-58187626D01*
X180136504Y-58557143D01*
X180052919Y-58950383D01*
X180047305Y-59352370D01*
X173444874Y-59352370D01*
X173450088Y-58978987D01*
X173372001Y-58584618D01*
X173218801Y-58212927D01*
X172996323Y-57878071D01*
X172713042Y-57592805D01*
X172379747Y-57367995D01*
X172009135Y-57212204D01*
X171615320Y-57131365D01*
X171213304Y-57128559D01*
X170818399Y-57203891D01*
X170445648Y-57354492D01*
X170109247Y-57574627D01*
X169822010Y-57855910D01*
X169594879Y-58187626D01*
X169436504Y-58557143D01*
X169352919Y-58950383D01*
X169347305Y-59352370D01*
X163078032Y-59352370D01*
X163077917Y-59352230D01*
X163061459Y-59335773D01*
X163046935Y-59317578D01*
X163041493Y-59312061D01*
X162687939Y-58958507D01*
X162687871Y-58958451D01*
X162686587Y-58957158D01*
X162684110Y-58954698D01*
X162665315Y-58939368D01*
X162648281Y-58922094D01*
X162642293Y-58917176D01*
X162566457Y-58855765D01*
X162524489Y-58828092D01*
X162482856Y-58799799D01*
X162476026Y-58796137D01*
X162389706Y-58750626D01*
X162343160Y-58731631D01*
X162296829Y-58711965D01*
X162289418Y-58709699D01*
X162195902Y-58681821D01*
X162146526Y-58672224D01*
X162097290Y-58661937D01*
X162089580Y-58661154D01*
X161992431Y-58651970D01*
X161942118Y-58652146D01*
X161891823Y-58651619D01*
X161884108Y-58652348D01*
X161787024Y-58662211D01*
X161737744Y-58672148D01*
X161688276Y-58681405D01*
X161680849Y-58683619D01*
X161587530Y-58712149D01*
X161541086Y-58731482D01*
X161494382Y-58750162D01*
X161487535Y-58753772D01*
X161487531Y-58753774D01*
X161487528Y-58753776D01*
X161401527Y-58799889D01*
X161359731Y-58827870D01*
X161317541Y-58855268D01*
X161311519Y-58860145D01*
X161236113Y-58922083D01*
X161219652Y-58938545D01*
X161201461Y-58953066D01*
X161195944Y-58958507D01*
X159958507Y-60195944D01*
X159958442Y-60196023D01*
X159957159Y-60197297D01*
X159954699Y-60199774D01*
X159939369Y-60218569D01*
X159922095Y-60235603D01*
X159917177Y-60241591D01*
X159855766Y-60317427D01*
X159828093Y-60359395D01*
X159799800Y-60401028D01*
X159796138Y-60407858D01*
X159750627Y-60494178D01*
X159731630Y-60540729D01*
X159711968Y-60587050D01*
X159709702Y-60594461D01*
X159681823Y-60687976D01*
X159672226Y-60737348D01*
X159661937Y-60786600D01*
X159661154Y-60794309D01*
X159651971Y-60891459D01*
X159652147Y-60941731D01*
X159651620Y-60992057D01*
X154374256Y-60992057D01*
X154429156Y-60844033D01*
X154344357Y-60635000D01*
X153255000Y-60635000D01*
X152985000Y-60635000D01*
X152965000Y-60635000D01*
X152965000Y-60365000D01*
X152985000Y-60365000D01*
X152985000Y-59276324D01*
X152871712Y-59230000D01*
X152985000Y-59183676D01*
X152985000Y-58095000D01*
X153255000Y-58095000D01*
X153255000Y-59183676D01*
X153368288Y-59230000D01*
X153255000Y-59276324D01*
X153255000Y-60365000D01*
X154344357Y-60365000D01*
X154429156Y-60155967D01*
X154336883Y-59907174D01*
X154197846Y-59681163D01*
X154017388Y-59486619D01*
X153802444Y-59331019D01*
X153582319Y-59230000D01*
X153802444Y-59128981D01*
X154017388Y-58973381D01*
X154197846Y-58778837D01*
X154336883Y-58552826D01*
X154429156Y-58304033D01*
X154344357Y-58095000D01*
X153255000Y-58095000D01*
X152985000Y-58095000D01*
X152965000Y-58095000D01*
X152965000Y-57992057D01*
X156651620Y-57992057D01*
X156652349Y-57999771D01*
X156662210Y-58096855D01*
X156672155Y-58146177D01*
X156681405Y-58195608D01*
X156683619Y-58203034D01*
X156712149Y-58296353D01*
X156731470Y-58342769D01*
X156750162Y-58389501D01*
X156753776Y-58396356D01*
X156799889Y-58482356D01*
X156827870Y-58524152D01*
X156855268Y-58566342D01*
X156860144Y-58572364D01*
X156922083Y-58647770D01*
X156938545Y-58664231D01*
X156953066Y-58682422D01*
X156958507Y-58687939D01*
X157312061Y-59041493D01*
X157312129Y-59041549D01*
X157313413Y-59042842D01*
X157315890Y-59045302D01*
X157334685Y-59060632D01*
X157351719Y-59077906D01*
X157357707Y-59082824D01*
X157433544Y-59144236D01*
X157475527Y-59171919D01*
X157517145Y-59200202D01*
X157523974Y-59203863D01*
X157610294Y-59249374D01*
X157656881Y-59268386D01*
X157703171Y-59288035D01*
X157710582Y-59290301D01*
X157804098Y-59318179D01*
X157853474Y-59327776D01*
X157902710Y-59338063D01*
X157910419Y-59338846D01*
X158007569Y-59348030D01*
X158057883Y-59347854D01*
X158108178Y-59348381D01*
X158115881Y-59347652D01*
X158115886Y-59347652D01*
X158115890Y-59347651D01*
X158115892Y-59347651D01*
X158212977Y-59337789D01*
X158262263Y-59327851D01*
X158311725Y-59318595D01*
X158319151Y-59316381D01*
X158412470Y-59287851D01*
X158458886Y-59268530D01*
X158505618Y-59249838D01*
X158512473Y-59246224D01*
X158598473Y-59200111D01*
X158640269Y-59172130D01*
X158682459Y-59144732D01*
X158688481Y-59139856D01*
X158763887Y-59077917D01*
X158780348Y-59061455D01*
X158798539Y-59046934D01*
X158804056Y-59041493D01*
X160041493Y-57804056D01*
X160041558Y-57803977D01*
X160042841Y-57802703D01*
X160045301Y-57800226D01*
X160060631Y-57781431D01*
X160077905Y-57764397D01*
X160082823Y-57758409D01*
X160144235Y-57682572D01*
X160171918Y-57640589D01*
X160200201Y-57598971D01*
X160203862Y-57592142D01*
X160249373Y-57505822D01*
X160268382Y-57459243D01*
X160288032Y-57412950D01*
X160290298Y-57405540D01*
X160318177Y-57312024D01*
X160327772Y-57262660D01*
X160329120Y-57256204D01*
X163434715Y-57256204D01*
X163487307Y-57435338D01*
X163679633Y-57517387D01*
X163884271Y-57560338D01*
X164093357Y-57562542D01*
X164298855Y-57523913D01*
X164492868Y-57445934D01*
X164512693Y-57435338D01*
X164565285Y-57256204D01*
X164000000Y-56690919D01*
X163434715Y-57256204D01*
X160329120Y-57256204D01*
X160338063Y-57213401D01*
X160338846Y-57205691D01*
X160348029Y-57108541D01*
X160347853Y-57058270D01*
X160348380Y-57007944D01*
X160347651Y-57000229D01*
X160337790Y-56903146D01*
X160327846Y-56853830D01*
X160318595Y-56804393D01*
X160316381Y-56796966D01*
X160287851Y-56703647D01*
X160268518Y-56657203D01*
X160249838Y-56610499D01*
X160246224Y-56603645D01*
X160240708Y-56593357D01*
X162937458Y-56593357D01*
X162976087Y-56798855D01*
X163054066Y-56992868D01*
X163064662Y-57012693D01*
X163243796Y-57065285D01*
X163809081Y-56500000D01*
X164190919Y-56500000D01*
X164756204Y-57065285D01*
X164935338Y-57012693D01*
X165017387Y-56820367D01*
X165060338Y-56615729D01*
X165062542Y-56406643D01*
X165023913Y-56201145D01*
X164945934Y-56007132D01*
X164935338Y-55987307D01*
X164756204Y-55934715D01*
X164190919Y-56500000D01*
X163809081Y-56500000D01*
X163243796Y-55934715D01*
X163064662Y-55987307D01*
X162982613Y-56179633D01*
X162939662Y-56384271D01*
X162937458Y-56593357D01*
X160240708Y-56593357D01*
X160200111Y-56517644D01*
X160172130Y-56475848D01*
X160144732Y-56433658D01*
X160139855Y-56427636D01*
X160077917Y-56352230D01*
X160061459Y-56335773D01*
X160046935Y-56317578D01*
X160041493Y-56312061D01*
X159687939Y-55958507D01*
X159687871Y-55958451D01*
X159686587Y-55957158D01*
X159684110Y-55954698D01*
X159665315Y-55939368D01*
X159648281Y-55922094D01*
X159642293Y-55917176D01*
X159566457Y-55855765D01*
X159524489Y-55828092D01*
X159482856Y-55799799D01*
X159476026Y-55796137D01*
X159389706Y-55750626D01*
X159372970Y-55743796D01*
X163434715Y-55743796D01*
X164000000Y-56309081D01*
X164565285Y-55743796D01*
X164512693Y-55564662D01*
X164320367Y-55482613D01*
X164115729Y-55439662D01*
X163906643Y-55437458D01*
X163701145Y-55476087D01*
X163507132Y-55554066D01*
X163487307Y-55564662D01*
X163434715Y-55743796D01*
X159372970Y-55743796D01*
X159343160Y-55731631D01*
X159296829Y-55711965D01*
X159289418Y-55709699D01*
X159195902Y-55681821D01*
X159146526Y-55672224D01*
X159097290Y-55661937D01*
X159089580Y-55661154D01*
X158992431Y-55651970D01*
X158942118Y-55652146D01*
X158891823Y-55651619D01*
X158884108Y-55652348D01*
X158787024Y-55662211D01*
X158737744Y-55672148D01*
X158688276Y-55681405D01*
X158680849Y-55683619D01*
X158587530Y-55712149D01*
X158541086Y-55731482D01*
X158494382Y-55750162D01*
X158487535Y-55753772D01*
X158487531Y-55753774D01*
X158487528Y-55753776D01*
X158401527Y-55799889D01*
X158359731Y-55827870D01*
X158317541Y-55855268D01*
X158311519Y-55860145D01*
X158236113Y-55922083D01*
X158219652Y-55938545D01*
X158201461Y-55953066D01*
X158195944Y-55958507D01*
X156958507Y-57195944D01*
X156958442Y-57196023D01*
X156957159Y-57197297D01*
X156954699Y-57199774D01*
X156939369Y-57218569D01*
X156922095Y-57235603D01*
X156917177Y-57241591D01*
X156855766Y-57317427D01*
X156828093Y-57359395D01*
X156799800Y-57401028D01*
X156796138Y-57407858D01*
X156750627Y-57494178D01*
X156731630Y-57540729D01*
X156711968Y-57587050D01*
X156709702Y-57594461D01*
X156681823Y-57687976D01*
X156672226Y-57737348D01*
X156661937Y-57786600D01*
X156661154Y-57794309D01*
X156651971Y-57891459D01*
X156652147Y-57941731D01*
X156651620Y-57992057D01*
X152965000Y-57992057D01*
X152965000Y-57825000D01*
X152985000Y-57825000D01*
X152985000Y-56736324D01*
X153255000Y-56736324D01*
X153255000Y-57825000D01*
X154344357Y-57825000D01*
X154429156Y-57615967D01*
X154336883Y-57367174D01*
X154197846Y-57141163D01*
X154017388Y-56946619D01*
X153802444Y-56791019D01*
X153561274Y-56680342D01*
X153464032Y-56650850D01*
X153255000Y-56736324D01*
X152985000Y-56736324D01*
X152775968Y-56650850D01*
X152678726Y-56680342D01*
X152437556Y-56791019D01*
X152222612Y-56946619D01*
X152042154Y-57141163D01*
X151903117Y-57367174D01*
X151886134Y-57412966D01*
X151757417Y-57170886D01*
X151583049Y-56957089D01*
X151370475Y-56781232D01*
X151127792Y-56650014D01*
X150864244Y-56568432D01*
X150589869Y-56539594D01*
X150315118Y-56564599D01*
X150050456Y-56642493D01*
X149805965Y-56770310D01*
X149590956Y-56943181D01*
X149413620Y-57154523D01*
X149309459Y-57343991D01*
X149217417Y-57170886D01*
X149043049Y-56957089D01*
X148830475Y-56781232D01*
X148587792Y-56650014D01*
X148324244Y-56568432D01*
X148049869Y-56539594D01*
X147775118Y-56564599D01*
X147510456Y-56642493D01*
X147265965Y-56770310D01*
X147050956Y-56943181D01*
X146873620Y-57154523D01*
X146769459Y-57343991D01*
X146677417Y-57170886D01*
X146503049Y-56957089D01*
X146290475Y-56781232D01*
X146047792Y-56650014D01*
X145784244Y-56568432D01*
X145509869Y-56539594D01*
X145235118Y-56564599D01*
X144970456Y-56642493D01*
X144725965Y-56770310D01*
X144510956Y-56943181D01*
X144333620Y-57154523D01*
X144200710Y-57396284D01*
X144117291Y-57659256D01*
X144086538Y-57933423D01*
X144086400Y-57953160D01*
X144086400Y-57966840D01*
X144113322Y-58241410D01*
X144193062Y-58505521D01*
X144322583Y-58749114D01*
X144496951Y-58962911D01*
X144643007Y-59083739D01*
X144636400Y-59083739D01*
X144548815Y-59090723D01*
X144400260Y-59136728D01*
X144270404Y-59222297D01*
X144169528Y-59340656D01*
X144105619Y-59482432D01*
X144083739Y-59636400D01*
X140190000Y-59636400D01*
X140190000Y-57133595D01*
X140193015Y-57102982D01*
X140199222Y-57082522D01*
X140209301Y-57063664D01*
X140228822Y-57039878D01*
X142041203Y-55227497D01*
X142059951Y-55211484D01*
X142074591Y-55202513D01*
X142090454Y-55195942D01*
X142107151Y-55191934D01*
X142131722Y-55190000D01*
X196868278Y-55190000D01*
X196892849Y-55191934D01*
X196909546Y-55195942D01*
X196925409Y-55202513D01*
X196940049Y-55211484D01*
X196958797Y-55227497D01*
X198771178Y-57039878D01*
X198790699Y-57063664D01*
X198800778Y-57082522D01*
X198806985Y-57102982D01*
X198810000Y-57133595D01*
X198810000Y-110866405D01*
X198806985Y-110897018D01*
X198800778Y-110917478D01*
X198790699Y-110936336D01*
X198771178Y-110960122D01*
X196960122Y-112771178D01*
X196936336Y-112790699D01*
X196917478Y-112800778D01*
X196897018Y-112806985D01*
X196866405Y-112810000D01*
X177734611Y-112810000D01*
X177869184Y-112681848D01*
X178072663Y-112393397D01*
X178216241Y-112070917D01*
X178294447Y-111726691D01*
X178300077Y-111323501D01*
X178231512Y-110977226D01*
X178096995Y-110650863D01*
X177901649Y-110356843D01*
X177652915Y-110106366D01*
X177360266Y-109908972D01*
X177034850Y-109772179D01*
X176689062Y-109701199D01*
X176336072Y-109698735D01*
X175989326Y-109764880D01*
X175662032Y-109897116D01*
X175366656Y-110090404D01*
X175114449Y-110337384D01*
X174915016Y-110628648D01*
X174775955Y-110953101D01*
X174702563Y-111298385D01*
X174697634Y-111651349D01*
X174761357Y-111998548D01*
X174891305Y-112326757D01*
X175082527Y-112623476D01*
X175262651Y-112810000D01*
X156734611Y-112810000D01*
X156869184Y-112681848D01*
X157072663Y-112393397D01*
X157216241Y-112070917D01*
X157294447Y-111726691D01*
X157300077Y-111323501D01*
X157231512Y-110977226D01*
X157096995Y-110650863D01*
X156901649Y-110356843D01*
X156652915Y-110106366D01*
X156360266Y-109908972D01*
X156034850Y-109772179D01*
X155689062Y-109701199D01*
X155336072Y-109698735D01*
X154989326Y-109764880D01*
X154662032Y-109897116D01*
X154366656Y-110090404D01*
X154114449Y-110337384D01*
X153915016Y-110628648D01*
X153775955Y-110953101D01*
X153702563Y-111298385D01*
X153697634Y-111651349D01*
X153761357Y-111998548D01*
X153891305Y-112326757D01*
X154082527Y-112623476D01*
X154262651Y-112810000D01*
X134734611Y-112810000D01*
X134869184Y-112681848D01*
X135072663Y-112393397D01*
X135216241Y-112070917D01*
X135294447Y-111726691D01*
X135300077Y-111323501D01*
X135231512Y-110977226D01*
X135096995Y-110650863D01*
X134901649Y-110356843D01*
X134652915Y-110106366D01*
X134360266Y-109908972D01*
X134034850Y-109772179D01*
X133689062Y-109701199D01*
X133336072Y-109698735D01*
X132989326Y-109764880D01*
X132662032Y-109897116D01*
X132366656Y-110090404D01*
X132114449Y-110337384D01*
X131915016Y-110628648D01*
X131775955Y-110953101D01*
X131702563Y-111298385D01*
X131697634Y-111651349D01*
X131761357Y-111998548D01*
X131891305Y-112326757D01*
X132082527Y-112623476D01*
X132262651Y-112810000D01*
X113734611Y-112810000D01*
X113869184Y-112681848D01*
X114072663Y-112393397D01*
X114216241Y-112070917D01*
X114294447Y-111726691D01*
X114300077Y-111323501D01*
X114231512Y-110977226D01*
X114096995Y-110650863D01*
X113901649Y-110356843D01*
X113652915Y-110106366D01*
X113360266Y-109908972D01*
X113034850Y-109772179D01*
X112689062Y-109701199D01*
X112336072Y-109698735D01*
X111989326Y-109764880D01*
X111662032Y-109897116D01*
X111366656Y-110090404D01*
X111114449Y-110337384D01*
X110915016Y-110628648D01*
X110775955Y-110953101D01*
X110702563Y-111298385D01*
X110697634Y-111651349D01*
X110761357Y-111998548D01*
X110891305Y-112326757D01*
X111082527Y-112623476D01*
X111262651Y-112810000D01*
X103133595Y-112810000D01*
X103102982Y-112806985D01*
X103082522Y-112800778D01*
X103063664Y-112790699D01*
X103039878Y-112771178D01*
X101228822Y-110960122D01*
X101209301Y-110936336D01*
X101199222Y-110917478D01*
X101193015Y-110897018D01*
X101190000Y-110866405D01*
X101190000Y-109319514D01*
X101195005Y-109319514D01*
X101329531Y-110052490D01*
X101603864Y-110745377D01*
X102007555Y-111371783D01*
X102525227Y-111907848D01*
X103137163Y-112333154D01*
X103820054Y-112631502D01*
X104547888Y-112791527D01*
X105292943Y-112807133D01*
X106026840Y-112677727D01*
X106721625Y-112408238D01*
X107350834Y-112008930D01*
X107890500Y-111495013D01*
X108320068Y-110886061D01*
X108623176Y-110205270D01*
X108788278Y-109478571D01*
X108790498Y-109319514D01*
X191195005Y-109319514D01*
X191329531Y-110052490D01*
X191603864Y-110745377D01*
X192007555Y-111371783D01*
X192525227Y-111907848D01*
X193137163Y-112333154D01*
X193820054Y-112631502D01*
X194547888Y-112791527D01*
X195292943Y-112807133D01*
X196026840Y-112677727D01*
X196721625Y-112408238D01*
X197350834Y-112008930D01*
X197890500Y-111495013D01*
X198320068Y-110886061D01*
X198623176Y-110205270D01*
X198788278Y-109478571D01*
X198800163Y-108627391D01*
X198655416Y-107896365D01*
X198371436Y-107207376D01*
X197959038Y-106586668D01*
X197433931Y-106057882D01*
X196816117Y-105641161D01*
X196129128Y-105352378D01*
X195399130Y-105202531D01*
X194653930Y-105197328D01*
X193921911Y-105336968D01*
X193230956Y-105616132D01*
X192607384Y-106024186D01*
X192074946Y-106545588D01*
X191653922Y-107160478D01*
X191360349Y-107845435D01*
X191205409Y-108574368D01*
X191195005Y-109319514D01*
X108790498Y-109319514D01*
X108800163Y-108627391D01*
X108655416Y-107896365D01*
X108371436Y-107207376D01*
X108002013Y-106651349D01*
X116197634Y-106651349D01*
X116261357Y-106998548D01*
X116391305Y-107326757D01*
X116582527Y-107623476D01*
X116827740Y-107877401D01*
X117117604Y-108078862D01*
X117441078Y-108220184D01*
X117785842Y-108295986D01*
X118138762Y-108303378D01*
X118486398Y-108242081D01*
X118815506Y-108114428D01*
X119113552Y-107925282D01*
X119306870Y-107741188D01*
X121949731Y-107741188D01*
X122084590Y-107989629D01*
X122392791Y-108139593D01*
X122724327Y-108226550D01*
X123066457Y-108247155D01*
X123406033Y-108200619D01*
X123730006Y-108088729D01*
X123915410Y-107989629D01*
X124050269Y-107741188D01*
X123000000Y-106690919D01*
X121949731Y-107741188D01*
X119306870Y-107741188D01*
X119369184Y-107681848D01*
X119572663Y-107393397D01*
X119716241Y-107070917D01*
X119794447Y-106726691D01*
X119796684Y-106566457D01*
X121252845Y-106566457D01*
X121299381Y-106906033D01*
X121411271Y-107230006D01*
X121510371Y-107415410D01*
X121758812Y-107550269D01*
X122809081Y-106500000D01*
X123190919Y-106500000D01*
X124241188Y-107550269D01*
X124489629Y-107415410D01*
X124639593Y-107107209D01*
X124726550Y-106775673D01*
X124734037Y-106651349D01*
X137197634Y-106651349D01*
X137261357Y-106998548D01*
X137391305Y-107326757D01*
X137582527Y-107623476D01*
X137827740Y-107877401D01*
X138117604Y-108078862D01*
X138441078Y-108220184D01*
X138785842Y-108295986D01*
X139138762Y-108303378D01*
X139486398Y-108242081D01*
X139815506Y-108114428D01*
X140113552Y-107925282D01*
X140306870Y-107741188D01*
X142949731Y-107741188D01*
X143084590Y-107989629D01*
X143392791Y-108139593D01*
X143724327Y-108226550D01*
X144066457Y-108247155D01*
X144406033Y-108200619D01*
X144730006Y-108088729D01*
X144915410Y-107989629D01*
X145050269Y-107741188D01*
X144000000Y-106690919D01*
X142949731Y-107741188D01*
X140306870Y-107741188D01*
X140369184Y-107681848D01*
X140572663Y-107393397D01*
X140716241Y-107070917D01*
X140794447Y-106726691D01*
X140796684Y-106566457D01*
X142252845Y-106566457D01*
X142299381Y-106906033D01*
X142411271Y-107230006D01*
X142510371Y-107415410D01*
X142758812Y-107550269D01*
X143809081Y-106500000D01*
X144190919Y-106500000D01*
X145241188Y-107550269D01*
X145489629Y-107415410D01*
X145639593Y-107107209D01*
X145726550Y-106775673D01*
X145734037Y-106651349D01*
X159197634Y-106651349D01*
X159261357Y-106998548D01*
X159391305Y-107326757D01*
X159582527Y-107623476D01*
X159827740Y-107877401D01*
X160117604Y-108078862D01*
X160441078Y-108220184D01*
X160785842Y-108295986D01*
X161138762Y-108303378D01*
X161486398Y-108242081D01*
X161815506Y-108114428D01*
X162113552Y-107925282D01*
X162306870Y-107741188D01*
X164949731Y-107741188D01*
X165084590Y-107989629D01*
X165392791Y-108139593D01*
X165724327Y-108226550D01*
X166066457Y-108247155D01*
X166406033Y-108200619D01*
X166730006Y-108088729D01*
X166915410Y-107989629D01*
X167050269Y-107741188D01*
X166000000Y-106690919D01*
X164949731Y-107741188D01*
X162306870Y-107741188D01*
X162369184Y-107681848D01*
X162572663Y-107393397D01*
X162716241Y-107070917D01*
X162794447Y-106726691D01*
X162796684Y-106566457D01*
X164252845Y-106566457D01*
X164299381Y-106906033D01*
X164411271Y-107230006D01*
X164510371Y-107415410D01*
X164758812Y-107550269D01*
X165809081Y-106500000D01*
X166190919Y-106500000D01*
X167241188Y-107550269D01*
X167489629Y-107415410D01*
X167639593Y-107107209D01*
X167726550Y-106775673D01*
X167734037Y-106651349D01*
X180197634Y-106651349D01*
X180261357Y-106998548D01*
X180391305Y-107326757D01*
X180582527Y-107623476D01*
X180827740Y-107877401D01*
X181117604Y-108078862D01*
X181441078Y-108220184D01*
X181785842Y-108295986D01*
X182138762Y-108303378D01*
X182486398Y-108242081D01*
X182815506Y-108114428D01*
X183113552Y-107925282D01*
X183306870Y-107741188D01*
X185949731Y-107741188D01*
X186084590Y-107989629D01*
X186392791Y-108139593D01*
X186724327Y-108226550D01*
X187066457Y-108247155D01*
X187406033Y-108200619D01*
X187730006Y-108088729D01*
X187915410Y-107989629D01*
X188050269Y-107741188D01*
X187000000Y-106690919D01*
X185949731Y-107741188D01*
X183306870Y-107741188D01*
X183369184Y-107681848D01*
X183572663Y-107393397D01*
X183716241Y-107070917D01*
X183794447Y-106726691D01*
X183796684Y-106566457D01*
X185252845Y-106566457D01*
X185299381Y-106906033D01*
X185411271Y-107230006D01*
X185510371Y-107415410D01*
X185758812Y-107550269D01*
X186809081Y-106500000D01*
X187190919Y-106500000D01*
X188241188Y-107550269D01*
X188489629Y-107415410D01*
X188639593Y-107107209D01*
X188726550Y-106775673D01*
X188747155Y-106433543D01*
X188700619Y-106093967D01*
X188588729Y-105769994D01*
X188489629Y-105584590D01*
X188241188Y-105449731D01*
X187190919Y-106500000D01*
X186809081Y-106500000D01*
X185758812Y-105449731D01*
X185510371Y-105584590D01*
X185360407Y-105892791D01*
X185273450Y-106224327D01*
X185252845Y-106566457D01*
X183796684Y-106566457D01*
X183800077Y-106323501D01*
X183731512Y-105977226D01*
X183596995Y-105650863D01*
X183401649Y-105356843D01*
X183304301Y-105258812D01*
X185949731Y-105258812D01*
X187000000Y-106309081D01*
X188050269Y-105258812D01*
X187915410Y-105010371D01*
X187607209Y-104860407D01*
X187275673Y-104773450D01*
X186933543Y-104752845D01*
X186593967Y-104799381D01*
X186269994Y-104911271D01*
X186084590Y-105010371D01*
X185949731Y-105258812D01*
X183304301Y-105258812D01*
X183152915Y-105106366D01*
X182860266Y-104908972D01*
X182534850Y-104772179D01*
X182189062Y-104701199D01*
X181836072Y-104698735D01*
X181489326Y-104764880D01*
X181162032Y-104897116D01*
X180866656Y-105090404D01*
X180614449Y-105337384D01*
X180415016Y-105628648D01*
X180275955Y-105953101D01*
X180202563Y-106298385D01*
X180197634Y-106651349D01*
X167734037Y-106651349D01*
X167747155Y-106433543D01*
X167700619Y-106093967D01*
X167588729Y-105769994D01*
X167489629Y-105584590D01*
X167241188Y-105449731D01*
X166190919Y-106500000D01*
X165809081Y-106500000D01*
X164758812Y-105449731D01*
X164510371Y-105584590D01*
X164360407Y-105892791D01*
X164273450Y-106224327D01*
X164252845Y-106566457D01*
X162796684Y-106566457D01*
X162800077Y-106323501D01*
X162731512Y-105977226D01*
X162596995Y-105650863D01*
X162401649Y-105356843D01*
X162304301Y-105258812D01*
X164949731Y-105258812D01*
X166000000Y-106309081D01*
X167050269Y-105258812D01*
X166915410Y-105010371D01*
X166607209Y-104860407D01*
X166275673Y-104773450D01*
X165933543Y-104752845D01*
X165593967Y-104799381D01*
X165269994Y-104911271D01*
X165084590Y-105010371D01*
X164949731Y-105258812D01*
X162304301Y-105258812D01*
X162152915Y-105106366D01*
X161860266Y-104908972D01*
X161534850Y-104772179D01*
X161189062Y-104701199D01*
X160836072Y-104698735D01*
X160489326Y-104764880D01*
X160162032Y-104897116D01*
X159866656Y-105090404D01*
X159614449Y-105337384D01*
X159415016Y-105628648D01*
X159275955Y-105953101D01*
X159202563Y-106298385D01*
X159197634Y-106651349D01*
X145734037Y-106651349D01*
X145747155Y-106433543D01*
X145700619Y-106093967D01*
X145588729Y-105769994D01*
X145489629Y-105584590D01*
X145241188Y-105449731D01*
X144190919Y-106500000D01*
X143809081Y-106500000D01*
X142758812Y-105449731D01*
X142510371Y-105584590D01*
X142360407Y-105892791D01*
X142273450Y-106224327D01*
X142252845Y-106566457D01*
X140796684Y-106566457D01*
X140800077Y-106323501D01*
X140731512Y-105977226D01*
X140596995Y-105650863D01*
X140401649Y-105356843D01*
X140304301Y-105258812D01*
X142949731Y-105258812D01*
X144000000Y-106309081D01*
X145050269Y-105258812D01*
X144915410Y-105010371D01*
X144607209Y-104860407D01*
X144275673Y-104773450D01*
X143933543Y-104752845D01*
X143593967Y-104799381D01*
X143269994Y-104911271D01*
X143084590Y-105010371D01*
X142949731Y-105258812D01*
X140304301Y-105258812D01*
X140152915Y-105106366D01*
X139860266Y-104908972D01*
X139534850Y-104772179D01*
X139189062Y-104701199D01*
X138836072Y-104698735D01*
X138489326Y-104764880D01*
X138162032Y-104897116D01*
X137866656Y-105090404D01*
X137614449Y-105337384D01*
X137415016Y-105628648D01*
X137275955Y-105953101D01*
X137202563Y-106298385D01*
X137197634Y-106651349D01*
X124734037Y-106651349D01*
X124747155Y-106433543D01*
X124700619Y-106093967D01*
X124588729Y-105769994D01*
X124489629Y-105584590D01*
X124241188Y-105449731D01*
X123190919Y-106500000D01*
X122809081Y-106500000D01*
X121758812Y-105449731D01*
X121510371Y-105584590D01*
X121360407Y-105892791D01*
X121273450Y-106224327D01*
X121252845Y-106566457D01*
X119796684Y-106566457D01*
X119800077Y-106323501D01*
X119731512Y-105977226D01*
X119596995Y-105650863D01*
X119401649Y-105356843D01*
X119304301Y-105258812D01*
X121949731Y-105258812D01*
X123000000Y-106309081D01*
X124050269Y-105258812D01*
X123915410Y-105010371D01*
X123607209Y-104860407D01*
X123275673Y-104773450D01*
X122933543Y-104752845D01*
X122593967Y-104799381D01*
X122269994Y-104911271D01*
X122084590Y-105010371D01*
X121949731Y-105258812D01*
X119304301Y-105258812D01*
X119152915Y-105106366D01*
X118860266Y-104908972D01*
X118534850Y-104772179D01*
X118189062Y-104701199D01*
X117836072Y-104698735D01*
X117489326Y-104764880D01*
X117162032Y-104897116D01*
X116866656Y-105090404D01*
X116614449Y-105337384D01*
X116415016Y-105628648D01*
X116275955Y-105953101D01*
X116202563Y-106298385D01*
X116197634Y-106651349D01*
X108002013Y-106651349D01*
X107959038Y-106586668D01*
X107433931Y-106057882D01*
X106816117Y-105641161D01*
X106129128Y-105352378D01*
X105399130Y-105202531D01*
X104653930Y-105197328D01*
X103921911Y-105336968D01*
X103230956Y-105616132D01*
X102607384Y-106024186D01*
X102074946Y-106545588D01*
X101653922Y-107160478D01*
X101360349Y-107845435D01*
X101205409Y-108574368D01*
X101195005Y-109319514D01*
X101190000Y-109319514D01*
X101190000Y-101651349D01*
X121197634Y-101651349D01*
X121261357Y-101998548D01*
X121391305Y-102326757D01*
X121582527Y-102623476D01*
X121827740Y-102877401D01*
X122117604Y-103078862D01*
X122441078Y-103220184D01*
X122785842Y-103295986D01*
X123138762Y-103303378D01*
X123486398Y-103242081D01*
X123815506Y-103114428D01*
X124113552Y-102925282D01*
X124369184Y-102681848D01*
X124572663Y-102393397D01*
X124716241Y-102070917D01*
X124794447Y-101726691D01*
X124795499Y-101651349D01*
X142197634Y-101651349D01*
X142261357Y-101998548D01*
X142391305Y-102326757D01*
X142582527Y-102623476D01*
X142827740Y-102877401D01*
X143117604Y-103078862D01*
X143441078Y-103220184D01*
X143785842Y-103295986D01*
X144138762Y-103303378D01*
X144486398Y-103242081D01*
X144815506Y-103114428D01*
X145113552Y-102925282D01*
X145369184Y-102681848D01*
X145572663Y-102393397D01*
X145716241Y-102070917D01*
X145794447Y-101726691D01*
X145795499Y-101651349D01*
X164197634Y-101651349D01*
X164261357Y-101998548D01*
X164391305Y-102326757D01*
X164582527Y-102623476D01*
X164827740Y-102877401D01*
X165117604Y-103078862D01*
X165441078Y-103220184D01*
X165785842Y-103295986D01*
X166138762Y-103303378D01*
X166486398Y-103242081D01*
X166815506Y-103114428D01*
X167113552Y-102925282D01*
X167369184Y-102681848D01*
X167572663Y-102393397D01*
X167716241Y-102070917D01*
X167794447Y-101726691D01*
X167795499Y-101651349D01*
X185197634Y-101651349D01*
X185261357Y-101998548D01*
X185391305Y-102326757D01*
X185582527Y-102623476D01*
X185827740Y-102877401D01*
X186117604Y-103078862D01*
X186441078Y-103220184D01*
X186785842Y-103295986D01*
X187138762Y-103303378D01*
X187486398Y-103242081D01*
X187815506Y-103114428D01*
X188113552Y-102925282D01*
X188369184Y-102681848D01*
X188572663Y-102393397D01*
X188716241Y-102070917D01*
X188794447Y-101726691D01*
X188800077Y-101323501D01*
X188731512Y-100977226D01*
X188596995Y-100650863D01*
X188401649Y-100356843D01*
X188152915Y-100106366D01*
X187860266Y-99908972D01*
X187534850Y-99772179D01*
X187189062Y-99701199D01*
X186836072Y-99698735D01*
X186489326Y-99764880D01*
X186162032Y-99897116D01*
X185866656Y-100090404D01*
X185614449Y-100337384D01*
X185415016Y-100628648D01*
X185275955Y-100953101D01*
X185202563Y-101298385D01*
X185197634Y-101651349D01*
X167795499Y-101651349D01*
X167800077Y-101323501D01*
X167731512Y-100977226D01*
X167596995Y-100650863D01*
X167401649Y-100356843D01*
X167152915Y-100106366D01*
X166860266Y-99908972D01*
X166534850Y-99772179D01*
X166189062Y-99701199D01*
X165836072Y-99698735D01*
X165489326Y-99764880D01*
X165162032Y-99897116D01*
X164866656Y-100090404D01*
X164614449Y-100337384D01*
X164415016Y-100628648D01*
X164275955Y-100953101D01*
X164202563Y-101298385D01*
X164197634Y-101651349D01*
X145795499Y-101651349D01*
X145800077Y-101323501D01*
X145731512Y-100977226D01*
X145596995Y-100650863D01*
X145401649Y-100356843D01*
X145152915Y-100106366D01*
X144860266Y-99908972D01*
X144534850Y-99772179D01*
X144189062Y-99701199D01*
X143836072Y-99698735D01*
X143489326Y-99764880D01*
X143162032Y-99897116D01*
X142866656Y-100090404D01*
X142614449Y-100337384D01*
X142415016Y-100628648D01*
X142275955Y-100953101D01*
X142202563Y-101298385D01*
X142197634Y-101651349D01*
X124795499Y-101651349D01*
X124800077Y-101323501D01*
X124731512Y-100977226D01*
X124596995Y-100650863D01*
X124401649Y-100356843D01*
X124152915Y-100106366D01*
X123860266Y-99908972D01*
X123534850Y-99772179D01*
X123189062Y-99701199D01*
X122836072Y-99698735D01*
X122489326Y-99764880D01*
X122162032Y-99897116D01*
X121866656Y-100090404D01*
X121614449Y-100337384D01*
X121415016Y-100628648D01*
X121275955Y-100953101D01*
X121202563Y-101298385D01*
X121197634Y-101651349D01*
X101190000Y-101651349D01*
X101190000Y-94800000D01*
X118017339Y-94800000D01*
X118017339Y-98800000D01*
X118024323Y-98887585D01*
X118070328Y-99036140D01*
X118155897Y-99165996D01*
X118274256Y-99266872D01*
X118416032Y-99330781D01*
X118570000Y-99352661D01*
X120270000Y-99352661D01*
X120357585Y-99345677D01*
X120506140Y-99299672D01*
X120635996Y-99214103D01*
X120687656Y-99153490D01*
X120695897Y-99165996D01*
X120814256Y-99266872D01*
X120956032Y-99330781D01*
X121110000Y-99352661D01*
X122810000Y-99352661D01*
X122897585Y-99345677D01*
X123046140Y-99299672D01*
X123175996Y-99214103D01*
X123227656Y-99153490D01*
X123235897Y-99165996D01*
X123354256Y-99266872D01*
X123496032Y-99330781D01*
X123650000Y-99352661D01*
X125350000Y-99352661D01*
X125437585Y-99345677D01*
X125586140Y-99299672D01*
X125715996Y-99214103D01*
X125767656Y-99153490D01*
X125775897Y-99165996D01*
X125894256Y-99266872D01*
X126036032Y-99330781D01*
X126190000Y-99352661D01*
X127890000Y-99352661D01*
X127977585Y-99345677D01*
X128126140Y-99299672D01*
X128255996Y-99214103D01*
X128307656Y-99153490D01*
X128315897Y-99165996D01*
X128434256Y-99266872D01*
X128576032Y-99330781D01*
X128730000Y-99352661D01*
X130430000Y-99352661D01*
X130517585Y-99345677D01*
X130666140Y-99299672D01*
X130795996Y-99214103D01*
X130896872Y-99095744D01*
X130960781Y-98953968D01*
X130982661Y-98800000D01*
X130982661Y-94800000D01*
X135017339Y-94800000D01*
X135017339Y-98800000D01*
X135024323Y-98887585D01*
X135070328Y-99036140D01*
X135155897Y-99165996D01*
X135274256Y-99266872D01*
X135416032Y-99330781D01*
X135570000Y-99352661D01*
X137270000Y-99352661D01*
X137357585Y-99345677D01*
X137506140Y-99299672D01*
X137635996Y-99214103D01*
X137687656Y-99153490D01*
X137695897Y-99165996D01*
X137814256Y-99266872D01*
X137956032Y-99330781D01*
X138110000Y-99352661D01*
X139810000Y-99352661D01*
X139897585Y-99345677D01*
X140046140Y-99299672D01*
X140175996Y-99214103D01*
X140227656Y-99153490D01*
X140235897Y-99165996D01*
X140354256Y-99266872D01*
X140496032Y-99330781D01*
X140650000Y-99352661D01*
X142350000Y-99352661D01*
X142437585Y-99345677D01*
X142586140Y-99299672D01*
X142715996Y-99214103D01*
X142767656Y-99153490D01*
X142775897Y-99165996D01*
X142894256Y-99266872D01*
X143036032Y-99330781D01*
X143190000Y-99352661D01*
X144890000Y-99352661D01*
X144977585Y-99345677D01*
X145126140Y-99299672D01*
X145255996Y-99214103D01*
X145307656Y-99153490D01*
X145315897Y-99165996D01*
X145434256Y-99266872D01*
X145576032Y-99330781D01*
X145730000Y-99352661D01*
X147430000Y-99352661D01*
X147517585Y-99345677D01*
X147666140Y-99299672D01*
X147795996Y-99214103D01*
X147896872Y-99095744D01*
X147960781Y-98953968D01*
X147982661Y-98800000D01*
X147982661Y-94800000D01*
X152017339Y-94800000D01*
X152017339Y-98800000D01*
X152024323Y-98887585D01*
X152070328Y-99036140D01*
X152155897Y-99165996D01*
X152274256Y-99266872D01*
X152416032Y-99330781D01*
X152570000Y-99352661D01*
X154270000Y-99352661D01*
X154357585Y-99345677D01*
X154506140Y-99299672D01*
X154635996Y-99214103D01*
X154687656Y-99153490D01*
X154695897Y-99165996D01*
X154814256Y-99266872D01*
X154956032Y-99330781D01*
X155110000Y-99352661D01*
X156810000Y-99352661D01*
X156897585Y-99345677D01*
X157046140Y-99299672D01*
X157175996Y-99214103D01*
X157227656Y-99153490D01*
X157235897Y-99165996D01*
X157354256Y-99266872D01*
X157496032Y-99330781D01*
X157650000Y-99352661D01*
X159350000Y-99352661D01*
X159437585Y-99345677D01*
X159586140Y-99299672D01*
X159715996Y-99214103D01*
X159767656Y-99153490D01*
X159775897Y-99165996D01*
X159894256Y-99266872D01*
X160036032Y-99330781D01*
X160190000Y-99352661D01*
X161890000Y-99352661D01*
X161977585Y-99345677D01*
X162126140Y-99299672D01*
X162255996Y-99214103D01*
X162307656Y-99153490D01*
X162315897Y-99165996D01*
X162434256Y-99266872D01*
X162576032Y-99330781D01*
X162730000Y-99352661D01*
X164430000Y-99352661D01*
X164517585Y-99345677D01*
X164666140Y-99299672D01*
X164795996Y-99214103D01*
X164896872Y-99095744D01*
X164960781Y-98953968D01*
X164982661Y-98800000D01*
X164982661Y-94800000D01*
X169017339Y-94800000D01*
X169017339Y-98800000D01*
X169024323Y-98887585D01*
X169070328Y-99036140D01*
X169155897Y-99165996D01*
X169274256Y-99266872D01*
X169416032Y-99330781D01*
X169570000Y-99352661D01*
X171270000Y-99352661D01*
X171357585Y-99345677D01*
X171506140Y-99299672D01*
X171635996Y-99214103D01*
X171687656Y-99153490D01*
X171695897Y-99165996D01*
X171814256Y-99266872D01*
X171956032Y-99330781D01*
X172110000Y-99352661D01*
X173810000Y-99352661D01*
X173897585Y-99345677D01*
X174046140Y-99299672D01*
X174175996Y-99214103D01*
X174227656Y-99153490D01*
X174235897Y-99165996D01*
X174354256Y-99266872D01*
X174496032Y-99330781D01*
X174650000Y-99352661D01*
X176350000Y-99352661D01*
X176437585Y-99345677D01*
X176586140Y-99299672D01*
X176715996Y-99214103D01*
X176767656Y-99153490D01*
X176775897Y-99165996D01*
X176894256Y-99266872D01*
X177036032Y-99330781D01*
X177190000Y-99352661D01*
X178890000Y-99352661D01*
X178977585Y-99345677D01*
X179126140Y-99299672D01*
X179255996Y-99214103D01*
X179307656Y-99153490D01*
X179315897Y-99165996D01*
X179434256Y-99266872D01*
X179576032Y-99330781D01*
X179730000Y-99352661D01*
X181430000Y-99352661D01*
X181517585Y-99345677D01*
X181666140Y-99299672D01*
X181795996Y-99214103D01*
X181896872Y-99095744D01*
X181960781Y-98953968D01*
X181982661Y-98800000D01*
X181982661Y-94800000D01*
X181975677Y-94712415D01*
X181929672Y-94563860D01*
X181844103Y-94434004D01*
X181725744Y-94333128D01*
X181583968Y-94269219D01*
X181430000Y-94247339D01*
X179730000Y-94247339D01*
X179642415Y-94254323D01*
X179493860Y-94300328D01*
X179364004Y-94385897D01*
X179312344Y-94446510D01*
X179304103Y-94434004D01*
X179185744Y-94333128D01*
X179043968Y-94269219D01*
X178890000Y-94247339D01*
X177190000Y-94247339D01*
X177102415Y-94254323D01*
X176953860Y-94300328D01*
X176824004Y-94385897D01*
X176772344Y-94446510D01*
X176764103Y-94434004D01*
X176645744Y-94333128D01*
X176503968Y-94269219D01*
X176350000Y-94247339D01*
X174650000Y-94247339D01*
X174562415Y-94254323D01*
X174413860Y-94300328D01*
X174284004Y-94385897D01*
X174232344Y-94446510D01*
X174224103Y-94434004D01*
X174105744Y-94333128D01*
X173963968Y-94269219D01*
X173810000Y-94247339D01*
X172110000Y-94247339D01*
X172022415Y-94254323D01*
X171873860Y-94300328D01*
X171744004Y-94385897D01*
X171692344Y-94446510D01*
X171684103Y-94434004D01*
X171565744Y-94333128D01*
X171423968Y-94269219D01*
X171270000Y-94247339D01*
X169570000Y-94247339D01*
X169482415Y-94254323D01*
X169333860Y-94300328D01*
X169204004Y-94385897D01*
X169103128Y-94504256D01*
X169039219Y-94646032D01*
X169017339Y-94800000D01*
X164982661Y-94800000D01*
X164975677Y-94712415D01*
X164929672Y-94563860D01*
X164844103Y-94434004D01*
X164725744Y-94333128D01*
X164583968Y-94269219D01*
X164430000Y-94247339D01*
X162730000Y-94247339D01*
X162642415Y-94254323D01*
X162493860Y-94300328D01*
X162364004Y-94385897D01*
X162312344Y-94446510D01*
X162304103Y-94434004D01*
X162185744Y-94333128D01*
X162043968Y-94269219D01*
X161890000Y-94247339D01*
X160190000Y-94247339D01*
X160102415Y-94254323D01*
X159953860Y-94300328D01*
X159824004Y-94385897D01*
X159772344Y-94446510D01*
X159764103Y-94434004D01*
X159645744Y-94333128D01*
X159503968Y-94269219D01*
X159350000Y-94247339D01*
X157650000Y-94247339D01*
X157562415Y-94254323D01*
X157413860Y-94300328D01*
X157284004Y-94385897D01*
X157232344Y-94446510D01*
X157224103Y-94434004D01*
X157105744Y-94333128D01*
X156963968Y-94269219D01*
X156810000Y-94247339D01*
X155110000Y-94247339D01*
X155022415Y-94254323D01*
X154873860Y-94300328D01*
X154744004Y-94385897D01*
X154692344Y-94446510D01*
X154684103Y-94434004D01*
X154565744Y-94333128D01*
X154423968Y-94269219D01*
X154270000Y-94247339D01*
X152570000Y-94247339D01*
X152482415Y-94254323D01*
X152333860Y-94300328D01*
X152204004Y-94385897D01*
X152103128Y-94504256D01*
X152039219Y-94646032D01*
X152017339Y-94800000D01*
X147982661Y-94800000D01*
X147975677Y-94712415D01*
X147929672Y-94563860D01*
X147844103Y-94434004D01*
X147725744Y-94333128D01*
X147583968Y-94269219D01*
X147430000Y-94247339D01*
X145730000Y-94247339D01*
X145642415Y-94254323D01*
X145493860Y-94300328D01*
X145364004Y-94385897D01*
X145312344Y-94446510D01*
X145304103Y-94434004D01*
X145185744Y-94333128D01*
X145043968Y-94269219D01*
X144890000Y-94247339D01*
X143190000Y-94247339D01*
X143102415Y-94254323D01*
X142953860Y-94300328D01*
X142824004Y-94385897D01*
X142772344Y-94446510D01*
X142764103Y-94434004D01*
X142645744Y-94333128D01*
X142503968Y-94269219D01*
X142350000Y-94247339D01*
X140650000Y-94247339D01*
X140562415Y-94254323D01*
X140413860Y-94300328D01*
X140284004Y-94385897D01*
X140232344Y-94446510D01*
X140224103Y-94434004D01*
X140105744Y-94333128D01*
X139963968Y-94269219D01*
X139810000Y-94247339D01*
X138110000Y-94247339D01*
X138022415Y-94254323D01*
X137873860Y-94300328D01*
X137744004Y-94385897D01*
X137692344Y-94446510D01*
X137684103Y-94434004D01*
X137565744Y-94333128D01*
X137423968Y-94269219D01*
X137270000Y-94247339D01*
X135570000Y-94247339D01*
X135482415Y-94254323D01*
X135333860Y-94300328D01*
X135204004Y-94385897D01*
X135103128Y-94504256D01*
X135039219Y-94646032D01*
X135017339Y-94800000D01*
X130982661Y-94800000D01*
X130975677Y-94712415D01*
X130929672Y-94563860D01*
X130844103Y-94434004D01*
X130725744Y-94333128D01*
X130583968Y-94269219D01*
X130430000Y-94247339D01*
X128730000Y-94247339D01*
X128642415Y-94254323D01*
X128493860Y-94300328D01*
X128364004Y-94385897D01*
X128312344Y-94446510D01*
X128304103Y-94434004D01*
X128185744Y-94333128D01*
X128043968Y-94269219D01*
X127890000Y-94247339D01*
X126190000Y-94247339D01*
X126102415Y-94254323D01*
X125953860Y-94300328D01*
X125824004Y-94385897D01*
X125772344Y-94446510D01*
X125764103Y-94434004D01*
X125645744Y-94333128D01*
X125503968Y-94269219D01*
X125350000Y-94247339D01*
X123650000Y-94247339D01*
X123562415Y-94254323D01*
X123413860Y-94300328D01*
X123284004Y-94385897D01*
X123232344Y-94446510D01*
X123224103Y-94434004D01*
X123105744Y-94333128D01*
X122963968Y-94269219D01*
X122810000Y-94247339D01*
X121110000Y-94247339D01*
X121022415Y-94254323D01*
X120873860Y-94300328D01*
X120744004Y-94385897D01*
X120692344Y-94446510D01*
X120684103Y-94434004D01*
X120565744Y-94333128D01*
X120423968Y-94269219D01*
X120270000Y-94247339D01*
X118570000Y-94247339D01*
X118482415Y-94254323D01*
X118333860Y-94300328D01*
X118204004Y-94385897D01*
X118103128Y-94504256D01*
X118039219Y-94646032D01*
X118017339Y-94800000D01*
X101190000Y-94800000D01*
X101190000Y-74492299D01*
X144911026Y-74492299D01*
X144950729Y-74708623D01*
X145031694Y-74913116D01*
X145150835Y-75097988D01*
X145303617Y-75256197D01*
X145484218Y-75381719D01*
X145685761Y-75469770D01*
X145900567Y-75516999D01*
X146120457Y-75521605D01*
X146337053Y-75483413D01*
X146542106Y-75403878D01*
X146727805Y-75286030D01*
X146887077Y-75134357D01*
X147013856Y-74954636D01*
X147103313Y-74753713D01*
X147152040Y-74539241D01*
X147152695Y-74492299D01*
X147451026Y-74492299D01*
X147490729Y-74708623D01*
X147571694Y-74913116D01*
X147690835Y-75097988D01*
X147843617Y-75256197D01*
X148024218Y-75381719D01*
X148225761Y-75469770D01*
X148440567Y-75516999D01*
X148660457Y-75521605D01*
X148877053Y-75483413D01*
X149082106Y-75403878D01*
X149267805Y-75286030D01*
X149427077Y-75134357D01*
X149553856Y-74954636D01*
X149643313Y-74753713D01*
X149692040Y-74539241D01*
X149695548Y-74288031D01*
X149652828Y-74072283D01*
X149569017Y-73868940D01*
X149447305Y-73685750D01*
X149292330Y-73529689D01*
X149109993Y-73406701D01*
X148907241Y-73321472D01*
X148691796Y-73277247D01*
X148471864Y-73275712D01*
X148255822Y-73316924D01*
X148051900Y-73399314D01*
X147867864Y-73519744D01*
X147710725Y-73673626D01*
X147586467Y-73855099D01*
X147499825Y-74057252D01*
X147454097Y-74272383D01*
X147451026Y-74492299D01*
X147152695Y-74492299D01*
X147155548Y-74288031D01*
X147112828Y-74072283D01*
X147029017Y-73868940D01*
X146907305Y-73685750D01*
X146752330Y-73529689D01*
X146569993Y-73406701D01*
X146367241Y-73321472D01*
X146151796Y-73277247D01*
X145931864Y-73275712D01*
X145715822Y-73316924D01*
X145511900Y-73399314D01*
X145327864Y-73519744D01*
X145170725Y-73673626D01*
X145046467Y-73855099D01*
X144959825Y-74057252D01*
X144914097Y-74272383D01*
X144911026Y-74492299D01*
X101190000Y-74492299D01*
X101190000Y-67530131D01*
X102579594Y-67530131D01*
X102604599Y-67804882D01*
X102682493Y-68069544D01*
X102810310Y-68314035D01*
X102983181Y-68529044D01*
X103194523Y-68706380D01*
X103383991Y-68810541D01*
X103210886Y-68902583D01*
X102997089Y-69076951D01*
X102821232Y-69289525D01*
X102690014Y-69532208D01*
X102608432Y-69795756D01*
X102579594Y-70070131D01*
X102604599Y-70344882D01*
X102682493Y-70609544D01*
X102810310Y-70854035D01*
X102983181Y-71069044D01*
X103194523Y-71246380D01*
X103383991Y-71350541D01*
X103210886Y-71442583D01*
X102997089Y-71616951D01*
X102821232Y-71829525D01*
X102690014Y-72072208D01*
X102608432Y-72335756D01*
X102579594Y-72610131D01*
X102604599Y-72884882D01*
X102682493Y-73149544D01*
X102810310Y-73394035D01*
X102983181Y-73609044D01*
X103194523Y-73786380D01*
X103436284Y-73919290D01*
X103699256Y-74002709D01*
X103973423Y-74033462D01*
X103993160Y-74033600D01*
X104006840Y-74033600D01*
X104281410Y-74006678D01*
X104545521Y-73926938D01*
X104789114Y-73797417D01*
X105002911Y-73623049D01*
X105178768Y-73410475D01*
X105309574Y-73168553D01*
X105371019Y-73302444D01*
X105526619Y-73517388D01*
X105721163Y-73697846D01*
X105947174Y-73836883D01*
X106195967Y-73929156D01*
X106405000Y-73844357D01*
X106405000Y-72755000D01*
X106675000Y-72755000D01*
X106675000Y-73844357D01*
X106884033Y-73929156D01*
X107132826Y-73836883D01*
X107358837Y-73697846D01*
X107553381Y-73517388D01*
X107708981Y-73302444D01*
X107819658Y-73061274D01*
X107849150Y-72964032D01*
X107763676Y-72755000D01*
X106675000Y-72755000D01*
X106405000Y-72755000D01*
X106385000Y-72755000D01*
X106385000Y-72485000D01*
X106405000Y-72485000D01*
X106405000Y-72465000D01*
X106675000Y-72465000D01*
X106675000Y-72485000D01*
X107763676Y-72485000D01*
X107849150Y-72275968D01*
X107819658Y-72178726D01*
X107708981Y-71937556D01*
X107553381Y-71722612D01*
X107358837Y-71542154D01*
X107132826Y-71403117D01*
X107087034Y-71386134D01*
X107329114Y-71257417D01*
X107542911Y-71083049D01*
X107718768Y-70870475D01*
X107849986Y-70627792D01*
X107931568Y-70364244D01*
X107960406Y-70089869D01*
X107935401Y-69815118D01*
X107857507Y-69550456D01*
X107729690Y-69305965D01*
X107556819Y-69090956D01*
X107345477Y-68913620D01*
X107156009Y-68809459D01*
X107329114Y-68717417D01*
X107542911Y-68543049D01*
X107718768Y-68330475D01*
X107849986Y-68087792D01*
X107931568Y-67824244D01*
X107960406Y-67549869D01*
X107935401Y-67275118D01*
X107913293Y-67200000D01*
X118017339Y-67200000D01*
X118017339Y-71200000D01*
X118024323Y-71287585D01*
X118070328Y-71436140D01*
X118155897Y-71565996D01*
X118274256Y-71666872D01*
X118416032Y-71730781D01*
X118570000Y-71752661D01*
X120270000Y-71752661D01*
X120357585Y-71745677D01*
X120506140Y-71699672D01*
X120635996Y-71614103D01*
X120687656Y-71553490D01*
X120695897Y-71565996D01*
X120814256Y-71666872D01*
X120956032Y-71730781D01*
X121110000Y-71752661D01*
X122810000Y-71752661D01*
X122897585Y-71745677D01*
X123046140Y-71699672D01*
X123175996Y-71614103D01*
X123227656Y-71553490D01*
X123235897Y-71565996D01*
X123354256Y-71666872D01*
X123496032Y-71730781D01*
X123650000Y-71752661D01*
X125350000Y-71752661D01*
X125437585Y-71745677D01*
X125586140Y-71699672D01*
X125715996Y-71614103D01*
X125767656Y-71553490D01*
X125775897Y-71565996D01*
X125894256Y-71666872D01*
X126036032Y-71730781D01*
X126190000Y-71752661D01*
X127890000Y-71752661D01*
X127977585Y-71745677D01*
X128126140Y-71699672D01*
X128255996Y-71614103D01*
X128307656Y-71553490D01*
X128315897Y-71565996D01*
X128434256Y-71666872D01*
X128576032Y-71730781D01*
X128730000Y-71752661D01*
X130430000Y-71752661D01*
X130517585Y-71745677D01*
X130666140Y-71699672D01*
X130795996Y-71614103D01*
X130896872Y-71495744D01*
X130960781Y-71353968D01*
X130982661Y-71200000D01*
X130982661Y-67200000D01*
X135017339Y-67200000D01*
X135017339Y-71200000D01*
X135024323Y-71287585D01*
X135070328Y-71436140D01*
X135155897Y-71565996D01*
X135274256Y-71666872D01*
X135416032Y-71730781D01*
X135570000Y-71752661D01*
X137270000Y-71752661D01*
X137357585Y-71745677D01*
X137506140Y-71699672D01*
X137635996Y-71614103D01*
X137687656Y-71553490D01*
X137695897Y-71565996D01*
X137814256Y-71666872D01*
X137956032Y-71730781D01*
X138110000Y-71752661D01*
X139810000Y-71752661D01*
X139897585Y-71745677D01*
X140046140Y-71699672D01*
X140175996Y-71614103D01*
X140227656Y-71553490D01*
X140235897Y-71565996D01*
X140354256Y-71666872D01*
X140496032Y-71730781D01*
X140650000Y-71752661D01*
X142350000Y-71752661D01*
X142437585Y-71745677D01*
X142586140Y-71699672D01*
X142715996Y-71614103D01*
X142767656Y-71553490D01*
X142775897Y-71565996D01*
X142894256Y-71666872D01*
X143036032Y-71730781D01*
X143190000Y-71752661D01*
X144890000Y-71752661D01*
X144913840Y-71750760D01*
X144911026Y-71952299D01*
X144950729Y-72168623D01*
X145031694Y-72373116D01*
X145150835Y-72557988D01*
X145303617Y-72716197D01*
X145484218Y-72841719D01*
X145685761Y-72929770D01*
X145900567Y-72976999D01*
X146120457Y-72981605D01*
X146337053Y-72943413D01*
X146542106Y-72863878D01*
X146727805Y-72746030D01*
X146887077Y-72594357D01*
X147013856Y-72414636D01*
X147103313Y-72213713D01*
X147152040Y-71999241D01*
X147155483Y-71752661D01*
X147430000Y-71752661D01*
X147453840Y-71750760D01*
X147451026Y-71952299D01*
X147490729Y-72168623D01*
X147571694Y-72373116D01*
X147690835Y-72557988D01*
X147843617Y-72716197D01*
X148024218Y-72841719D01*
X148225761Y-72929770D01*
X148440567Y-72976999D01*
X148660457Y-72981605D01*
X148877053Y-72943413D01*
X149082106Y-72863878D01*
X149267805Y-72746030D01*
X149427077Y-72594357D01*
X149553856Y-72414636D01*
X149643313Y-72213713D01*
X149692040Y-71999241D01*
X149695548Y-71748031D01*
X149652828Y-71532283D01*
X149569017Y-71328940D01*
X149447305Y-71145750D01*
X149292330Y-70989689D01*
X149109993Y-70866701D01*
X148907241Y-70781472D01*
X148691796Y-70737247D01*
X148471864Y-70735712D01*
X148255822Y-70776924D01*
X148051900Y-70859314D01*
X147982661Y-70904623D01*
X147982661Y-67200000D01*
X152017339Y-67200000D01*
X152017339Y-71200000D01*
X152024323Y-71287585D01*
X152070328Y-71436140D01*
X152155897Y-71565996D01*
X152274256Y-71666872D01*
X152416032Y-71730781D01*
X152570000Y-71752661D01*
X154270000Y-71752661D01*
X154357585Y-71745677D01*
X154506140Y-71699672D01*
X154635996Y-71614103D01*
X154687656Y-71553490D01*
X154695897Y-71565996D01*
X154814256Y-71666872D01*
X154956032Y-71730781D01*
X155110000Y-71752661D01*
X156810000Y-71752661D01*
X156897585Y-71745677D01*
X157046140Y-71699672D01*
X157175996Y-71614103D01*
X157227656Y-71553490D01*
X157235897Y-71565996D01*
X157354256Y-71666872D01*
X157496032Y-71730781D01*
X157650000Y-71752661D01*
X159350000Y-71752661D01*
X159437585Y-71745677D01*
X159586140Y-71699672D01*
X159715996Y-71614103D01*
X159767656Y-71553490D01*
X159775897Y-71565996D01*
X159894256Y-71666872D01*
X160036032Y-71730781D01*
X160190000Y-71752661D01*
X161890000Y-71752661D01*
X161977585Y-71745677D01*
X162126140Y-71699672D01*
X162255996Y-71614103D01*
X162307656Y-71553490D01*
X162315897Y-71565996D01*
X162434256Y-71666872D01*
X162576032Y-71730781D01*
X162730000Y-71752661D01*
X164430000Y-71752661D01*
X164517585Y-71745677D01*
X164666140Y-71699672D01*
X164795996Y-71614103D01*
X164896872Y-71495744D01*
X164960781Y-71353968D01*
X164982661Y-71200000D01*
X164982661Y-67200000D01*
X169017339Y-67200000D01*
X169017339Y-71200000D01*
X169024323Y-71287585D01*
X169070328Y-71436140D01*
X169155897Y-71565996D01*
X169274256Y-71666872D01*
X169416032Y-71730781D01*
X169570000Y-71752661D01*
X171270000Y-71752661D01*
X171357585Y-71745677D01*
X171506140Y-71699672D01*
X171635996Y-71614103D01*
X171687656Y-71553490D01*
X171695897Y-71565996D01*
X171814256Y-71666872D01*
X171956032Y-71730781D01*
X172110000Y-71752661D01*
X173810000Y-71752661D01*
X173897585Y-71745677D01*
X174046140Y-71699672D01*
X174175996Y-71614103D01*
X174227656Y-71553490D01*
X174235897Y-71565996D01*
X174354256Y-71666872D01*
X174496032Y-71730781D01*
X174650000Y-71752661D01*
X176350000Y-71752661D01*
X176437585Y-71745677D01*
X176586140Y-71699672D01*
X176715996Y-71614103D01*
X176767656Y-71553490D01*
X176775897Y-71565996D01*
X176894256Y-71666872D01*
X177036032Y-71730781D01*
X177190000Y-71752661D01*
X178890000Y-71752661D01*
X178977585Y-71745677D01*
X179126140Y-71699672D01*
X179255996Y-71614103D01*
X179307656Y-71553490D01*
X179315897Y-71565996D01*
X179434256Y-71666872D01*
X179576032Y-71730781D01*
X179730000Y-71752661D01*
X181430000Y-71752661D01*
X181517585Y-71745677D01*
X181666140Y-71699672D01*
X181795996Y-71614103D01*
X181896872Y-71495744D01*
X181960781Y-71353968D01*
X181982661Y-71200000D01*
X181982661Y-67200000D01*
X181975677Y-67112415D01*
X181929672Y-66963860D01*
X181844103Y-66834004D01*
X181725744Y-66733128D01*
X181583968Y-66669219D01*
X181430000Y-66647339D01*
X179730000Y-66647339D01*
X179642415Y-66654323D01*
X179493860Y-66700328D01*
X179364004Y-66785897D01*
X179312344Y-66846510D01*
X179304103Y-66834004D01*
X179185744Y-66733128D01*
X179043968Y-66669219D01*
X178890000Y-66647339D01*
X177190000Y-66647339D01*
X177102415Y-66654323D01*
X176953860Y-66700328D01*
X176824004Y-66785897D01*
X176772344Y-66846510D01*
X176764103Y-66834004D01*
X176645744Y-66733128D01*
X176503968Y-66669219D01*
X176350000Y-66647339D01*
X174650000Y-66647339D01*
X174562415Y-66654323D01*
X174413860Y-66700328D01*
X174284004Y-66785897D01*
X174232344Y-66846510D01*
X174224103Y-66834004D01*
X174105744Y-66733128D01*
X173963968Y-66669219D01*
X173810000Y-66647339D01*
X172110000Y-66647339D01*
X172022415Y-66654323D01*
X171873860Y-66700328D01*
X171744004Y-66785897D01*
X171692344Y-66846510D01*
X171684103Y-66834004D01*
X171565744Y-66733128D01*
X171423968Y-66669219D01*
X171270000Y-66647339D01*
X169570000Y-66647339D01*
X169482415Y-66654323D01*
X169333860Y-66700328D01*
X169204004Y-66785897D01*
X169103128Y-66904256D01*
X169039219Y-67046032D01*
X169017339Y-67200000D01*
X164982661Y-67200000D01*
X164975677Y-67112415D01*
X164929672Y-66963860D01*
X164844103Y-66834004D01*
X164725744Y-66733128D01*
X164583968Y-66669219D01*
X164430000Y-66647339D01*
X162730000Y-66647339D01*
X162642415Y-66654323D01*
X162493860Y-66700328D01*
X162364004Y-66785897D01*
X162312344Y-66846510D01*
X162304103Y-66834004D01*
X162185744Y-66733128D01*
X162043968Y-66669219D01*
X161890000Y-66647339D01*
X160190000Y-66647339D01*
X160102415Y-66654323D01*
X159953860Y-66700328D01*
X159824004Y-66785897D01*
X159772344Y-66846510D01*
X159764103Y-66834004D01*
X159645744Y-66733128D01*
X159503968Y-66669219D01*
X159350000Y-66647339D01*
X157650000Y-66647339D01*
X157562415Y-66654323D01*
X157413860Y-66700328D01*
X157284004Y-66785897D01*
X157232344Y-66846510D01*
X157224103Y-66834004D01*
X157105744Y-66733128D01*
X156963968Y-66669219D01*
X156810000Y-66647339D01*
X155110000Y-66647339D01*
X155022415Y-66654323D01*
X154873860Y-66700328D01*
X154744004Y-66785897D01*
X154692344Y-66846510D01*
X154684103Y-66834004D01*
X154565744Y-66733128D01*
X154423968Y-66669219D01*
X154270000Y-66647339D01*
X152570000Y-66647339D01*
X152482415Y-66654323D01*
X152333860Y-66700328D01*
X152204004Y-66785897D01*
X152103128Y-66904256D01*
X152039219Y-67046032D01*
X152017339Y-67200000D01*
X147982661Y-67200000D01*
X147975677Y-67112415D01*
X147929672Y-66963860D01*
X147844103Y-66834004D01*
X147725744Y-66733128D01*
X147583968Y-66669219D01*
X147430000Y-66647339D01*
X145730000Y-66647339D01*
X145642415Y-66654323D01*
X145493860Y-66700328D01*
X145364004Y-66785897D01*
X145312344Y-66846510D01*
X145304103Y-66834004D01*
X145185744Y-66733128D01*
X145043968Y-66669219D01*
X144890000Y-66647339D01*
X143190000Y-66647339D01*
X143102415Y-66654323D01*
X142953860Y-66700328D01*
X142824004Y-66785897D01*
X142772344Y-66846510D01*
X142764103Y-66834004D01*
X142645744Y-66733128D01*
X142503968Y-66669219D01*
X142350000Y-66647339D01*
X140650000Y-66647339D01*
X140562415Y-66654323D01*
X140413860Y-66700328D01*
X140284004Y-66785897D01*
X140232344Y-66846510D01*
X140224103Y-66834004D01*
X140105744Y-66733128D01*
X139963968Y-66669219D01*
X139810000Y-66647339D01*
X138110000Y-66647339D01*
X138022415Y-66654323D01*
X137873860Y-66700328D01*
X137744004Y-66785897D01*
X137692344Y-66846510D01*
X137684103Y-66834004D01*
X137565744Y-66733128D01*
X137423968Y-66669219D01*
X137270000Y-66647339D01*
X135570000Y-66647339D01*
X135482415Y-66654323D01*
X135333860Y-66700328D01*
X135204004Y-66785897D01*
X135103128Y-66904256D01*
X135039219Y-67046032D01*
X135017339Y-67200000D01*
X130982661Y-67200000D01*
X130975677Y-67112415D01*
X130929672Y-66963860D01*
X130844103Y-66834004D01*
X130725744Y-66733128D01*
X130583968Y-66669219D01*
X130430000Y-66647339D01*
X128730000Y-66647339D01*
X128642415Y-66654323D01*
X128493860Y-66700328D01*
X128364004Y-66785897D01*
X128312344Y-66846510D01*
X128304103Y-66834004D01*
X128185744Y-66733128D01*
X128043968Y-66669219D01*
X127890000Y-66647339D01*
X126190000Y-66647339D01*
X126102415Y-66654323D01*
X125953860Y-66700328D01*
X125824004Y-66785897D01*
X125772344Y-66846510D01*
X125764103Y-66834004D01*
X125645744Y-66733128D01*
X125503968Y-66669219D01*
X125350000Y-66647339D01*
X123650000Y-66647339D01*
X123562415Y-66654323D01*
X123413860Y-66700328D01*
X123284004Y-66785897D01*
X123232344Y-66846510D01*
X123224103Y-66834004D01*
X123105744Y-66733128D01*
X122963968Y-66669219D01*
X122810000Y-66647339D01*
X121110000Y-66647339D01*
X121022415Y-66654323D01*
X120873860Y-66700328D01*
X120744004Y-66785897D01*
X120692344Y-66846510D01*
X120684103Y-66834004D01*
X120565744Y-66733128D01*
X120423968Y-66669219D01*
X120270000Y-66647339D01*
X118570000Y-66647339D01*
X118482415Y-66654323D01*
X118333860Y-66700328D01*
X118204004Y-66785897D01*
X118103128Y-66904256D01*
X118039219Y-67046032D01*
X118017339Y-67200000D01*
X107913293Y-67200000D01*
X107857507Y-67010456D01*
X107729690Y-66765965D01*
X107556819Y-66550956D01*
X107345477Y-66373620D01*
X107156009Y-66269459D01*
X107329114Y-66177417D01*
X107542911Y-66003049D01*
X107718768Y-65790475D01*
X107849986Y-65547792D01*
X107931568Y-65284244D01*
X107960406Y-65009869D01*
X107935401Y-64735118D01*
X107857507Y-64470456D01*
X107729690Y-64225965D01*
X107556819Y-64010956D01*
X107345477Y-63833620D01*
X107103716Y-63700710D01*
X106840744Y-63617291D01*
X106566577Y-63586538D01*
X106546840Y-63586400D01*
X106533160Y-63586400D01*
X106258590Y-63613322D01*
X105994479Y-63693062D01*
X105750886Y-63822583D01*
X105537089Y-63996951D01*
X105416261Y-64143007D01*
X105416261Y-64136400D01*
X105409277Y-64048815D01*
X105363272Y-63900260D01*
X105277703Y-63770404D01*
X105159344Y-63669528D01*
X105017568Y-63605619D01*
X104863600Y-63583739D01*
X103136400Y-63583739D01*
X103048815Y-63590723D01*
X102900260Y-63636728D01*
X102770404Y-63722297D01*
X102669528Y-63840656D01*
X102605619Y-63982432D01*
X102583739Y-64136400D01*
X102583739Y-65863600D01*
X102590723Y-65951185D01*
X102636728Y-66099740D01*
X102722297Y-66229596D01*
X102840656Y-66330472D01*
X102982432Y-66394381D01*
X103136400Y-66416261D01*
X103145070Y-66416261D01*
X102997089Y-66536951D01*
X102821232Y-66749525D01*
X102690014Y-66992208D01*
X102608432Y-67255756D01*
X102579594Y-67530131D01*
X101190000Y-67530131D01*
X101190000Y-62900560D01*
X133298879Y-62900560D01*
X133298879Y-64099440D01*
X133305863Y-64187025D01*
X133351868Y-64335580D01*
X133437437Y-64465436D01*
X133555796Y-64566312D01*
X133697572Y-64630221D01*
X133851540Y-64652101D01*
X135050420Y-64652101D01*
X135138005Y-64645117D01*
X135286560Y-64599112D01*
X135416416Y-64513543D01*
X135517292Y-64395184D01*
X135533640Y-64358918D01*
X135568972Y-64411797D01*
X135637223Y-64480048D01*
X135717478Y-64533672D01*
X135806652Y-64570610D01*
X135901319Y-64589440D01*
X136291520Y-64589440D01*
X136414020Y-64466940D01*
X136414020Y-63635000D01*
X136684020Y-63635000D01*
X136684020Y-64466940D01*
X136806520Y-64589440D01*
X137196721Y-64589440D01*
X137291388Y-64570610D01*
X137380562Y-64533672D01*
X137443824Y-64491402D01*
X168449517Y-64491402D01*
X168542086Y-64704036D01*
X168790584Y-64819008D01*
X169056737Y-64883291D01*
X169330317Y-64894415D01*
X169600811Y-64851954D01*
X169857823Y-64757536D01*
X169957914Y-64704036D01*
X170050483Y-64491402D01*
X171449517Y-64491402D01*
X171542086Y-64704036D01*
X171790584Y-64819008D01*
X172056737Y-64883291D01*
X172330317Y-64894415D01*
X172600811Y-64851954D01*
X172857823Y-64757536D01*
X172957914Y-64704036D01*
X173050483Y-64491402D01*
X172250000Y-63690919D01*
X171449517Y-64491402D01*
X170050483Y-64491402D01*
X169250000Y-63690919D01*
X168449517Y-64491402D01*
X137443824Y-64491402D01*
X137460817Y-64480048D01*
X137529068Y-64411797D01*
X137582692Y-64331542D01*
X137619630Y-64242368D01*
X137638460Y-64147701D01*
X137638460Y-63757500D01*
X137515960Y-63635000D01*
X136684020Y-63635000D01*
X136414020Y-63635000D01*
X136394020Y-63635000D01*
X136394020Y-63580317D01*
X167855585Y-63580317D01*
X167898046Y-63850811D01*
X167992464Y-64107823D01*
X168045964Y-64207914D01*
X168258598Y-64300483D01*
X169059081Y-63500000D01*
X169440919Y-63500000D01*
X170241402Y-64300483D01*
X170454036Y-64207914D01*
X170569008Y-63959416D01*
X170633291Y-63693263D01*
X170637883Y-63580317D01*
X170855585Y-63580317D01*
X170898046Y-63850811D01*
X170992464Y-64107823D01*
X171045964Y-64207914D01*
X171258598Y-64300483D01*
X172059081Y-63500000D01*
X172440919Y-63500000D01*
X173241402Y-64300483D01*
X173454036Y-64207914D01*
X173569008Y-63959416D01*
X173633291Y-63693263D01*
X173636191Y-63621920D01*
X173798094Y-63621920D01*
X173849426Y-63901608D01*
X173954106Y-64165999D01*
X174108146Y-64405022D01*
X174305679Y-64609573D01*
X174539181Y-64771861D01*
X174799757Y-64885705D01*
X175077484Y-64946767D01*
X175361781Y-64952722D01*
X175641820Y-64903343D01*
X175906936Y-64800512D01*
X176147029Y-64648144D01*
X176352954Y-64452044D01*
X176516868Y-64219681D01*
X176632528Y-63959906D01*
X176695527Y-63682613D01*
X176696374Y-63621920D01*
X176798094Y-63621920D01*
X176849426Y-63901608D01*
X176954106Y-64165999D01*
X177108146Y-64405022D01*
X177305679Y-64609573D01*
X177539181Y-64771861D01*
X177799757Y-64885705D01*
X178077484Y-64946767D01*
X178361781Y-64952722D01*
X178641820Y-64903343D01*
X178906936Y-64800512D01*
X179147029Y-64648144D01*
X179352954Y-64452044D01*
X179516868Y-64219681D01*
X179632528Y-63959906D01*
X179695527Y-63682613D01*
X179696374Y-63621920D01*
X179798094Y-63621920D01*
X179849426Y-63901608D01*
X179954106Y-64165999D01*
X180108146Y-64405022D01*
X180305679Y-64609573D01*
X180539181Y-64771861D01*
X180799757Y-64885705D01*
X181077484Y-64946767D01*
X181361781Y-64952722D01*
X181641820Y-64903343D01*
X181906936Y-64800512D01*
X182147029Y-64648144D01*
X182352954Y-64452044D01*
X182516868Y-64219681D01*
X182632528Y-63959906D01*
X182695527Y-63682613D01*
X182696374Y-63621920D01*
X182798094Y-63621920D01*
X182849426Y-63901608D01*
X182954106Y-64165999D01*
X183108146Y-64405022D01*
X183305679Y-64609573D01*
X183539181Y-64771861D01*
X183799757Y-64885705D01*
X184077484Y-64946767D01*
X184361781Y-64952722D01*
X184641820Y-64903343D01*
X184906936Y-64800512D01*
X185147029Y-64648144D01*
X185352954Y-64452044D01*
X185516868Y-64219681D01*
X185632528Y-63959906D01*
X185695527Y-63682613D01*
X185700062Y-63357820D01*
X185644830Y-63078876D01*
X185536469Y-62815972D01*
X185379107Y-62579123D01*
X185178737Y-62377350D01*
X184942992Y-62218338D01*
X184680851Y-62108144D01*
X184402300Y-62050966D01*
X184117947Y-62048980D01*
X183838624Y-62102264D01*
X183574970Y-62208787D01*
X183337028Y-62364492D01*
X183133861Y-62563448D01*
X182973207Y-62798077D01*
X182861186Y-63059442D01*
X182802064Y-63337588D01*
X182798094Y-63621920D01*
X182696374Y-63621920D01*
X182700062Y-63357820D01*
X182644830Y-63078876D01*
X182536469Y-62815972D01*
X182379107Y-62579123D01*
X182178737Y-62377350D01*
X181942992Y-62218338D01*
X181680851Y-62108144D01*
X181402300Y-62050966D01*
X181117947Y-62048980D01*
X180838624Y-62102264D01*
X180574970Y-62208787D01*
X180337028Y-62364492D01*
X180133861Y-62563448D01*
X179973207Y-62798077D01*
X179861186Y-63059442D01*
X179802064Y-63337588D01*
X179798094Y-63621920D01*
X179696374Y-63621920D01*
X179700062Y-63357820D01*
X179644830Y-63078876D01*
X179536469Y-62815972D01*
X179379107Y-62579123D01*
X179178737Y-62377350D01*
X178942992Y-62218338D01*
X178680851Y-62108144D01*
X178402300Y-62050966D01*
X178117947Y-62048980D01*
X177838624Y-62102264D01*
X177574970Y-62208787D01*
X177337028Y-62364492D01*
X177133861Y-62563448D01*
X176973207Y-62798077D01*
X176861186Y-63059442D01*
X176802064Y-63337588D01*
X176798094Y-63621920D01*
X176696374Y-63621920D01*
X176700062Y-63357820D01*
X176644830Y-63078876D01*
X176536469Y-62815972D01*
X176379107Y-62579123D01*
X176178737Y-62377350D01*
X175942992Y-62218338D01*
X175680851Y-62108144D01*
X175402300Y-62050966D01*
X175117947Y-62048980D01*
X174838624Y-62102264D01*
X174574970Y-62208787D01*
X174337028Y-62364492D01*
X174133861Y-62563448D01*
X173973207Y-62798077D01*
X173861186Y-63059442D01*
X173802064Y-63337588D01*
X173798094Y-63621920D01*
X173636191Y-63621920D01*
X173644415Y-63419683D01*
X173601954Y-63149189D01*
X173507536Y-62892177D01*
X173454036Y-62792086D01*
X173241402Y-62699517D01*
X172440919Y-63500000D01*
X172059081Y-63500000D01*
X171258598Y-62699517D01*
X171045964Y-62792086D01*
X170930992Y-63040584D01*
X170866709Y-63306737D01*
X170855585Y-63580317D01*
X170637883Y-63580317D01*
X170644415Y-63419683D01*
X170601954Y-63149189D01*
X170507536Y-62892177D01*
X170454036Y-62792086D01*
X170241402Y-62699517D01*
X169440919Y-63500000D01*
X169059081Y-63500000D01*
X168258598Y-62699517D01*
X168045964Y-62792086D01*
X167930992Y-63040584D01*
X167866709Y-63306737D01*
X167855585Y-63580317D01*
X136394020Y-63580317D01*
X136394020Y-63365000D01*
X136414020Y-63365000D01*
X136414020Y-62533060D01*
X136684020Y-62533060D01*
X136684020Y-63365000D01*
X137515960Y-63365000D01*
X137638460Y-63242500D01*
X137638460Y-62852299D01*
X137619630Y-62757632D01*
X137582692Y-62668458D01*
X137529068Y-62588203D01*
X137460817Y-62519952D01*
X137443825Y-62508598D01*
X168449517Y-62508598D01*
X169250000Y-63309081D01*
X170050483Y-62508598D01*
X171449517Y-62508598D01*
X172250000Y-63309081D01*
X173050483Y-62508598D01*
X172957914Y-62295964D01*
X172709416Y-62180992D01*
X172443263Y-62116709D01*
X172169683Y-62105585D01*
X171899189Y-62148046D01*
X171642177Y-62242464D01*
X171542086Y-62295964D01*
X171449517Y-62508598D01*
X170050483Y-62508598D01*
X169957914Y-62295964D01*
X169709416Y-62180992D01*
X169443263Y-62116709D01*
X169169683Y-62105585D01*
X168899189Y-62148046D01*
X168642177Y-62242464D01*
X168542086Y-62295964D01*
X168449517Y-62508598D01*
X137443825Y-62508598D01*
X137380562Y-62466328D01*
X137291388Y-62429390D01*
X137196721Y-62410560D01*
X136806520Y-62410560D01*
X136684020Y-62533060D01*
X136414020Y-62533060D01*
X136291520Y-62410560D01*
X135901319Y-62410560D01*
X135806652Y-62429390D01*
X135717478Y-62466328D01*
X135637223Y-62519952D01*
X135568972Y-62588203D01*
X135534180Y-62640273D01*
X135464523Y-62534564D01*
X135346164Y-62433688D01*
X135204388Y-62369779D01*
X135050420Y-62347899D01*
X133851540Y-62347899D01*
X133763955Y-62354883D01*
X133615400Y-62400888D01*
X133485544Y-62486457D01*
X133384668Y-62604816D01*
X133320759Y-62746592D01*
X133298879Y-62900560D01*
X101190000Y-62900560D01*
X101190000Y-59319514D01*
X101195005Y-59319514D01*
X101329531Y-60052490D01*
X101603864Y-60745377D01*
X102007555Y-61371783D01*
X102525227Y-61907848D01*
X103137163Y-62333154D01*
X103820054Y-62631502D01*
X104547888Y-62791527D01*
X105292943Y-62807133D01*
X106026840Y-62677727D01*
X106721625Y-62408238D01*
X107350834Y-62008930D01*
X107890500Y-61495013D01*
X108320068Y-60886061D01*
X108623176Y-60205270D01*
X108788278Y-59478571D01*
X108800163Y-58627391D01*
X108655416Y-57896365D01*
X108371436Y-57207376D01*
X107959038Y-56586668D01*
X107433931Y-56057882D01*
X106816117Y-55641161D01*
X106129128Y-55352378D01*
X105399130Y-55202531D01*
X104653930Y-55197328D01*
X103921911Y-55336968D01*
X103230956Y-55616132D01*
X102607384Y-56024186D01*
X102074946Y-56545588D01*
X101653922Y-57160478D01*
X101360349Y-57845435D01*
X101205409Y-58574368D01*
X101195005Y-59319514D01*
X101190000Y-59319514D01*
X101190000Y-57133595D01*
X101193015Y-57102982D01*
X101199222Y-57082522D01*
X101209301Y-57063664D01*
X101228822Y-57039878D01*
X103041203Y-55227497D01*
X103059951Y-55211484D01*
X103074591Y-55202513D01*
X103090454Y-55195942D01*
X103107151Y-55191934D01*
X103131722Y-55190000D01*
X107368278Y-55190000D01*
X107392849Y-55191934D01*
X107392849Y-55191934D01*
G37*
X107392849Y-55191934D02*
X107409546Y-55195942D01*
X107425409Y-55202513D01*
X107440049Y-55211484D01*
X107458797Y-55227497D01*
X109271178Y-57039878D01*
X109290699Y-57063664D01*
X109300778Y-57082522D01*
X109306985Y-57102982D01*
X109310000Y-57133595D01*
X109310000Y-59875736D01*
X109310915Y-59894358D01*
X109316679Y-59952885D01*
X109323946Y-59989418D01*
X109341018Y-60045696D01*
X109355271Y-60080106D01*
X109382994Y-60131972D01*
X109403687Y-60162942D01*
X109440996Y-60208403D01*
X109453518Y-60222218D01*
X111277782Y-62046482D01*
X111288736Y-62056608D01*
X111324532Y-62087181D01*
X111348654Y-62104707D01*
X111388793Y-62129304D01*
X111415357Y-62142839D01*
X111458849Y-62160854D01*
X111487203Y-62170067D01*
X111532978Y-62181057D01*
X111562429Y-62185721D01*
X111609359Y-62189414D01*
X111624264Y-62190000D01*
X137875736Y-62190000D01*
X137890641Y-62189414D01*
X137937571Y-62185721D01*
X137967022Y-62181057D01*
X138012797Y-62170067D01*
X138041151Y-62160854D01*
X138084643Y-62142839D01*
X138111207Y-62129304D01*
X138151346Y-62104707D01*
X138175468Y-62087181D01*
X138211264Y-62056608D01*
X138222218Y-62046482D01*
X140046482Y-60222218D01*
X140059004Y-60208403D01*
X140096313Y-60162942D01*
X140117006Y-60131972D01*
X140144729Y-60080106D01*
X140158982Y-60045696D01*
X140176054Y-59989418D01*
X140183321Y-59952885D01*
X140189085Y-59894358D01*
X140190000Y-59875736D01*
X140190000Y-59636400D01*
X144083739Y-59636400D01*
X144083739Y-61363600D01*
X144090723Y-61451185D01*
X144136728Y-61599740D01*
X144222297Y-61729596D01*
X144340656Y-61830472D01*
X144482432Y-61894381D01*
X144636400Y-61916261D01*
X146363600Y-61916261D01*
X146451185Y-61909277D01*
X146599740Y-61863272D01*
X146729596Y-61777703D01*
X146830472Y-61659344D01*
X146894381Y-61517568D01*
X146916261Y-61363600D01*
X146916261Y-61354930D01*
X147036951Y-61502911D01*
X147249525Y-61678768D01*
X147492208Y-61809986D01*
X147755756Y-61891568D01*
X148030131Y-61920406D01*
X148304882Y-61895401D01*
X148569544Y-61817507D01*
X148814035Y-61689690D01*
X149029044Y-61516819D01*
X149206380Y-61305477D01*
X149310541Y-61116009D01*
X149402583Y-61289114D01*
X149576951Y-61502911D01*
X149789525Y-61678768D01*
X150032208Y-61809986D01*
X150295756Y-61891568D01*
X150570131Y-61920406D01*
X150844882Y-61895401D01*
X151109544Y-61817507D01*
X151354035Y-61689690D01*
X151569044Y-61516819D01*
X151746380Y-61305477D01*
X151879290Y-61063716D01*
X151885297Y-61044779D01*
X151903117Y-61092826D01*
X152042154Y-61318837D01*
X152222612Y-61513381D01*
X152437556Y-61668981D01*
X152678726Y-61779658D01*
X152775968Y-61809150D01*
X152985000Y-61723676D01*
X152985000Y-60635000D01*
X153255000Y-60635000D01*
X153255000Y-61723676D01*
X153464032Y-61809150D01*
X153561274Y-61779658D01*
X153802444Y-61668981D01*
X154017388Y-61513381D01*
X154197846Y-61318837D01*
X154336883Y-61092826D01*
X154374256Y-60992057D01*
X159651620Y-60992057D01*
X159652349Y-60999771D01*
X159662210Y-61096855D01*
X159672155Y-61146177D01*
X159681405Y-61195608D01*
X159683619Y-61203034D01*
X159712149Y-61296353D01*
X159731470Y-61342769D01*
X159750162Y-61389501D01*
X159753776Y-61396356D01*
X159799889Y-61482356D01*
X159827870Y-61524152D01*
X159855268Y-61566342D01*
X159860144Y-61572364D01*
X159922083Y-61647770D01*
X159938545Y-61664231D01*
X159953066Y-61682422D01*
X159958507Y-61687939D01*
X160312061Y-62041493D01*
X160312129Y-62041549D01*
X160313413Y-62042842D01*
X160315890Y-62045302D01*
X160334685Y-62060632D01*
X160351719Y-62077906D01*
X160357707Y-62082824D01*
X160433544Y-62144236D01*
X160475527Y-62171919D01*
X160517145Y-62200202D01*
X160523974Y-62203863D01*
X160610294Y-62249374D01*
X160656881Y-62268386D01*
X160703171Y-62288035D01*
X160710582Y-62290301D01*
X160804098Y-62318179D01*
X160853474Y-62327776D01*
X160902710Y-62338063D01*
X160910419Y-62338846D01*
X161007569Y-62348030D01*
X161057883Y-62347854D01*
X161108178Y-62348381D01*
X161115881Y-62347652D01*
X161115886Y-62347652D01*
X161115890Y-62347651D01*
X161115892Y-62347651D01*
X161212977Y-62337789D01*
X161262263Y-62327851D01*
X161311725Y-62318595D01*
X161319151Y-62316381D01*
X161412470Y-62287851D01*
X161458886Y-62268530D01*
X161505618Y-62249838D01*
X161512473Y-62246224D01*
X161598473Y-62200111D01*
X161640269Y-62172130D01*
X161682459Y-62144732D01*
X161688481Y-62139856D01*
X161763887Y-62077917D01*
X161780348Y-62061455D01*
X161798539Y-62046934D01*
X161804056Y-62041493D01*
X163041493Y-60804056D01*
X163041558Y-60803977D01*
X163042841Y-60802703D01*
X163045301Y-60800226D01*
X163060631Y-60781431D01*
X163077905Y-60764397D01*
X163082823Y-60758409D01*
X163144235Y-60682572D01*
X163171918Y-60640589D01*
X163200201Y-60598971D01*
X163203862Y-60592142D01*
X163249373Y-60505822D01*
X163268382Y-60459243D01*
X163288032Y-60412950D01*
X163290298Y-60405540D01*
X163318177Y-60312024D01*
X163327772Y-60262660D01*
X163338063Y-60213401D01*
X163338846Y-60205691D01*
X163348029Y-60108541D01*
X163347853Y-60058270D01*
X163348380Y-60007944D01*
X163347651Y-60000229D01*
X163337790Y-59903146D01*
X163327846Y-59853830D01*
X163318595Y-59804393D01*
X163316381Y-59796966D01*
X163287851Y-59703647D01*
X163268518Y-59657203D01*
X163249838Y-59610499D01*
X163246224Y-59603645D01*
X163200111Y-59517644D01*
X163172130Y-59475848D01*
X163144732Y-59433658D01*
X163139855Y-59427636D01*
X163078032Y-59352370D01*
X169347305Y-59352370D01*
X169419879Y-59747791D01*
X169567874Y-60121585D01*
X169785655Y-60459514D01*
X170064926Y-60748707D01*
X170395049Y-60978149D01*
X170763450Y-61139099D01*
X171156097Y-61225429D01*
X171558035Y-61233848D01*
X171953953Y-61164037D01*
X172328771Y-61018654D01*
X172668213Y-60803238D01*
X172959348Y-60525994D01*
X173191089Y-60197480D01*
X173354608Y-59830211D01*
X173443676Y-59438176D01*
X173444874Y-59352370D01*
X180047305Y-59352370D01*
X180119879Y-59747791D01*
X180267874Y-60121585D01*
X180485655Y-60459514D01*
X180764926Y-60748707D01*
X181095049Y-60978149D01*
X181463450Y-61139099D01*
X181856097Y-61225429D01*
X182258035Y-61233848D01*
X182653953Y-61164037D01*
X183028771Y-61018654D01*
X183368213Y-60803238D01*
X183659348Y-60525994D01*
X183891089Y-60197480D01*
X184054608Y-59830211D01*
X184143676Y-59438176D01*
X184145332Y-59319514D01*
X191195005Y-59319514D01*
X191329531Y-60052490D01*
X191603864Y-60745377D01*
X192007555Y-61371783D01*
X192525227Y-61907848D01*
X193137163Y-62333154D01*
X193820054Y-62631502D01*
X194547888Y-62791527D01*
X195292943Y-62807133D01*
X196026840Y-62677727D01*
X196721625Y-62408238D01*
X197350834Y-62008930D01*
X197890500Y-61495013D01*
X198320068Y-60886061D01*
X198623176Y-60205270D01*
X198788278Y-59478571D01*
X198800163Y-58627391D01*
X198655416Y-57896365D01*
X198371436Y-57207376D01*
X197959038Y-56586668D01*
X197433931Y-56057882D01*
X196816117Y-55641161D01*
X196129128Y-55352378D01*
X195399130Y-55202531D01*
X194653930Y-55197328D01*
X193921911Y-55336968D01*
X193230956Y-55616132D01*
X192607384Y-56024186D01*
X192074946Y-56545588D01*
X191653922Y-57160478D01*
X191360349Y-57845435D01*
X191205409Y-58574368D01*
X191195005Y-59319514D01*
X184145332Y-59319514D01*
X184150088Y-58978987D01*
X184072001Y-58584618D01*
X183918801Y-58212927D01*
X183696323Y-57878071D01*
X183413042Y-57592805D01*
X183079747Y-57367995D01*
X182709135Y-57212204D01*
X182315320Y-57131365D01*
X181913304Y-57128559D01*
X181518399Y-57203891D01*
X181145648Y-57354492D01*
X180809247Y-57574627D01*
X180522010Y-57855910D01*
X180294879Y-58187626D01*
X180136504Y-58557143D01*
X180052919Y-58950383D01*
X180047305Y-59352370D01*
X173444874Y-59352370D01*
X173450088Y-58978987D01*
X173372001Y-58584618D01*
X173218801Y-58212927D01*
X172996323Y-57878071D01*
X172713042Y-57592805D01*
X172379747Y-57367995D01*
X172009135Y-57212204D01*
X171615320Y-57131365D01*
X171213304Y-57128559D01*
X170818399Y-57203891D01*
X170445648Y-57354492D01*
X170109247Y-57574627D01*
X169822010Y-57855910D01*
X169594879Y-58187626D01*
X169436504Y-58557143D01*
X169352919Y-58950383D01*
X169347305Y-59352370D01*
X163078032Y-59352370D01*
X163077917Y-59352230D01*
X163061459Y-59335773D01*
X163046935Y-59317578D01*
X163041493Y-59312061D01*
X162687939Y-58958507D01*
X162687871Y-58958451D01*
X162686587Y-58957158D01*
X162684110Y-58954698D01*
X162665315Y-58939368D01*
X162648281Y-58922094D01*
X162642293Y-58917176D01*
X162566457Y-58855765D01*
X162524489Y-58828092D01*
X162482856Y-58799799D01*
X162476026Y-58796137D01*
X162389706Y-58750626D01*
X162343160Y-58731631D01*
X162296829Y-58711965D01*
X162289418Y-58709699D01*
X162195902Y-58681821D01*
X162146526Y-58672224D01*
X162097290Y-58661937D01*
X162089580Y-58661154D01*
X161992431Y-58651970D01*
X161942118Y-58652146D01*
X161891823Y-58651619D01*
X161884108Y-58652348D01*
X161787024Y-58662211D01*
X161737744Y-58672148D01*
X161688276Y-58681405D01*
X161680849Y-58683619D01*
X161587530Y-58712149D01*
X161541086Y-58731482D01*
X161494382Y-58750162D01*
X161487535Y-58753772D01*
X161487531Y-58753774D01*
X161487528Y-58753776D01*
X161401527Y-58799889D01*
X161359731Y-58827870D01*
X161317541Y-58855268D01*
X161311519Y-58860145D01*
X161236113Y-58922083D01*
X161219652Y-58938545D01*
X161201461Y-58953066D01*
X161195944Y-58958507D01*
X159958507Y-60195944D01*
X159958442Y-60196023D01*
X159957159Y-60197297D01*
X159954699Y-60199774D01*
X159939369Y-60218569D01*
X159922095Y-60235603D01*
X159917177Y-60241591D01*
X159855766Y-60317427D01*
X159828093Y-60359395D01*
X159799800Y-60401028D01*
X159796138Y-60407858D01*
X159750627Y-60494178D01*
X159731630Y-60540729D01*
X159711968Y-60587050D01*
X159709702Y-60594461D01*
X159681823Y-60687976D01*
X159672226Y-60737348D01*
X159661937Y-60786600D01*
X159661154Y-60794309D01*
X159651971Y-60891459D01*
X159652147Y-60941731D01*
X159651620Y-60992057D01*
X154374256Y-60992057D01*
X154429156Y-60844033D01*
X154344357Y-60635000D01*
X153255000Y-60635000D01*
X152985000Y-60635000D01*
X152965000Y-60635000D01*
X152965000Y-60365000D01*
X152985000Y-60365000D01*
X152985000Y-59276324D01*
X152871712Y-59230000D01*
X152985000Y-59183676D01*
X152985000Y-58095000D01*
X153255000Y-58095000D01*
X153255000Y-59183676D01*
X153368288Y-59230000D01*
X153255000Y-59276324D01*
X153255000Y-60365000D01*
X154344357Y-60365000D01*
X154429156Y-60155967D01*
X154336883Y-59907174D01*
X154197846Y-59681163D01*
X154017388Y-59486619D01*
X153802444Y-59331019D01*
X153582319Y-59230000D01*
X153802444Y-59128981D01*
X154017388Y-58973381D01*
X154197846Y-58778837D01*
X154336883Y-58552826D01*
X154429156Y-58304033D01*
X154344357Y-58095000D01*
X153255000Y-58095000D01*
X152985000Y-58095000D01*
X152965000Y-58095000D01*
X152965000Y-57992057D01*
X156651620Y-57992057D01*
X156652349Y-57999771D01*
X156662210Y-58096855D01*
X156672155Y-58146177D01*
X156681405Y-58195608D01*
X156683619Y-58203034D01*
X156712149Y-58296353D01*
X156731470Y-58342769D01*
X156750162Y-58389501D01*
X156753776Y-58396356D01*
X156799889Y-58482356D01*
X156827870Y-58524152D01*
X156855268Y-58566342D01*
X156860144Y-58572364D01*
X156922083Y-58647770D01*
X156938545Y-58664231D01*
X156953066Y-58682422D01*
X156958507Y-58687939D01*
X157312061Y-59041493D01*
X157312129Y-59041549D01*
X157313413Y-59042842D01*
X157315890Y-59045302D01*
X157334685Y-59060632D01*
X157351719Y-59077906D01*
X157357707Y-59082824D01*
X157433544Y-59144236D01*
X157475527Y-59171919D01*
X157517145Y-59200202D01*
X157523974Y-59203863D01*
X157610294Y-59249374D01*
X157656881Y-59268386D01*
X157703171Y-59288035D01*
X157710582Y-59290301D01*
X157804098Y-59318179D01*
X157853474Y-59327776D01*
X157902710Y-59338063D01*
X157910419Y-59338846D01*
X158007569Y-59348030D01*
X158057883Y-59347854D01*
X158108178Y-59348381D01*
X158115881Y-59347652D01*
X158115886Y-59347652D01*
X158115890Y-59347651D01*
X158115892Y-59347651D01*
X158212977Y-59337789D01*
X158262263Y-59327851D01*
X158311725Y-59318595D01*
X158319151Y-59316381D01*
X158412470Y-59287851D01*
X158458886Y-59268530D01*
X158505618Y-59249838D01*
X158512473Y-59246224D01*
X158598473Y-59200111D01*
X158640269Y-59172130D01*
X158682459Y-59144732D01*
X158688481Y-59139856D01*
X158763887Y-59077917D01*
X158780348Y-59061455D01*
X158798539Y-59046934D01*
X158804056Y-59041493D01*
X160041493Y-57804056D01*
X160041558Y-57803977D01*
X160042841Y-57802703D01*
X160045301Y-57800226D01*
X160060631Y-57781431D01*
X160077905Y-57764397D01*
X160082823Y-57758409D01*
X160144235Y-57682572D01*
X160171918Y-57640589D01*
X160200201Y-57598971D01*
X160203862Y-57592142D01*
X160249373Y-57505822D01*
X160268382Y-57459243D01*
X160288032Y-57412950D01*
X160290298Y-57405540D01*
X160318177Y-57312024D01*
X160327772Y-57262660D01*
X160329120Y-57256204D01*
X163434715Y-57256204D01*
X163487307Y-57435338D01*
X163679633Y-57517387D01*
X163884271Y-57560338D01*
X164093357Y-57562542D01*
X164298855Y-57523913D01*
X164492868Y-57445934D01*
X164512693Y-57435338D01*
X164565285Y-57256204D01*
X164000000Y-56690919D01*
X163434715Y-57256204D01*
X160329120Y-57256204D01*
X160338063Y-57213401D01*
X160338846Y-57205691D01*
X160348029Y-57108541D01*
X160347853Y-57058270D01*
X160348380Y-57007944D01*
X160347651Y-57000229D01*
X160337790Y-56903146D01*
X160327846Y-56853830D01*
X160318595Y-56804393D01*
X160316381Y-56796966D01*
X160287851Y-56703647D01*
X160268518Y-56657203D01*
X160249838Y-56610499D01*
X160246224Y-56603645D01*
X160240708Y-56593357D01*
X162937458Y-56593357D01*
X162976087Y-56798855D01*
X163054066Y-56992868D01*
X163064662Y-57012693D01*
X163243796Y-57065285D01*
X163809081Y-56500000D01*
X164190919Y-56500000D01*
X164756204Y-57065285D01*
X164935338Y-57012693D01*
X165017387Y-56820367D01*
X165060338Y-56615729D01*
X165062542Y-56406643D01*
X165023913Y-56201145D01*
X164945934Y-56007132D01*
X164935338Y-55987307D01*
X164756204Y-55934715D01*
X164190919Y-56500000D01*
X163809081Y-56500000D01*
X163243796Y-55934715D01*
X163064662Y-55987307D01*
X162982613Y-56179633D01*
X162939662Y-56384271D01*
X162937458Y-56593357D01*
X160240708Y-56593357D01*
X160200111Y-56517644D01*
X160172130Y-56475848D01*
X160144732Y-56433658D01*
X160139855Y-56427636D01*
X160077917Y-56352230D01*
X160061459Y-56335773D01*
X160046935Y-56317578D01*
X160041493Y-56312061D01*
X159687939Y-55958507D01*
X159687871Y-55958451D01*
X159686587Y-55957158D01*
X159684110Y-55954698D01*
X159665315Y-55939368D01*
X159648281Y-55922094D01*
X159642293Y-55917176D01*
X159566457Y-55855765D01*
X159524489Y-55828092D01*
X159482856Y-55799799D01*
X159476026Y-55796137D01*
X159389706Y-55750626D01*
X159372970Y-55743796D01*
X163434715Y-55743796D01*
X164000000Y-56309081D01*
X164565285Y-55743796D01*
X164512693Y-55564662D01*
X164320367Y-55482613D01*
X164115729Y-55439662D01*
X163906643Y-55437458D01*
X163701145Y-55476087D01*
X163507132Y-55554066D01*
X163487307Y-55564662D01*
X163434715Y-55743796D01*
X159372970Y-55743796D01*
X159343160Y-55731631D01*
X159296829Y-55711965D01*
X159289418Y-55709699D01*
X159195902Y-55681821D01*
X159146526Y-55672224D01*
X159097290Y-55661937D01*
X159089580Y-55661154D01*
X158992431Y-55651970D01*
X158942118Y-55652146D01*
X158891823Y-55651619D01*
X158884108Y-55652348D01*
X158787024Y-55662211D01*
X158737744Y-55672148D01*
X158688276Y-55681405D01*
X158680849Y-55683619D01*
X158587530Y-55712149D01*
X158541086Y-55731482D01*
X158494382Y-55750162D01*
X158487535Y-55753772D01*
X158487531Y-55753774D01*
X158487528Y-55753776D01*
X158401527Y-55799889D01*
X158359731Y-55827870D01*
X158317541Y-55855268D01*
X158311519Y-55860145D01*
X158236113Y-55922083D01*
X158219652Y-55938545D01*
X158201461Y-55953066D01*
X158195944Y-55958507D01*
X156958507Y-57195944D01*
X156958442Y-57196023D01*
X156957159Y-57197297D01*
X156954699Y-57199774D01*
X156939369Y-57218569D01*
X156922095Y-57235603D01*
X156917177Y-57241591D01*
X156855766Y-57317427D01*
X156828093Y-57359395D01*
X156799800Y-57401028D01*
X156796138Y-57407858D01*
X156750627Y-57494178D01*
X156731630Y-57540729D01*
X156711968Y-57587050D01*
X156709702Y-57594461D01*
X156681823Y-57687976D01*
X156672226Y-57737348D01*
X156661937Y-57786600D01*
X156661154Y-57794309D01*
X156651971Y-57891459D01*
X156652147Y-57941731D01*
X156651620Y-57992057D01*
X152965000Y-57992057D01*
X152965000Y-57825000D01*
X152985000Y-57825000D01*
X152985000Y-56736324D01*
X153255000Y-56736324D01*
X153255000Y-57825000D01*
X154344357Y-57825000D01*
X154429156Y-57615967D01*
X154336883Y-57367174D01*
X154197846Y-57141163D01*
X154017388Y-56946619D01*
X153802444Y-56791019D01*
X153561274Y-56680342D01*
X153464032Y-56650850D01*
X153255000Y-56736324D01*
X152985000Y-56736324D01*
X152775968Y-56650850D01*
X152678726Y-56680342D01*
X152437556Y-56791019D01*
X152222612Y-56946619D01*
X152042154Y-57141163D01*
X151903117Y-57367174D01*
X151886134Y-57412966D01*
X151757417Y-57170886D01*
X151583049Y-56957089D01*
X151370475Y-56781232D01*
X151127792Y-56650014D01*
X150864244Y-56568432D01*
X150589869Y-56539594D01*
X150315118Y-56564599D01*
X150050456Y-56642493D01*
X149805965Y-56770310D01*
X149590956Y-56943181D01*
X149413620Y-57154523D01*
X149309459Y-57343991D01*
X149217417Y-57170886D01*
X149043049Y-56957089D01*
X148830475Y-56781232D01*
X148587792Y-56650014D01*
X148324244Y-56568432D01*
X148049869Y-56539594D01*
X147775118Y-56564599D01*
X147510456Y-56642493D01*
X147265965Y-56770310D01*
X147050956Y-56943181D01*
X146873620Y-57154523D01*
X146769459Y-57343991D01*
X146677417Y-57170886D01*
X146503049Y-56957089D01*
X146290475Y-56781232D01*
X146047792Y-56650014D01*
X145784244Y-56568432D01*
X145509869Y-56539594D01*
X145235118Y-56564599D01*
X144970456Y-56642493D01*
X144725965Y-56770310D01*
X144510956Y-56943181D01*
X144333620Y-57154523D01*
X144200710Y-57396284D01*
X144117291Y-57659256D01*
X144086538Y-57933423D01*
X144086400Y-57953160D01*
X144086400Y-57966840D01*
X144113322Y-58241410D01*
X144193062Y-58505521D01*
X144322583Y-58749114D01*
X144496951Y-58962911D01*
X144643007Y-59083739D01*
X144636400Y-59083739D01*
X144548815Y-59090723D01*
X144400260Y-59136728D01*
X144270404Y-59222297D01*
X144169528Y-59340656D01*
X144105619Y-59482432D01*
X144083739Y-59636400D01*
X140190000Y-59636400D01*
X140190000Y-57133595D01*
X140193015Y-57102982D01*
X140199222Y-57082522D01*
X140209301Y-57063664D01*
X140228822Y-57039878D01*
X142041203Y-55227497D01*
X142059951Y-55211484D01*
X142074591Y-55202513D01*
X142090454Y-55195942D01*
X142107151Y-55191934D01*
X142131722Y-55190000D01*
X196868278Y-55190000D01*
X196892849Y-55191934D01*
X196909546Y-55195942D01*
X196925409Y-55202513D01*
X196940049Y-55211484D01*
X196958797Y-55227497D01*
X198771178Y-57039878D01*
X198790699Y-57063664D01*
X198800778Y-57082522D01*
X198806985Y-57102982D01*
X198810000Y-57133595D01*
X198810000Y-110866405D01*
X198806985Y-110897018D01*
X198800778Y-110917478D01*
X198790699Y-110936336D01*
X198771178Y-110960122D01*
X196960122Y-112771178D01*
X196936336Y-112790699D01*
X196917478Y-112800778D01*
X196897018Y-112806985D01*
X196866405Y-112810000D01*
X177734611Y-112810000D01*
X177869184Y-112681848D01*
X178072663Y-112393397D01*
X178216241Y-112070917D01*
X178294447Y-111726691D01*
X178300077Y-111323501D01*
X178231512Y-110977226D01*
X178096995Y-110650863D01*
X177901649Y-110356843D01*
X177652915Y-110106366D01*
X177360266Y-109908972D01*
X177034850Y-109772179D01*
X176689062Y-109701199D01*
X176336072Y-109698735D01*
X175989326Y-109764880D01*
X175662032Y-109897116D01*
X175366656Y-110090404D01*
X175114449Y-110337384D01*
X174915016Y-110628648D01*
X174775955Y-110953101D01*
X174702563Y-111298385D01*
X174697634Y-111651349D01*
X174761357Y-111998548D01*
X174891305Y-112326757D01*
X175082527Y-112623476D01*
X175262651Y-112810000D01*
X156734611Y-112810000D01*
X156869184Y-112681848D01*
X157072663Y-112393397D01*
X157216241Y-112070917D01*
X157294447Y-111726691D01*
X157300077Y-111323501D01*
X157231512Y-110977226D01*
X157096995Y-110650863D01*
X156901649Y-110356843D01*
X156652915Y-110106366D01*
X156360266Y-109908972D01*
X156034850Y-109772179D01*
X155689062Y-109701199D01*
X155336072Y-109698735D01*
X154989326Y-109764880D01*
X154662032Y-109897116D01*
X154366656Y-110090404D01*
X154114449Y-110337384D01*
X153915016Y-110628648D01*
X153775955Y-110953101D01*
X153702563Y-111298385D01*
X153697634Y-111651349D01*
X153761357Y-111998548D01*
X153891305Y-112326757D01*
X154082527Y-112623476D01*
X154262651Y-112810000D01*
X134734611Y-112810000D01*
X134869184Y-112681848D01*
X135072663Y-112393397D01*
X135216241Y-112070917D01*
X135294447Y-111726691D01*
X135300077Y-111323501D01*
X135231512Y-110977226D01*
X135096995Y-110650863D01*
X134901649Y-110356843D01*
X134652915Y-110106366D01*
X134360266Y-109908972D01*
X134034850Y-109772179D01*
X133689062Y-109701199D01*
X133336072Y-109698735D01*
X132989326Y-109764880D01*
X132662032Y-109897116D01*
X132366656Y-110090404D01*
X132114449Y-110337384D01*
X131915016Y-110628648D01*
X131775955Y-110953101D01*
X131702563Y-111298385D01*
X131697634Y-111651349D01*
X131761357Y-111998548D01*
X131891305Y-112326757D01*
X132082527Y-112623476D01*
X132262651Y-112810000D01*
X113734611Y-112810000D01*
X113869184Y-112681848D01*
X114072663Y-112393397D01*
X114216241Y-112070917D01*
X114294447Y-111726691D01*
X114300077Y-111323501D01*
X114231512Y-110977226D01*
X114096995Y-110650863D01*
X113901649Y-110356843D01*
X113652915Y-110106366D01*
X113360266Y-109908972D01*
X113034850Y-109772179D01*
X112689062Y-109701199D01*
X112336072Y-109698735D01*
X111989326Y-109764880D01*
X111662032Y-109897116D01*
X111366656Y-110090404D01*
X111114449Y-110337384D01*
X110915016Y-110628648D01*
X110775955Y-110953101D01*
X110702563Y-111298385D01*
X110697634Y-111651349D01*
X110761357Y-111998548D01*
X110891305Y-112326757D01*
X111082527Y-112623476D01*
X111262651Y-112810000D01*
X103133595Y-112810000D01*
X103102982Y-112806985D01*
X103082522Y-112800778D01*
X103063664Y-112790699D01*
X103039878Y-112771178D01*
X101228822Y-110960122D01*
X101209301Y-110936336D01*
X101199222Y-110917478D01*
X101193015Y-110897018D01*
X101190000Y-110866405D01*
X101190000Y-109319514D01*
X101195005Y-109319514D01*
X101329531Y-110052490D01*
X101603864Y-110745377D01*
X102007555Y-111371783D01*
X102525227Y-111907848D01*
X103137163Y-112333154D01*
X103820054Y-112631502D01*
X104547888Y-112791527D01*
X105292943Y-112807133D01*
X106026840Y-112677727D01*
X106721625Y-112408238D01*
X107350834Y-112008930D01*
X107890500Y-111495013D01*
X108320068Y-110886061D01*
X108623176Y-110205270D01*
X108788278Y-109478571D01*
X108790498Y-109319514D01*
X191195005Y-109319514D01*
X191329531Y-110052490D01*
X191603864Y-110745377D01*
X192007555Y-111371783D01*
X192525227Y-111907848D01*
X193137163Y-112333154D01*
X193820054Y-112631502D01*
X194547888Y-112791527D01*
X195292943Y-112807133D01*
X196026840Y-112677727D01*
X196721625Y-112408238D01*
X197350834Y-112008930D01*
X197890500Y-111495013D01*
X198320068Y-110886061D01*
X198623176Y-110205270D01*
X198788278Y-109478571D01*
X198800163Y-108627391D01*
X198655416Y-107896365D01*
X198371436Y-107207376D01*
X197959038Y-106586668D01*
X197433931Y-106057882D01*
X196816117Y-105641161D01*
X196129128Y-105352378D01*
X195399130Y-105202531D01*
X194653930Y-105197328D01*
X193921911Y-105336968D01*
X193230956Y-105616132D01*
X192607384Y-106024186D01*
X192074946Y-106545588D01*
X191653922Y-107160478D01*
X191360349Y-107845435D01*
X191205409Y-108574368D01*
X191195005Y-109319514D01*
X108790498Y-109319514D01*
X108800163Y-108627391D01*
X108655416Y-107896365D01*
X108371436Y-107207376D01*
X108002013Y-106651349D01*
X116197634Y-106651349D01*
X116261357Y-106998548D01*
X116391305Y-107326757D01*
X116582527Y-107623476D01*
X116827740Y-107877401D01*
X117117604Y-108078862D01*
X117441078Y-108220184D01*
X117785842Y-108295986D01*
X118138762Y-108303378D01*
X118486398Y-108242081D01*
X118815506Y-108114428D01*
X119113552Y-107925282D01*
X119306870Y-107741188D01*
X121949731Y-107741188D01*
X122084590Y-107989629D01*
X122392791Y-108139593D01*
X122724327Y-108226550D01*
X123066457Y-108247155D01*
X123406033Y-108200619D01*
X123730006Y-108088729D01*
X123915410Y-107989629D01*
X124050269Y-107741188D01*
X123000000Y-106690919D01*
X121949731Y-107741188D01*
X119306870Y-107741188D01*
X119369184Y-107681848D01*
X119572663Y-107393397D01*
X119716241Y-107070917D01*
X119794447Y-106726691D01*
X119796684Y-106566457D01*
X121252845Y-106566457D01*
X121299381Y-106906033D01*
X121411271Y-107230006D01*
X121510371Y-107415410D01*
X121758812Y-107550269D01*
X122809081Y-106500000D01*
X123190919Y-106500000D01*
X124241188Y-107550269D01*
X124489629Y-107415410D01*
X124639593Y-107107209D01*
X124726550Y-106775673D01*
X124734037Y-106651349D01*
X137197634Y-106651349D01*
X137261357Y-106998548D01*
X137391305Y-107326757D01*
X137582527Y-107623476D01*
X137827740Y-107877401D01*
X138117604Y-108078862D01*
X138441078Y-108220184D01*
X138785842Y-108295986D01*
X139138762Y-108303378D01*
X139486398Y-108242081D01*
X139815506Y-108114428D01*
X140113552Y-107925282D01*
X140306870Y-107741188D01*
X142949731Y-107741188D01*
X143084590Y-107989629D01*
X143392791Y-108139593D01*
X143724327Y-108226550D01*
X144066457Y-108247155D01*
X144406033Y-108200619D01*
X144730006Y-108088729D01*
X144915410Y-107989629D01*
X145050269Y-107741188D01*
X144000000Y-106690919D01*
X142949731Y-107741188D01*
X140306870Y-107741188D01*
X140369184Y-107681848D01*
X140572663Y-107393397D01*
X140716241Y-107070917D01*
X140794447Y-106726691D01*
X140796684Y-106566457D01*
X142252845Y-106566457D01*
X142299381Y-106906033D01*
X142411271Y-107230006D01*
X142510371Y-107415410D01*
X142758812Y-107550269D01*
X143809081Y-106500000D01*
X144190919Y-106500000D01*
X145241188Y-107550269D01*
X145489629Y-107415410D01*
X145639593Y-107107209D01*
X145726550Y-106775673D01*
X145734037Y-106651349D01*
X159197634Y-106651349D01*
X159261357Y-106998548D01*
X159391305Y-107326757D01*
X159582527Y-107623476D01*
X159827740Y-107877401D01*
X160117604Y-108078862D01*
X160441078Y-108220184D01*
X160785842Y-108295986D01*
X161138762Y-108303378D01*
X161486398Y-108242081D01*
X161815506Y-108114428D01*
X162113552Y-107925282D01*
X162306870Y-107741188D01*
X164949731Y-107741188D01*
X165084590Y-107989629D01*
X165392791Y-108139593D01*
X165724327Y-108226550D01*
X166066457Y-108247155D01*
X166406033Y-108200619D01*
X166730006Y-108088729D01*
X166915410Y-107989629D01*
X167050269Y-107741188D01*
X166000000Y-106690919D01*
X164949731Y-107741188D01*
X162306870Y-107741188D01*
X162369184Y-107681848D01*
X162572663Y-107393397D01*
X162716241Y-107070917D01*
X162794447Y-106726691D01*
X162796684Y-106566457D01*
X164252845Y-106566457D01*
X164299381Y-106906033D01*
X164411271Y-107230006D01*
X164510371Y-107415410D01*
X164758812Y-107550269D01*
X165809081Y-106500000D01*
X166190919Y-106500000D01*
X167241188Y-107550269D01*
X167489629Y-107415410D01*
X167639593Y-107107209D01*
X167726550Y-106775673D01*
X167734037Y-106651349D01*
X180197634Y-106651349D01*
X180261357Y-106998548D01*
X180391305Y-107326757D01*
X180582527Y-107623476D01*
X180827740Y-107877401D01*
X181117604Y-108078862D01*
X181441078Y-108220184D01*
X181785842Y-108295986D01*
X182138762Y-108303378D01*
X182486398Y-108242081D01*
X182815506Y-108114428D01*
X183113552Y-107925282D01*
X183306870Y-107741188D01*
X185949731Y-107741188D01*
X186084590Y-107989629D01*
X186392791Y-108139593D01*
X186724327Y-108226550D01*
X187066457Y-108247155D01*
X187406033Y-108200619D01*
X187730006Y-108088729D01*
X187915410Y-107989629D01*
X188050269Y-107741188D01*
X187000000Y-106690919D01*
X185949731Y-107741188D01*
X183306870Y-107741188D01*
X183369184Y-107681848D01*
X183572663Y-107393397D01*
X183716241Y-107070917D01*
X183794447Y-106726691D01*
X183796684Y-106566457D01*
X185252845Y-106566457D01*
X185299381Y-106906033D01*
X185411271Y-107230006D01*
X185510371Y-107415410D01*
X185758812Y-107550269D01*
X186809081Y-106500000D01*
X187190919Y-106500000D01*
X188241188Y-107550269D01*
X188489629Y-107415410D01*
X188639593Y-107107209D01*
X188726550Y-106775673D01*
X188747155Y-106433543D01*
X188700619Y-106093967D01*
X188588729Y-105769994D01*
X188489629Y-105584590D01*
X188241188Y-105449731D01*
X187190919Y-106500000D01*
X186809081Y-106500000D01*
X185758812Y-105449731D01*
X185510371Y-105584590D01*
X185360407Y-105892791D01*
X185273450Y-106224327D01*
X185252845Y-106566457D01*
X183796684Y-106566457D01*
X183800077Y-106323501D01*
X183731512Y-105977226D01*
X183596995Y-105650863D01*
X183401649Y-105356843D01*
X183304301Y-105258812D01*
X185949731Y-105258812D01*
X187000000Y-106309081D01*
X188050269Y-105258812D01*
X187915410Y-105010371D01*
X187607209Y-104860407D01*
X187275673Y-104773450D01*
X186933543Y-104752845D01*
X186593967Y-104799381D01*
X186269994Y-104911271D01*
X186084590Y-105010371D01*
X185949731Y-105258812D01*
X183304301Y-105258812D01*
X183152915Y-105106366D01*
X182860266Y-104908972D01*
X182534850Y-104772179D01*
X182189062Y-104701199D01*
X181836072Y-104698735D01*
X181489326Y-104764880D01*
X181162032Y-104897116D01*
X180866656Y-105090404D01*
X180614449Y-105337384D01*
X180415016Y-105628648D01*
X180275955Y-105953101D01*
X180202563Y-106298385D01*
X180197634Y-106651349D01*
X167734037Y-106651349D01*
X167747155Y-106433543D01*
X167700619Y-106093967D01*
X167588729Y-105769994D01*
X167489629Y-105584590D01*
X167241188Y-105449731D01*
X166190919Y-106500000D01*
X165809081Y-106500000D01*
X164758812Y-105449731D01*
X164510371Y-105584590D01*
X164360407Y-105892791D01*
X164273450Y-106224327D01*
X164252845Y-106566457D01*
X162796684Y-106566457D01*
X162800077Y-106323501D01*
X162731512Y-105977226D01*
X162596995Y-105650863D01*
X162401649Y-105356843D01*
X162304301Y-105258812D01*
X164949731Y-105258812D01*
X166000000Y-106309081D01*
X167050269Y-105258812D01*
X166915410Y-105010371D01*
X166607209Y-104860407D01*
X166275673Y-104773450D01*
X165933543Y-104752845D01*
X165593967Y-104799381D01*
X165269994Y-104911271D01*
X165084590Y-105010371D01*
X164949731Y-105258812D01*
X162304301Y-105258812D01*
X162152915Y-105106366D01*
X161860266Y-104908972D01*
X161534850Y-104772179D01*
X161189062Y-104701199D01*
X160836072Y-104698735D01*
X160489326Y-104764880D01*
X160162032Y-104897116D01*
X159866656Y-105090404D01*
X159614449Y-105337384D01*
X159415016Y-105628648D01*
X159275955Y-105953101D01*
X159202563Y-106298385D01*
X159197634Y-106651349D01*
X145734037Y-106651349D01*
X145747155Y-106433543D01*
X145700619Y-106093967D01*
X145588729Y-105769994D01*
X145489629Y-105584590D01*
X145241188Y-105449731D01*
X144190919Y-106500000D01*
X143809081Y-106500000D01*
X142758812Y-105449731D01*
X142510371Y-105584590D01*
X142360407Y-105892791D01*
X142273450Y-106224327D01*
X142252845Y-106566457D01*
X140796684Y-106566457D01*
X140800077Y-106323501D01*
X140731512Y-105977226D01*
X140596995Y-105650863D01*
X140401649Y-105356843D01*
X140304301Y-105258812D01*
X142949731Y-105258812D01*
X144000000Y-106309081D01*
X145050269Y-105258812D01*
X144915410Y-105010371D01*
X144607209Y-104860407D01*
X144275673Y-104773450D01*
X143933543Y-104752845D01*
X143593967Y-104799381D01*
X143269994Y-104911271D01*
X143084590Y-105010371D01*
X142949731Y-105258812D01*
X140304301Y-105258812D01*
X140152915Y-105106366D01*
X139860266Y-104908972D01*
X139534850Y-104772179D01*
X139189062Y-104701199D01*
X138836072Y-104698735D01*
X138489326Y-104764880D01*
X138162032Y-104897116D01*
X137866656Y-105090404D01*
X137614449Y-105337384D01*
X137415016Y-105628648D01*
X137275955Y-105953101D01*
X137202563Y-106298385D01*
X137197634Y-106651349D01*
X124734037Y-106651349D01*
X124747155Y-106433543D01*
X124700619Y-106093967D01*
X124588729Y-105769994D01*
X124489629Y-105584590D01*
X124241188Y-105449731D01*
X123190919Y-106500000D01*
X122809081Y-106500000D01*
X121758812Y-105449731D01*
X121510371Y-105584590D01*
X121360407Y-105892791D01*
X121273450Y-106224327D01*
X121252845Y-106566457D01*
X119796684Y-106566457D01*
X119800077Y-106323501D01*
X119731512Y-105977226D01*
X119596995Y-105650863D01*
X119401649Y-105356843D01*
X119304301Y-105258812D01*
X121949731Y-105258812D01*
X123000000Y-106309081D01*
X124050269Y-105258812D01*
X123915410Y-105010371D01*
X123607209Y-104860407D01*
X123275673Y-104773450D01*
X122933543Y-104752845D01*
X122593967Y-104799381D01*
X122269994Y-104911271D01*
X122084590Y-105010371D01*
X121949731Y-105258812D01*
X119304301Y-105258812D01*
X119152915Y-105106366D01*
X118860266Y-104908972D01*
X118534850Y-104772179D01*
X118189062Y-104701199D01*
X117836072Y-104698735D01*
X117489326Y-104764880D01*
X117162032Y-104897116D01*
X116866656Y-105090404D01*
X116614449Y-105337384D01*
X116415016Y-105628648D01*
X116275955Y-105953101D01*
X116202563Y-106298385D01*
X116197634Y-106651349D01*
X108002013Y-106651349D01*
X107959038Y-106586668D01*
X107433931Y-106057882D01*
X106816117Y-105641161D01*
X106129128Y-105352378D01*
X105399130Y-105202531D01*
X104653930Y-105197328D01*
X103921911Y-105336968D01*
X103230956Y-105616132D01*
X102607384Y-106024186D01*
X102074946Y-106545588D01*
X101653922Y-107160478D01*
X101360349Y-107845435D01*
X101205409Y-108574368D01*
X101195005Y-109319514D01*
X101190000Y-109319514D01*
X101190000Y-101651349D01*
X121197634Y-101651349D01*
X121261357Y-101998548D01*
X121391305Y-102326757D01*
X121582527Y-102623476D01*
X121827740Y-102877401D01*
X122117604Y-103078862D01*
X122441078Y-103220184D01*
X122785842Y-103295986D01*
X123138762Y-103303378D01*
X123486398Y-103242081D01*
X123815506Y-103114428D01*
X124113552Y-102925282D01*
X124369184Y-102681848D01*
X124572663Y-102393397D01*
X124716241Y-102070917D01*
X124794447Y-101726691D01*
X124795499Y-101651349D01*
X142197634Y-101651349D01*
X142261357Y-101998548D01*
X142391305Y-102326757D01*
X142582527Y-102623476D01*
X142827740Y-102877401D01*
X143117604Y-103078862D01*
X143441078Y-103220184D01*
X143785842Y-103295986D01*
X144138762Y-103303378D01*
X144486398Y-103242081D01*
X144815506Y-103114428D01*
X145113552Y-102925282D01*
X145369184Y-102681848D01*
X145572663Y-102393397D01*
X145716241Y-102070917D01*
X145794447Y-101726691D01*
X145795499Y-101651349D01*
X164197634Y-101651349D01*
X164261357Y-101998548D01*
X164391305Y-102326757D01*
X164582527Y-102623476D01*
X164827740Y-102877401D01*
X165117604Y-103078862D01*
X165441078Y-103220184D01*
X165785842Y-103295986D01*
X166138762Y-103303378D01*
X166486398Y-103242081D01*
X166815506Y-103114428D01*
X167113552Y-102925282D01*
X167369184Y-102681848D01*
X167572663Y-102393397D01*
X167716241Y-102070917D01*
X167794447Y-101726691D01*
X167795499Y-101651349D01*
X185197634Y-101651349D01*
X185261357Y-101998548D01*
X185391305Y-102326757D01*
X185582527Y-102623476D01*
X185827740Y-102877401D01*
X186117604Y-103078862D01*
X186441078Y-103220184D01*
X186785842Y-103295986D01*
X187138762Y-103303378D01*
X187486398Y-103242081D01*
X187815506Y-103114428D01*
X188113552Y-102925282D01*
X188369184Y-102681848D01*
X188572663Y-102393397D01*
X188716241Y-102070917D01*
X188794447Y-101726691D01*
X188800077Y-101323501D01*
X188731512Y-100977226D01*
X188596995Y-100650863D01*
X188401649Y-100356843D01*
X188152915Y-100106366D01*
X187860266Y-99908972D01*
X187534850Y-99772179D01*
X187189062Y-99701199D01*
X186836072Y-99698735D01*
X186489326Y-99764880D01*
X186162032Y-99897116D01*
X185866656Y-100090404D01*
X185614449Y-100337384D01*
X185415016Y-100628648D01*
X185275955Y-100953101D01*
X185202563Y-101298385D01*
X185197634Y-101651349D01*
X167795499Y-101651349D01*
X167800077Y-101323501D01*
X167731512Y-100977226D01*
X167596995Y-100650863D01*
X167401649Y-100356843D01*
X167152915Y-100106366D01*
X166860266Y-99908972D01*
X166534850Y-99772179D01*
X166189062Y-99701199D01*
X165836072Y-99698735D01*
X165489326Y-99764880D01*
X165162032Y-99897116D01*
X164866656Y-100090404D01*
X164614449Y-100337384D01*
X164415016Y-100628648D01*
X164275955Y-100953101D01*
X164202563Y-101298385D01*
X164197634Y-101651349D01*
X145795499Y-101651349D01*
X145800077Y-101323501D01*
X145731512Y-100977226D01*
X145596995Y-100650863D01*
X145401649Y-100356843D01*
X145152915Y-100106366D01*
X144860266Y-99908972D01*
X144534850Y-99772179D01*
X144189062Y-99701199D01*
X143836072Y-99698735D01*
X143489326Y-99764880D01*
X143162032Y-99897116D01*
X142866656Y-100090404D01*
X142614449Y-100337384D01*
X142415016Y-100628648D01*
X142275955Y-100953101D01*
X142202563Y-101298385D01*
X142197634Y-101651349D01*
X124795499Y-101651349D01*
X124800077Y-101323501D01*
X124731512Y-100977226D01*
X124596995Y-100650863D01*
X124401649Y-100356843D01*
X124152915Y-100106366D01*
X123860266Y-99908972D01*
X123534850Y-99772179D01*
X123189062Y-99701199D01*
X122836072Y-99698735D01*
X122489326Y-99764880D01*
X122162032Y-99897116D01*
X121866656Y-100090404D01*
X121614449Y-100337384D01*
X121415016Y-100628648D01*
X121275955Y-100953101D01*
X121202563Y-101298385D01*
X121197634Y-101651349D01*
X101190000Y-101651349D01*
X101190000Y-94800000D01*
X118017339Y-94800000D01*
X118017339Y-98800000D01*
X118024323Y-98887585D01*
X118070328Y-99036140D01*
X118155897Y-99165996D01*
X118274256Y-99266872D01*
X118416032Y-99330781D01*
X118570000Y-99352661D01*
X120270000Y-99352661D01*
X120357585Y-99345677D01*
X120506140Y-99299672D01*
X120635996Y-99214103D01*
X120687656Y-99153490D01*
X120695897Y-99165996D01*
X120814256Y-99266872D01*
X120956032Y-99330781D01*
X121110000Y-99352661D01*
X122810000Y-99352661D01*
X122897585Y-99345677D01*
X123046140Y-99299672D01*
X123175996Y-99214103D01*
X123227656Y-99153490D01*
X123235897Y-99165996D01*
X123354256Y-99266872D01*
X123496032Y-99330781D01*
X123650000Y-99352661D01*
X125350000Y-99352661D01*
X125437585Y-99345677D01*
X125586140Y-99299672D01*
X125715996Y-99214103D01*
X125767656Y-99153490D01*
X125775897Y-99165996D01*
X125894256Y-99266872D01*
X126036032Y-99330781D01*
X126190000Y-99352661D01*
X127890000Y-99352661D01*
X127977585Y-99345677D01*
X128126140Y-99299672D01*
X128255996Y-99214103D01*
X128307656Y-99153490D01*
X128315897Y-99165996D01*
X128434256Y-99266872D01*
X128576032Y-99330781D01*
X128730000Y-99352661D01*
X130430000Y-99352661D01*
X130517585Y-99345677D01*
X130666140Y-99299672D01*
X130795996Y-99214103D01*
X130896872Y-99095744D01*
X130960781Y-98953968D01*
X130982661Y-98800000D01*
X130982661Y-94800000D01*
X135017339Y-94800000D01*
X135017339Y-98800000D01*
X135024323Y-98887585D01*
X135070328Y-99036140D01*
X135155897Y-99165996D01*
X135274256Y-99266872D01*
X135416032Y-99330781D01*
X135570000Y-99352661D01*
X137270000Y-99352661D01*
X137357585Y-99345677D01*
X137506140Y-99299672D01*
X137635996Y-99214103D01*
X137687656Y-99153490D01*
X137695897Y-99165996D01*
X137814256Y-99266872D01*
X137956032Y-99330781D01*
X138110000Y-99352661D01*
X139810000Y-99352661D01*
X139897585Y-99345677D01*
X140046140Y-99299672D01*
X140175996Y-99214103D01*
X140227656Y-99153490D01*
X140235897Y-99165996D01*
X140354256Y-99266872D01*
X140496032Y-99330781D01*
X140650000Y-99352661D01*
X142350000Y-99352661D01*
X142437585Y-99345677D01*
X142586140Y-99299672D01*
X142715996Y-99214103D01*
X142767656Y-99153490D01*
X142775897Y-99165996D01*
X142894256Y-99266872D01*
X143036032Y-99330781D01*
X143190000Y-99352661D01*
X144890000Y-99352661D01*
X144977585Y-99345677D01*
X145126140Y-99299672D01*
X145255996Y-99214103D01*
X145307656Y-99153490D01*
X145315897Y-99165996D01*
X145434256Y-99266872D01*
X145576032Y-99330781D01*
X145730000Y-99352661D01*
X147430000Y-99352661D01*
X147517585Y-99345677D01*
X147666140Y-99299672D01*
X147795996Y-99214103D01*
X147896872Y-99095744D01*
X147960781Y-98953968D01*
X147982661Y-98800000D01*
X147982661Y-94800000D01*
X152017339Y-94800000D01*
X152017339Y-98800000D01*
X152024323Y-98887585D01*
X152070328Y-99036140D01*
X152155897Y-99165996D01*
X152274256Y-99266872D01*
X152416032Y-99330781D01*
X152570000Y-99352661D01*
X154270000Y-99352661D01*
X154357585Y-99345677D01*
X154506140Y-99299672D01*
X154635996Y-99214103D01*
X154687656Y-99153490D01*
X154695897Y-99165996D01*
X154814256Y-99266872D01*
X154956032Y-99330781D01*
X155110000Y-99352661D01*
X156810000Y-99352661D01*
X156897585Y-99345677D01*
X157046140Y-99299672D01*
X157175996Y-99214103D01*
X157227656Y-99153490D01*
X157235897Y-99165996D01*
X157354256Y-99266872D01*
X157496032Y-99330781D01*
X157650000Y-99352661D01*
X159350000Y-99352661D01*
X159437585Y-99345677D01*
X159586140Y-99299672D01*
X159715996Y-99214103D01*
X159767656Y-99153490D01*
X159775897Y-99165996D01*
X159894256Y-99266872D01*
X160036032Y-99330781D01*
X160190000Y-99352661D01*
X161890000Y-99352661D01*
X161977585Y-99345677D01*
X162126140Y-99299672D01*
X162255996Y-99214103D01*
X162307656Y-99153490D01*
X162315897Y-99165996D01*
X162434256Y-99266872D01*
X162576032Y-99330781D01*
X162730000Y-99352661D01*
X164430000Y-99352661D01*
X164517585Y-99345677D01*
X164666140Y-99299672D01*
X164795996Y-99214103D01*
X164896872Y-99095744D01*
X164960781Y-98953968D01*
X164982661Y-98800000D01*
X164982661Y-94800000D01*
X169017339Y-94800000D01*
X169017339Y-98800000D01*
X169024323Y-98887585D01*
X169070328Y-99036140D01*
X169155897Y-99165996D01*
X169274256Y-99266872D01*
X169416032Y-99330781D01*
X169570000Y-99352661D01*
X171270000Y-99352661D01*
X171357585Y-99345677D01*
X171506140Y-99299672D01*
X171635996Y-99214103D01*
X171687656Y-99153490D01*
X171695897Y-99165996D01*
X171814256Y-99266872D01*
X171956032Y-99330781D01*
X172110000Y-99352661D01*
X173810000Y-99352661D01*
X173897585Y-99345677D01*
X174046140Y-99299672D01*
X174175996Y-99214103D01*
X174227656Y-99153490D01*
X174235897Y-99165996D01*
X174354256Y-99266872D01*
X174496032Y-99330781D01*
X174650000Y-99352661D01*
X176350000Y-99352661D01*
X176437585Y-99345677D01*
X176586140Y-99299672D01*
X176715996Y-99214103D01*
X176767656Y-99153490D01*
X176775897Y-99165996D01*
X176894256Y-99266872D01*
X177036032Y-99330781D01*
X177190000Y-99352661D01*
X178890000Y-99352661D01*
X178977585Y-99345677D01*
X179126140Y-99299672D01*
X179255996Y-99214103D01*
X179307656Y-99153490D01*
X179315897Y-99165996D01*
X179434256Y-99266872D01*
X179576032Y-99330781D01*
X179730000Y-99352661D01*
X181430000Y-99352661D01*
X181517585Y-99345677D01*
X181666140Y-99299672D01*
X181795996Y-99214103D01*
X181896872Y-99095744D01*
X181960781Y-98953968D01*
X181982661Y-98800000D01*
X181982661Y-94800000D01*
X181975677Y-94712415D01*
X181929672Y-94563860D01*
X181844103Y-94434004D01*
X181725744Y-94333128D01*
X181583968Y-94269219D01*
X181430000Y-94247339D01*
X179730000Y-94247339D01*
X179642415Y-94254323D01*
X179493860Y-94300328D01*
X179364004Y-94385897D01*
X179312344Y-94446510D01*
X179304103Y-94434004D01*
X179185744Y-94333128D01*
X179043968Y-94269219D01*
X178890000Y-94247339D01*
X177190000Y-94247339D01*
X177102415Y-94254323D01*
X176953860Y-94300328D01*
X176824004Y-94385897D01*
X176772344Y-94446510D01*
X176764103Y-94434004D01*
X176645744Y-94333128D01*
X176503968Y-94269219D01*
X176350000Y-94247339D01*
X174650000Y-94247339D01*
X174562415Y-94254323D01*
X174413860Y-94300328D01*
X174284004Y-94385897D01*
X174232344Y-94446510D01*
X174224103Y-94434004D01*
X174105744Y-94333128D01*
X173963968Y-94269219D01*
X173810000Y-94247339D01*
X172110000Y-94247339D01*
X172022415Y-94254323D01*
X171873860Y-94300328D01*
X171744004Y-94385897D01*
X171692344Y-94446510D01*
X171684103Y-94434004D01*
X171565744Y-94333128D01*
X171423968Y-94269219D01*
X171270000Y-94247339D01*
X169570000Y-94247339D01*
X169482415Y-94254323D01*
X169333860Y-94300328D01*
X169204004Y-94385897D01*
X169103128Y-94504256D01*
X169039219Y-94646032D01*
X169017339Y-94800000D01*
X164982661Y-94800000D01*
X164975677Y-94712415D01*
X164929672Y-94563860D01*
X164844103Y-94434004D01*
X164725744Y-94333128D01*
X164583968Y-94269219D01*
X164430000Y-94247339D01*
X162730000Y-94247339D01*
X162642415Y-94254323D01*
X162493860Y-94300328D01*
X162364004Y-94385897D01*
X162312344Y-94446510D01*
X162304103Y-94434004D01*
X162185744Y-94333128D01*
X162043968Y-94269219D01*
X161890000Y-94247339D01*
X160190000Y-94247339D01*
X160102415Y-94254323D01*
X159953860Y-94300328D01*
X159824004Y-94385897D01*
X159772344Y-94446510D01*
X159764103Y-94434004D01*
X159645744Y-94333128D01*
X159503968Y-94269219D01*
X159350000Y-94247339D01*
X157650000Y-94247339D01*
X157562415Y-94254323D01*
X157413860Y-94300328D01*
X157284004Y-94385897D01*
X157232344Y-94446510D01*
X157224103Y-94434004D01*
X157105744Y-94333128D01*
X156963968Y-94269219D01*
X156810000Y-94247339D01*
X155110000Y-94247339D01*
X155022415Y-94254323D01*
X154873860Y-94300328D01*
X154744004Y-94385897D01*
X154692344Y-94446510D01*
X154684103Y-94434004D01*
X154565744Y-94333128D01*
X154423968Y-94269219D01*
X154270000Y-94247339D01*
X152570000Y-94247339D01*
X152482415Y-94254323D01*
X152333860Y-94300328D01*
X152204004Y-94385897D01*
X152103128Y-94504256D01*
X152039219Y-94646032D01*
X152017339Y-94800000D01*
X147982661Y-94800000D01*
X147975677Y-94712415D01*
X147929672Y-94563860D01*
X147844103Y-94434004D01*
X147725744Y-94333128D01*
X147583968Y-94269219D01*
X147430000Y-94247339D01*
X145730000Y-94247339D01*
X145642415Y-94254323D01*
X145493860Y-94300328D01*
X145364004Y-94385897D01*
X145312344Y-94446510D01*
X145304103Y-94434004D01*
X145185744Y-94333128D01*
X145043968Y-94269219D01*
X144890000Y-94247339D01*
X143190000Y-94247339D01*
X143102415Y-94254323D01*
X142953860Y-94300328D01*
X142824004Y-94385897D01*
X142772344Y-94446510D01*
X142764103Y-94434004D01*
X142645744Y-94333128D01*
X142503968Y-94269219D01*
X142350000Y-94247339D01*
X140650000Y-94247339D01*
X140562415Y-94254323D01*
X140413860Y-94300328D01*
X140284004Y-94385897D01*
X140232344Y-94446510D01*
X140224103Y-94434004D01*
X140105744Y-94333128D01*
X139963968Y-94269219D01*
X139810000Y-94247339D01*
X138110000Y-94247339D01*
X138022415Y-94254323D01*
X137873860Y-94300328D01*
X137744004Y-94385897D01*
X137692344Y-94446510D01*
X137684103Y-94434004D01*
X137565744Y-94333128D01*
X137423968Y-94269219D01*
X137270000Y-94247339D01*
X135570000Y-94247339D01*
X135482415Y-94254323D01*
X135333860Y-94300328D01*
X135204004Y-94385897D01*
X135103128Y-94504256D01*
X135039219Y-94646032D01*
X135017339Y-94800000D01*
X130982661Y-94800000D01*
X130975677Y-94712415D01*
X130929672Y-94563860D01*
X130844103Y-94434004D01*
X130725744Y-94333128D01*
X130583968Y-94269219D01*
X130430000Y-94247339D01*
X128730000Y-94247339D01*
X128642415Y-94254323D01*
X128493860Y-94300328D01*
X128364004Y-94385897D01*
X128312344Y-94446510D01*
X128304103Y-94434004D01*
X128185744Y-94333128D01*
X128043968Y-94269219D01*
X127890000Y-94247339D01*
X126190000Y-94247339D01*
X126102415Y-94254323D01*
X125953860Y-94300328D01*
X125824004Y-94385897D01*
X125772344Y-94446510D01*
X125764103Y-94434004D01*
X125645744Y-94333128D01*
X125503968Y-94269219D01*
X125350000Y-94247339D01*
X123650000Y-94247339D01*
X123562415Y-94254323D01*
X123413860Y-94300328D01*
X123284004Y-94385897D01*
X123232344Y-94446510D01*
X123224103Y-94434004D01*
X123105744Y-94333128D01*
X122963968Y-94269219D01*
X122810000Y-94247339D01*
X121110000Y-94247339D01*
X121022415Y-94254323D01*
X120873860Y-94300328D01*
X120744004Y-94385897D01*
X120692344Y-94446510D01*
X120684103Y-94434004D01*
X120565744Y-94333128D01*
X120423968Y-94269219D01*
X120270000Y-94247339D01*
X118570000Y-94247339D01*
X118482415Y-94254323D01*
X118333860Y-94300328D01*
X118204004Y-94385897D01*
X118103128Y-94504256D01*
X118039219Y-94646032D01*
X118017339Y-94800000D01*
X101190000Y-94800000D01*
X101190000Y-74492299D01*
X144911026Y-74492299D01*
X144950729Y-74708623D01*
X145031694Y-74913116D01*
X145150835Y-75097988D01*
X145303617Y-75256197D01*
X145484218Y-75381719D01*
X145685761Y-75469770D01*
X145900567Y-75516999D01*
X146120457Y-75521605D01*
X146337053Y-75483413D01*
X146542106Y-75403878D01*
X146727805Y-75286030D01*
X146887077Y-75134357D01*
X147013856Y-74954636D01*
X147103313Y-74753713D01*
X147152040Y-74539241D01*
X147152695Y-74492299D01*
X147451026Y-74492299D01*
X147490729Y-74708623D01*
X147571694Y-74913116D01*
X147690835Y-75097988D01*
X147843617Y-75256197D01*
X148024218Y-75381719D01*
X148225761Y-75469770D01*
X148440567Y-75516999D01*
X148660457Y-75521605D01*
X148877053Y-75483413D01*
X149082106Y-75403878D01*
X149267805Y-75286030D01*
X149427077Y-75134357D01*
X149553856Y-74954636D01*
X149643313Y-74753713D01*
X149692040Y-74539241D01*
X149695548Y-74288031D01*
X149652828Y-74072283D01*
X149569017Y-73868940D01*
X149447305Y-73685750D01*
X149292330Y-73529689D01*
X149109993Y-73406701D01*
X148907241Y-73321472D01*
X148691796Y-73277247D01*
X148471864Y-73275712D01*
X148255822Y-73316924D01*
X148051900Y-73399314D01*
X147867864Y-73519744D01*
X147710725Y-73673626D01*
X147586467Y-73855099D01*
X147499825Y-74057252D01*
X147454097Y-74272383D01*
X147451026Y-74492299D01*
X147152695Y-74492299D01*
X147155548Y-74288031D01*
X147112828Y-74072283D01*
X147029017Y-73868940D01*
X146907305Y-73685750D01*
X146752330Y-73529689D01*
X146569993Y-73406701D01*
X146367241Y-73321472D01*
X146151796Y-73277247D01*
X145931864Y-73275712D01*
X145715822Y-73316924D01*
X145511900Y-73399314D01*
X145327864Y-73519744D01*
X145170725Y-73673626D01*
X145046467Y-73855099D01*
X144959825Y-74057252D01*
X144914097Y-74272383D01*
X144911026Y-74492299D01*
X101190000Y-74492299D01*
X101190000Y-67530131D01*
X102579594Y-67530131D01*
X102604599Y-67804882D01*
X102682493Y-68069544D01*
X102810310Y-68314035D01*
X102983181Y-68529044D01*
X103194523Y-68706380D01*
X103383991Y-68810541D01*
X103210886Y-68902583D01*
X102997089Y-69076951D01*
X102821232Y-69289525D01*
X102690014Y-69532208D01*
X102608432Y-69795756D01*
X102579594Y-70070131D01*
X102604599Y-70344882D01*
X102682493Y-70609544D01*
X102810310Y-70854035D01*
X102983181Y-71069044D01*
X103194523Y-71246380D01*
X103383991Y-71350541D01*
X103210886Y-71442583D01*
X102997089Y-71616951D01*
X102821232Y-71829525D01*
X102690014Y-72072208D01*
X102608432Y-72335756D01*
X102579594Y-72610131D01*
X102604599Y-72884882D01*
X102682493Y-73149544D01*
X102810310Y-73394035D01*
X102983181Y-73609044D01*
X103194523Y-73786380D01*
X103436284Y-73919290D01*
X103699256Y-74002709D01*
X103973423Y-74033462D01*
X103993160Y-74033600D01*
X104006840Y-74033600D01*
X104281410Y-74006678D01*
X104545521Y-73926938D01*
X104789114Y-73797417D01*
X105002911Y-73623049D01*
X105178768Y-73410475D01*
X105309574Y-73168553D01*
X105371019Y-73302444D01*
X105526619Y-73517388D01*
X105721163Y-73697846D01*
X105947174Y-73836883D01*
X106195967Y-73929156D01*
X106405000Y-73844357D01*
X106405000Y-72755000D01*
X106675000Y-72755000D01*
X106675000Y-73844357D01*
X106884033Y-73929156D01*
X107132826Y-73836883D01*
X107358837Y-73697846D01*
X107553381Y-73517388D01*
X107708981Y-73302444D01*
X107819658Y-73061274D01*
X107849150Y-72964032D01*
X107763676Y-72755000D01*
X106675000Y-72755000D01*
X106405000Y-72755000D01*
X106385000Y-72755000D01*
X106385000Y-72485000D01*
X106405000Y-72485000D01*
X106405000Y-72465000D01*
X106675000Y-72465000D01*
X106675000Y-72485000D01*
X107763676Y-72485000D01*
X107849150Y-72275968D01*
X107819658Y-72178726D01*
X107708981Y-71937556D01*
X107553381Y-71722612D01*
X107358837Y-71542154D01*
X107132826Y-71403117D01*
X107087034Y-71386134D01*
X107329114Y-71257417D01*
X107542911Y-71083049D01*
X107718768Y-70870475D01*
X107849986Y-70627792D01*
X107931568Y-70364244D01*
X107960406Y-70089869D01*
X107935401Y-69815118D01*
X107857507Y-69550456D01*
X107729690Y-69305965D01*
X107556819Y-69090956D01*
X107345477Y-68913620D01*
X107156009Y-68809459D01*
X107329114Y-68717417D01*
X107542911Y-68543049D01*
X107718768Y-68330475D01*
X107849986Y-68087792D01*
X107931568Y-67824244D01*
X107960406Y-67549869D01*
X107935401Y-67275118D01*
X107913293Y-67200000D01*
X118017339Y-67200000D01*
X118017339Y-71200000D01*
X118024323Y-71287585D01*
X118070328Y-71436140D01*
X118155897Y-71565996D01*
X118274256Y-71666872D01*
X118416032Y-71730781D01*
X118570000Y-71752661D01*
X120270000Y-71752661D01*
X120357585Y-71745677D01*
X120506140Y-71699672D01*
X120635996Y-71614103D01*
X120687656Y-71553490D01*
X120695897Y-71565996D01*
X120814256Y-71666872D01*
X120956032Y-71730781D01*
X121110000Y-71752661D01*
X122810000Y-71752661D01*
X122897585Y-71745677D01*
X123046140Y-71699672D01*
X123175996Y-71614103D01*
X123227656Y-71553490D01*
X123235897Y-71565996D01*
X123354256Y-71666872D01*
X123496032Y-71730781D01*
X123650000Y-71752661D01*
X125350000Y-71752661D01*
X125437585Y-71745677D01*
X125586140Y-71699672D01*
X125715996Y-71614103D01*
X125767656Y-71553490D01*
X125775897Y-71565996D01*
X125894256Y-71666872D01*
X126036032Y-71730781D01*
X126190000Y-71752661D01*
X127890000Y-71752661D01*
X127977585Y-71745677D01*
X128126140Y-71699672D01*
X128255996Y-71614103D01*
X128307656Y-71553490D01*
X128315897Y-71565996D01*
X128434256Y-71666872D01*
X128576032Y-71730781D01*
X128730000Y-71752661D01*
X130430000Y-71752661D01*
X130517585Y-71745677D01*
X130666140Y-71699672D01*
X130795996Y-71614103D01*
X130896872Y-71495744D01*
X130960781Y-71353968D01*
X130982661Y-71200000D01*
X130982661Y-67200000D01*
X135017339Y-67200000D01*
X135017339Y-71200000D01*
X135024323Y-71287585D01*
X135070328Y-71436140D01*
X135155897Y-71565996D01*
X135274256Y-71666872D01*
X135416032Y-71730781D01*
X135570000Y-71752661D01*
X137270000Y-71752661D01*
X137357585Y-71745677D01*
X137506140Y-71699672D01*
X137635996Y-71614103D01*
X137687656Y-71553490D01*
X137695897Y-71565996D01*
X137814256Y-71666872D01*
X137956032Y-71730781D01*
X138110000Y-71752661D01*
X139810000Y-71752661D01*
X139897585Y-71745677D01*
X140046140Y-71699672D01*
X140175996Y-71614103D01*
X140227656Y-71553490D01*
X140235897Y-71565996D01*
X140354256Y-71666872D01*
X140496032Y-71730781D01*
X140650000Y-71752661D01*
X142350000Y-71752661D01*
X142437585Y-71745677D01*
X142586140Y-71699672D01*
X142715996Y-71614103D01*
X142767656Y-71553490D01*
X142775897Y-71565996D01*
X142894256Y-71666872D01*
X143036032Y-71730781D01*
X143190000Y-71752661D01*
X144890000Y-71752661D01*
X144913840Y-71750760D01*
X144911026Y-71952299D01*
X144950729Y-72168623D01*
X145031694Y-72373116D01*
X145150835Y-72557988D01*
X145303617Y-72716197D01*
X145484218Y-72841719D01*
X145685761Y-72929770D01*
X145900567Y-72976999D01*
X146120457Y-72981605D01*
X146337053Y-72943413D01*
X146542106Y-72863878D01*
X146727805Y-72746030D01*
X146887077Y-72594357D01*
X147013856Y-72414636D01*
X147103313Y-72213713D01*
X147152040Y-71999241D01*
X147155483Y-71752661D01*
X147430000Y-71752661D01*
X147453840Y-71750760D01*
X147451026Y-71952299D01*
X147490729Y-72168623D01*
X147571694Y-72373116D01*
X147690835Y-72557988D01*
X147843617Y-72716197D01*
X148024218Y-72841719D01*
X148225761Y-72929770D01*
X148440567Y-72976999D01*
X148660457Y-72981605D01*
X148877053Y-72943413D01*
X149082106Y-72863878D01*
X149267805Y-72746030D01*
X149427077Y-72594357D01*
X149553856Y-72414636D01*
X149643313Y-72213713D01*
X149692040Y-71999241D01*
X149695548Y-71748031D01*
X149652828Y-71532283D01*
X149569017Y-71328940D01*
X149447305Y-71145750D01*
X149292330Y-70989689D01*
X149109993Y-70866701D01*
X148907241Y-70781472D01*
X148691796Y-70737247D01*
X148471864Y-70735712D01*
X148255822Y-70776924D01*
X148051900Y-70859314D01*
X147982661Y-70904623D01*
X147982661Y-67200000D01*
X152017339Y-67200000D01*
X152017339Y-71200000D01*
X152024323Y-71287585D01*
X152070328Y-71436140D01*
X152155897Y-71565996D01*
X152274256Y-71666872D01*
X152416032Y-71730781D01*
X152570000Y-71752661D01*
X154270000Y-71752661D01*
X154357585Y-71745677D01*
X154506140Y-71699672D01*
X154635996Y-71614103D01*
X154687656Y-71553490D01*
X154695897Y-71565996D01*
X154814256Y-71666872D01*
X154956032Y-71730781D01*
X155110000Y-71752661D01*
X156810000Y-71752661D01*
X156897585Y-71745677D01*
X157046140Y-71699672D01*
X157175996Y-71614103D01*
X157227656Y-71553490D01*
X157235897Y-71565996D01*
X157354256Y-71666872D01*
X157496032Y-71730781D01*
X157650000Y-71752661D01*
X159350000Y-71752661D01*
X159437585Y-71745677D01*
X159586140Y-71699672D01*
X159715996Y-71614103D01*
X159767656Y-71553490D01*
X159775897Y-71565996D01*
X159894256Y-71666872D01*
X160036032Y-71730781D01*
X160190000Y-71752661D01*
X161890000Y-71752661D01*
X161977585Y-71745677D01*
X162126140Y-71699672D01*
X162255996Y-71614103D01*
X162307656Y-71553490D01*
X162315897Y-71565996D01*
X162434256Y-71666872D01*
X162576032Y-71730781D01*
X162730000Y-71752661D01*
X164430000Y-71752661D01*
X164517585Y-71745677D01*
X164666140Y-71699672D01*
X164795996Y-71614103D01*
X164896872Y-71495744D01*
X164960781Y-71353968D01*
X164982661Y-71200000D01*
X164982661Y-67200000D01*
X169017339Y-67200000D01*
X169017339Y-71200000D01*
X169024323Y-71287585D01*
X169070328Y-71436140D01*
X169155897Y-71565996D01*
X169274256Y-71666872D01*
X169416032Y-71730781D01*
X169570000Y-71752661D01*
X171270000Y-71752661D01*
X171357585Y-71745677D01*
X171506140Y-71699672D01*
X171635996Y-71614103D01*
X171687656Y-71553490D01*
X171695897Y-71565996D01*
X171814256Y-71666872D01*
X171956032Y-71730781D01*
X172110000Y-71752661D01*
X173810000Y-71752661D01*
X173897585Y-71745677D01*
X174046140Y-71699672D01*
X174175996Y-71614103D01*
X174227656Y-71553490D01*
X174235897Y-71565996D01*
X174354256Y-71666872D01*
X174496032Y-71730781D01*
X174650000Y-71752661D01*
X176350000Y-71752661D01*
X176437585Y-71745677D01*
X176586140Y-71699672D01*
X176715996Y-71614103D01*
X176767656Y-71553490D01*
X176775897Y-71565996D01*
X176894256Y-71666872D01*
X177036032Y-71730781D01*
X177190000Y-71752661D01*
X178890000Y-71752661D01*
X178977585Y-71745677D01*
X179126140Y-71699672D01*
X179255996Y-71614103D01*
X179307656Y-71553490D01*
X179315897Y-71565996D01*
X179434256Y-71666872D01*
X179576032Y-71730781D01*
X179730000Y-71752661D01*
X181430000Y-71752661D01*
X181517585Y-71745677D01*
X181666140Y-71699672D01*
X181795996Y-71614103D01*
X181896872Y-71495744D01*
X181960781Y-71353968D01*
X181982661Y-71200000D01*
X181982661Y-67200000D01*
X181975677Y-67112415D01*
X181929672Y-66963860D01*
X181844103Y-66834004D01*
X181725744Y-66733128D01*
X181583968Y-66669219D01*
X181430000Y-66647339D01*
X179730000Y-66647339D01*
X179642415Y-66654323D01*
X179493860Y-66700328D01*
X179364004Y-66785897D01*
X179312344Y-66846510D01*
X179304103Y-66834004D01*
X179185744Y-66733128D01*
X179043968Y-66669219D01*
X178890000Y-66647339D01*
X177190000Y-66647339D01*
X177102415Y-66654323D01*
X176953860Y-66700328D01*
X176824004Y-66785897D01*
X176772344Y-66846510D01*
X176764103Y-66834004D01*
X176645744Y-66733128D01*
X176503968Y-66669219D01*
X176350000Y-66647339D01*
X174650000Y-66647339D01*
X174562415Y-66654323D01*
X174413860Y-66700328D01*
X174284004Y-66785897D01*
X174232344Y-66846510D01*
X174224103Y-66834004D01*
X174105744Y-66733128D01*
X173963968Y-66669219D01*
X173810000Y-66647339D01*
X172110000Y-66647339D01*
X172022415Y-66654323D01*
X171873860Y-66700328D01*
X171744004Y-66785897D01*
X171692344Y-66846510D01*
X171684103Y-66834004D01*
X171565744Y-66733128D01*
X171423968Y-66669219D01*
X171270000Y-66647339D01*
X169570000Y-66647339D01*
X169482415Y-66654323D01*
X169333860Y-66700328D01*
X169204004Y-66785897D01*
X169103128Y-66904256D01*
X169039219Y-67046032D01*
X169017339Y-67200000D01*
X164982661Y-67200000D01*
X164975677Y-67112415D01*
X164929672Y-66963860D01*
X164844103Y-66834004D01*
X164725744Y-66733128D01*
X164583968Y-66669219D01*
X164430000Y-66647339D01*
X162730000Y-66647339D01*
X162642415Y-66654323D01*
X162493860Y-66700328D01*
X162364004Y-66785897D01*
X162312344Y-66846510D01*
X162304103Y-66834004D01*
X162185744Y-66733128D01*
X162043968Y-66669219D01*
X161890000Y-66647339D01*
X160190000Y-66647339D01*
X160102415Y-66654323D01*
X159953860Y-66700328D01*
X159824004Y-66785897D01*
X159772344Y-66846510D01*
X159764103Y-66834004D01*
X159645744Y-66733128D01*
X159503968Y-66669219D01*
X159350000Y-66647339D01*
X157650000Y-66647339D01*
X157562415Y-66654323D01*
X157413860Y-66700328D01*
X157284004Y-66785897D01*
X157232344Y-66846510D01*
X157224103Y-66834004D01*
X157105744Y-66733128D01*
X156963968Y-66669219D01*
X156810000Y-66647339D01*
X155110000Y-66647339D01*
X155022415Y-66654323D01*
X154873860Y-66700328D01*
X154744004Y-66785897D01*
X154692344Y-66846510D01*
X154684103Y-66834004D01*
X154565744Y-66733128D01*
X154423968Y-66669219D01*
X154270000Y-66647339D01*
X152570000Y-66647339D01*
X152482415Y-66654323D01*
X152333860Y-66700328D01*
X152204004Y-66785897D01*
X152103128Y-66904256D01*
X152039219Y-67046032D01*
X152017339Y-67200000D01*
X147982661Y-67200000D01*
X147975677Y-67112415D01*
X147929672Y-66963860D01*
X147844103Y-66834004D01*
X147725744Y-66733128D01*
X147583968Y-66669219D01*
X147430000Y-66647339D01*
X145730000Y-66647339D01*
X145642415Y-66654323D01*
X145493860Y-66700328D01*
X145364004Y-66785897D01*
X145312344Y-66846510D01*
X145304103Y-66834004D01*
X145185744Y-66733128D01*
X145043968Y-66669219D01*
X144890000Y-66647339D01*
X143190000Y-66647339D01*
X143102415Y-66654323D01*
X142953860Y-66700328D01*
X142824004Y-66785897D01*
X142772344Y-66846510D01*
X142764103Y-66834004D01*
X142645744Y-66733128D01*
X142503968Y-66669219D01*
X142350000Y-66647339D01*
X140650000Y-66647339D01*
X140562415Y-66654323D01*
X140413860Y-66700328D01*
X140284004Y-66785897D01*
X140232344Y-66846510D01*
X140224103Y-66834004D01*
X140105744Y-66733128D01*
X139963968Y-66669219D01*
X139810000Y-66647339D01*
X138110000Y-66647339D01*
X138022415Y-66654323D01*
X137873860Y-66700328D01*
X137744004Y-66785897D01*
X137692344Y-66846510D01*
X137684103Y-66834004D01*
X137565744Y-66733128D01*
X137423968Y-66669219D01*
X137270000Y-66647339D01*
X135570000Y-66647339D01*
X135482415Y-66654323D01*
X135333860Y-66700328D01*
X135204004Y-66785897D01*
X135103128Y-66904256D01*
X135039219Y-67046032D01*
X135017339Y-67200000D01*
X130982661Y-67200000D01*
X130975677Y-67112415D01*
X130929672Y-66963860D01*
X130844103Y-66834004D01*
X130725744Y-66733128D01*
X130583968Y-66669219D01*
X130430000Y-66647339D01*
X128730000Y-66647339D01*
X128642415Y-66654323D01*
X128493860Y-66700328D01*
X128364004Y-66785897D01*
X128312344Y-66846510D01*
X128304103Y-66834004D01*
X128185744Y-66733128D01*
X128043968Y-66669219D01*
X127890000Y-66647339D01*
X126190000Y-66647339D01*
X126102415Y-66654323D01*
X125953860Y-66700328D01*
X125824004Y-66785897D01*
X125772344Y-66846510D01*
X125764103Y-66834004D01*
X125645744Y-66733128D01*
X125503968Y-66669219D01*
X125350000Y-66647339D01*
X123650000Y-66647339D01*
X123562415Y-66654323D01*
X123413860Y-66700328D01*
X123284004Y-66785897D01*
X123232344Y-66846510D01*
X123224103Y-66834004D01*
X123105744Y-66733128D01*
X122963968Y-66669219D01*
X122810000Y-66647339D01*
X121110000Y-66647339D01*
X121022415Y-66654323D01*
X120873860Y-66700328D01*
X120744004Y-66785897D01*
X120692344Y-66846510D01*
X120684103Y-66834004D01*
X120565744Y-66733128D01*
X120423968Y-66669219D01*
X120270000Y-66647339D01*
X118570000Y-66647339D01*
X118482415Y-66654323D01*
X118333860Y-66700328D01*
X118204004Y-66785897D01*
X118103128Y-66904256D01*
X118039219Y-67046032D01*
X118017339Y-67200000D01*
X107913293Y-67200000D01*
X107857507Y-67010456D01*
X107729690Y-66765965D01*
X107556819Y-66550956D01*
X107345477Y-66373620D01*
X107156009Y-66269459D01*
X107329114Y-66177417D01*
X107542911Y-66003049D01*
X107718768Y-65790475D01*
X107849986Y-65547792D01*
X107931568Y-65284244D01*
X107960406Y-65009869D01*
X107935401Y-64735118D01*
X107857507Y-64470456D01*
X107729690Y-64225965D01*
X107556819Y-64010956D01*
X107345477Y-63833620D01*
X107103716Y-63700710D01*
X106840744Y-63617291D01*
X106566577Y-63586538D01*
X106546840Y-63586400D01*
X106533160Y-63586400D01*
X106258590Y-63613322D01*
X105994479Y-63693062D01*
X105750886Y-63822583D01*
X105537089Y-63996951D01*
X105416261Y-64143007D01*
X105416261Y-64136400D01*
X105409277Y-64048815D01*
X105363272Y-63900260D01*
X105277703Y-63770404D01*
X105159344Y-63669528D01*
X105017568Y-63605619D01*
X104863600Y-63583739D01*
X103136400Y-63583739D01*
X103048815Y-63590723D01*
X102900260Y-63636728D01*
X102770404Y-63722297D01*
X102669528Y-63840656D01*
X102605619Y-63982432D01*
X102583739Y-64136400D01*
X102583739Y-65863600D01*
X102590723Y-65951185D01*
X102636728Y-66099740D01*
X102722297Y-66229596D01*
X102840656Y-66330472D01*
X102982432Y-66394381D01*
X103136400Y-66416261D01*
X103145070Y-66416261D01*
X102997089Y-66536951D01*
X102821232Y-66749525D01*
X102690014Y-66992208D01*
X102608432Y-67255756D01*
X102579594Y-67530131D01*
X101190000Y-67530131D01*
X101190000Y-62900560D01*
X133298879Y-62900560D01*
X133298879Y-64099440D01*
X133305863Y-64187025D01*
X133351868Y-64335580D01*
X133437437Y-64465436D01*
X133555796Y-64566312D01*
X133697572Y-64630221D01*
X133851540Y-64652101D01*
X135050420Y-64652101D01*
X135138005Y-64645117D01*
X135286560Y-64599112D01*
X135416416Y-64513543D01*
X135517292Y-64395184D01*
X135533640Y-64358918D01*
X135568972Y-64411797D01*
X135637223Y-64480048D01*
X135717478Y-64533672D01*
X135806652Y-64570610D01*
X135901319Y-64589440D01*
X136291520Y-64589440D01*
X136414020Y-64466940D01*
X136414020Y-63635000D01*
X136684020Y-63635000D01*
X136684020Y-64466940D01*
X136806520Y-64589440D01*
X137196721Y-64589440D01*
X137291388Y-64570610D01*
X137380562Y-64533672D01*
X137443824Y-64491402D01*
X168449517Y-64491402D01*
X168542086Y-64704036D01*
X168790584Y-64819008D01*
X169056737Y-64883291D01*
X169330317Y-64894415D01*
X169600811Y-64851954D01*
X169857823Y-64757536D01*
X169957914Y-64704036D01*
X170050483Y-64491402D01*
X171449517Y-64491402D01*
X171542086Y-64704036D01*
X171790584Y-64819008D01*
X172056737Y-64883291D01*
X172330317Y-64894415D01*
X172600811Y-64851954D01*
X172857823Y-64757536D01*
X172957914Y-64704036D01*
X173050483Y-64491402D01*
X172250000Y-63690919D01*
X171449517Y-64491402D01*
X170050483Y-64491402D01*
X169250000Y-63690919D01*
X168449517Y-64491402D01*
X137443824Y-64491402D01*
X137460817Y-64480048D01*
X137529068Y-64411797D01*
X137582692Y-64331542D01*
X137619630Y-64242368D01*
X137638460Y-64147701D01*
X137638460Y-63757500D01*
X137515960Y-63635000D01*
X136684020Y-63635000D01*
X136414020Y-63635000D01*
X136394020Y-63635000D01*
X136394020Y-63580317D01*
X167855585Y-63580317D01*
X167898046Y-63850811D01*
X167992464Y-64107823D01*
X168045964Y-64207914D01*
X168258598Y-64300483D01*
X169059081Y-63500000D01*
X169440919Y-63500000D01*
X170241402Y-64300483D01*
X170454036Y-64207914D01*
X170569008Y-63959416D01*
X170633291Y-63693263D01*
X170637883Y-63580317D01*
X170855585Y-63580317D01*
X170898046Y-63850811D01*
X170992464Y-64107823D01*
X171045964Y-64207914D01*
X171258598Y-64300483D01*
X172059081Y-63500000D01*
X172440919Y-63500000D01*
X173241402Y-64300483D01*
X173454036Y-64207914D01*
X173569008Y-63959416D01*
X173633291Y-63693263D01*
X173636191Y-63621920D01*
X173798094Y-63621920D01*
X173849426Y-63901608D01*
X173954106Y-64165999D01*
X174108146Y-64405022D01*
X174305679Y-64609573D01*
X174539181Y-64771861D01*
X174799757Y-64885705D01*
X175077484Y-64946767D01*
X175361781Y-64952722D01*
X175641820Y-64903343D01*
X175906936Y-64800512D01*
X176147029Y-64648144D01*
X176352954Y-64452044D01*
X176516868Y-64219681D01*
X176632528Y-63959906D01*
X176695527Y-63682613D01*
X176696374Y-63621920D01*
X176798094Y-63621920D01*
X176849426Y-63901608D01*
X176954106Y-64165999D01*
X177108146Y-64405022D01*
X177305679Y-64609573D01*
X177539181Y-64771861D01*
X177799757Y-64885705D01*
X178077484Y-64946767D01*
X178361781Y-64952722D01*
X178641820Y-64903343D01*
X178906936Y-64800512D01*
X179147029Y-64648144D01*
X179352954Y-64452044D01*
X179516868Y-64219681D01*
X179632528Y-63959906D01*
X179695527Y-63682613D01*
X179696374Y-63621920D01*
X179798094Y-63621920D01*
X179849426Y-63901608D01*
X179954106Y-64165999D01*
X180108146Y-64405022D01*
X180305679Y-64609573D01*
X180539181Y-64771861D01*
X180799757Y-64885705D01*
X181077484Y-64946767D01*
X181361781Y-64952722D01*
X181641820Y-64903343D01*
X181906936Y-64800512D01*
X182147029Y-64648144D01*
X182352954Y-64452044D01*
X182516868Y-64219681D01*
X182632528Y-63959906D01*
X182695527Y-63682613D01*
X182696374Y-63621920D01*
X182798094Y-63621920D01*
X182849426Y-63901608D01*
X182954106Y-64165999D01*
X183108146Y-64405022D01*
X183305679Y-64609573D01*
X183539181Y-64771861D01*
X183799757Y-64885705D01*
X184077484Y-64946767D01*
X184361781Y-64952722D01*
X184641820Y-64903343D01*
X184906936Y-64800512D01*
X185147029Y-64648144D01*
X185352954Y-64452044D01*
X185516868Y-64219681D01*
X185632528Y-63959906D01*
X185695527Y-63682613D01*
X185700062Y-63357820D01*
X185644830Y-63078876D01*
X185536469Y-62815972D01*
X185379107Y-62579123D01*
X185178737Y-62377350D01*
X184942992Y-62218338D01*
X184680851Y-62108144D01*
X184402300Y-62050966D01*
X184117947Y-62048980D01*
X183838624Y-62102264D01*
X183574970Y-62208787D01*
X183337028Y-62364492D01*
X183133861Y-62563448D01*
X182973207Y-62798077D01*
X182861186Y-63059442D01*
X182802064Y-63337588D01*
X182798094Y-63621920D01*
X182696374Y-63621920D01*
X182700062Y-63357820D01*
X182644830Y-63078876D01*
X182536469Y-62815972D01*
X182379107Y-62579123D01*
X182178737Y-62377350D01*
X181942992Y-62218338D01*
X181680851Y-62108144D01*
X181402300Y-62050966D01*
X181117947Y-62048980D01*
X180838624Y-62102264D01*
X180574970Y-62208787D01*
X180337028Y-62364492D01*
X180133861Y-62563448D01*
X179973207Y-62798077D01*
X179861186Y-63059442D01*
X179802064Y-63337588D01*
X179798094Y-63621920D01*
X179696374Y-63621920D01*
X179700062Y-63357820D01*
X179644830Y-63078876D01*
X179536469Y-62815972D01*
X179379107Y-62579123D01*
X179178737Y-62377350D01*
X178942992Y-62218338D01*
X178680851Y-62108144D01*
X178402300Y-62050966D01*
X178117947Y-62048980D01*
X177838624Y-62102264D01*
X177574970Y-62208787D01*
X177337028Y-62364492D01*
X177133861Y-62563448D01*
X176973207Y-62798077D01*
X176861186Y-63059442D01*
X176802064Y-63337588D01*
X176798094Y-63621920D01*
X176696374Y-63621920D01*
X176700062Y-63357820D01*
X176644830Y-63078876D01*
X176536469Y-62815972D01*
X176379107Y-62579123D01*
X176178737Y-62377350D01*
X175942992Y-62218338D01*
X175680851Y-62108144D01*
X175402300Y-62050966D01*
X175117947Y-62048980D01*
X174838624Y-62102264D01*
X174574970Y-62208787D01*
X174337028Y-62364492D01*
X174133861Y-62563448D01*
X173973207Y-62798077D01*
X173861186Y-63059442D01*
X173802064Y-63337588D01*
X173798094Y-63621920D01*
X173636191Y-63621920D01*
X173644415Y-63419683D01*
X173601954Y-63149189D01*
X173507536Y-62892177D01*
X173454036Y-62792086D01*
X173241402Y-62699517D01*
X172440919Y-63500000D01*
X172059081Y-63500000D01*
X171258598Y-62699517D01*
X171045964Y-62792086D01*
X170930992Y-63040584D01*
X170866709Y-63306737D01*
X170855585Y-63580317D01*
X170637883Y-63580317D01*
X170644415Y-63419683D01*
X170601954Y-63149189D01*
X170507536Y-62892177D01*
X170454036Y-62792086D01*
X170241402Y-62699517D01*
X169440919Y-63500000D01*
X169059081Y-63500000D01*
X168258598Y-62699517D01*
X168045964Y-62792086D01*
X167930992Y-63040584D01*
X167866709Y-63306737D01*
X167855585Y-63580317D01*
X136394020Y-63580317D01*
X136394020Y-63365000D01*
X136414020Y-63365000D01*
X136414020Y-62533060D01*
X136684020Y-62533060D01*
X136684020Y-63365000D01*
X137515960Y-63365000D01*
X137638460Y-63242500D01*
X137638460Y-62852299D01*
X137619630Y-62757632D01*
X137582692Y-62668458D01*
X137529068Y-62588203D01*
X137460817Y-62519952D01*
X137443825Y-62508598D01*
X168449517Y-62508598D01*
X169250000Y-63309081D01*
X170050483Y-62508598D01*
X171449517Y-62508598D01*
X172250000Y-63309081D01*
X173050483Y-62508598D01*
X172957914Y-62295964D01*
X172709416Y-62180992D01*
X172443263Y-62116709D01*
X172169683Y-62105585D01*
X171899189Y-62148046D01*
X171642177Y-62242464D01*
X171542086Y-62295964D01*
X171449517Y-62508598D01*
X170050483Y-62508598D01*
X169957914Y-62295964D01*
X169709416Y-62180992D01*
X169443263Y-62116709D01*
X169169683Y-62105585D01*
X168899189Y-62148046D01*
X168642177Y-62242464D01*
X168542086Y-62295964D01*
X168449517Y-62508598D01*
X137443825Y-62508598D01*
X137380562Y-62466328D01*
X137291388Y-62429390D01*
X137196721Y-62410560D01*
X136806520Y-62410560D01*
X136684020Y-62533060D01*
X136414020Y-62533060D01*
X136291520Y-62410560D01*
X135901319Y-62410560D01*
X135806652Y-62429390D01*
X135717478Y-62466328D01*
X135637223Y-62519952D01*
X135568972Y-62588203D01*
X135534180Y-62640273D01*
X135464523Y-62534564D01*
X135346164Y-62433688D01*
X135204388Y-62369779D01*
X135050420Y-62347899D01*
X133851540Y-62347899D01*
X133763955Y-62354883D01*
X133615400Y-62400888D01*
X133485544Y-62486457D01*
X133384668Y-62604816D01*
X133320759Y-62746592D01*
X133298879Y-62900560D01*
X101190000Y-62900560D01*
X101190000Y-59319514D01*
X101195005Y-59319514D01*
X101329531Y-60052490D01*
X101603864Y-60745377D01*
X102007555Y-61371783D01*
X102525227Y-61907848D01*
X103137163Y-62333154D01*
X103820054Y-62631502D01*
X104547888Y-62791527D01*
X105292943Y-62807133D01*
X106026840Y-62677727D01*
X106721625Y-62408238D01*
X107350834Y-62008930D01*
X107890500Y-61495013D01*
X108320068Y-60886061D01*
X108623176Y-60205270D01*
X108788278Y-59478571D01*
X108800163Y-58627391D01*
X108655416Y-57896365D01*
X108371436Y-57207376D01*
X107959038Y-56586668D01*
X107433931Y-56057882D01*
X106816117Y-55641161D01*
X106129128Y-55352378D01*
X105399130Y-55202531D01*
X104653930Y-55197328D01*
X103921911Y-55336968D01*
X103230956Y-55616132D01*
X102607384Y-56024186D01*
X102074946Y-56545588D01*
X101653922Y-57160478D01*
X101360349Y-57845435D01*
X101205409Y-58574368D01*
X101195005Y-59319514D01*
X101190000Y-59319514D01*
X101190000Y-57133595D01*
X101193015Y-57102982D01*
X101199222Y-57082522D01*
X101209301Y-57063664D01*
X101228822Y-57039878D01*
X103041203Y-55227497D01*
X103059951Y-55211484D01*
X103074591Y-55202513D01*
X103090454Y-55195942D01*
X103107151Y-55191934D01*
X103131722Y-55190000D01*
X107368278Y-55190000D01*
X107392849Y-55191934D01*
M02*
